<svg xmlns="http://www.w3.org/2000/svg" xmlns:xlink="http://www.w3.org/1999/xlink" width="600" height="400" viewBox="0 0 2400 1600">
<defs>
  <clipPath id="clip550">
    <rect x="0" y="0" width="2400" height="1600"></rect>
  </clipPath>
</defs>
<path clip-path="url(#clip550)" d="M0 1600 L2400 1600 L2400 8.88178e-14 L0 8.88178e-14  Z" fill="#ffffff" fill-rule="evenodd" fill-opacity="1"></path>
<defs>
  <clipPath id="clip551">
    <rect x="480" y="0" width="1681" height="1600"></rect>
  </clipPath>
</defs>
<path clip-path="url(#clip550)" d="M257.204 1423.18 L2352.76 1423.18 L2352.76 123.472 L257.204 123.472  Z" fill="#ffffff" fill-rule="evenodd" fill-opacity="1"></path>
<defs>
  <clipPath id="clip552">
    <rect x="257" y="123" width="2097" height="1301"></rect>
  </clipPath>
</defs>
<polyline clip-path="url(#clip552)" style="stroke:#000000; stroke-linecap:round; stroke-linejoin:round; stroke-width:2; stroke-opacity:0.1; fill:none" points="492.153,1423.18 492.153,123.472 "></polyline>
<polyline clip-path="url(#clip552)" style="stroke:#000000; stroke-linecap:round; stroke-linejoin:round; stroke-width:2; stroke-opacity:0.1; fill:none" points="925.373,1423.18 925.373,123.472 "></polyline>
<polyline clip-path="url(#clip552)" style="stroke:#000000; stroke-linecap:round; stroke-linejoin:round; stroke-width:2; stroke-opacity:0.1; fill:none" points="1358.59,1423.18 1358.59,123.472 "></polyline>
<polyline clip-path="url(#clip552)" style="stroke:#000000; stroke-linecap:round; stroke-linejoin:round; stroke-width:2; stroke-opacity:0.1; fill:none" points="1791.81,1423.18 1791.81,123.472 "></polyline>
<polyline clip-path="url(#clip552)" style="stroke:#000000; stroke-linecap:round; stroke-linejoin:round; stroke-width:2; stroke-opacity:0.1; fill:none" points="2225.03,1423.18 2225.03,123.472 "></polyline>
<polyline clip-path="url(#clip552)" style="stroke:#000000; stroke-linecap:round; stroke-linejoin:round; stroke-width:2; stroke-opacity:0.1; fill:none" points="257.204,1423.16 2352.76,1423.16 "></polyline>
<polyline clip-path="url(#clip552)" style="stroke:#000000; stroke-linecap:round; stroke-linejoin:round; stroke-width:2; stroke-opacity:0.1; fill:none" points="257.204,1206.55 2352.76,1206.55 "></polyline>
<polyline clip-path="url(#clip552)" style="stroke:#000000; stroke-linecap:round; stroke-linejoin:round; stroke-width:2; stroke-opacity:0.1; fill:none" points="257.204,989.936 2352.76,989.936 "></polyline>
<polyline clip-path="url(#clip552)" style="stroke:#000000; stroke-linecap:round; stroke-linejoin:round; stroke-width:2; stroke-opacity:0.1; fill:none" points="257.204,773.326 2352.76,773.326 "></polyline>
<polyline clip-path="url(#clip552)" style="stroke:#000000; stroke-linecap:round; stroke-linejoin:round; stroke-width:2; stroke-opacity:0.1; fill:none" points="257.204,556.716 2352.76,556.716 "></polyline>
<polyline clip-path="url(#clip552)" style="stroke:#000000; stroke-linecap:round; stroke-linejoin:round; stroke-width:2; stroke-opacity:0.1; fill:none" points="257.204,340.106 2352.76,340.106 "></polyline>
<polyline clip-path="url(#clip552)" style="stroke:#000000; stroke-linecap:round; stroke-linejoin:round; stroke-width:2; stroke-opacity:0.1; fill:none" points="257.204,123.495 2352.76,123.495 "></polyline>
<polyline clip-path="url(#clip550)" style="stroke:#000000; stroke-linecap:round; stroke-linejoin:round; stroke-width:4; stroke-opacity:1; fill:none" points="257.204,1423.18 2352.76,1423.18 "></polyline>
<polyline clip-path="url(#clip550)" style="stroke:#000000; stroke-linecap:round; stroke-linejoin:round; stroke-width:4; stroke-opacity:1; fill:none" points="492.153,1423.18 492.153,1404.28 "></polyline>
<polyline clip-path="url(#clip550)" style="stroke:#000000; stroke-linecap:round; stroke-linejoin:round; stroke-width:4; stroke-opacity:1; fill:none" points="925.373,1423.18 925.373,1404.28 "></polyline>
<polyline clip-path="url(#clip550)" style="stroke:#000000; stroke-linecap:round; stroke-linejoin:round; stroke-width:4; stroke-opacity:1; fill:none" points="1358.59,1423.18 1358.59,1404.28 "></polyline>
<polyline clip-path="url(#clip550)" style="stroke:#000000; stroke-linecap:round; stroke-linejoin:round; stroke-width:4; stroke-opacity:1; fill:none" points="1791.81,1423.18 1791.81,1404.28 "></polyline>
<polyline clip-path="url(#clip550)" style="stroke:#000000; stroke-linecap:round; stroke-linejoin:round; stroke-width:4; stroke-opacity:1; fill:none" points="2225.03,1423.18 2225.03,1404.28 "></polyline>
<path clip-path="url(#clip550)" d="M461.91 1468.75 L491.586 1468.75 L491.586 1472.69 L461.91 1472.69 L461.91 1468.75 Z" fill="#000000" fill-rule="nonzero" fill-opacity="1"></path><path clip-path="url(#clip550)" d="M502.489 1481.64 L510.128 1481.64 L510.128 1455.28 L501.817 1456.95 L501.817 1452.69 L510.081 1451.02 L514.757 1451.02 L514.757 1481.64 L522.396 1481.64 L522.396 1485.58 L502.489 1485.58 L502.489 1481.64 Z" fill="#000000" fill-rule="nonzero" fill-opacity="1"></path><path clip-path="url(#clip550)" d="M925.373 1454.1 Q921.762 1454.1 919.934 1457.66 Q918.128 1461.2 918.128 1468.33 Q918.128 1475.44 919.934 1479.01 Q921.762 1482.55 925.373 1482.55 Q929.008 1482.55 930.813 1479.01 Q932.642 1475.44 932.642 1468.33 Q932.642 1461.2 930.813 1457.66 Q929.008 1454.1 925.373 1454.1 M925.373 1450.39 Q931.184 1450.39 934.239 1455 Q937.318 1459.58 937.318 1468.33 Q937.318 1477.06 934.239 1481.67 Q931.184 1486.25 925.373 1486.25 Q919.563 1486.25 916.485 1481.67 Q913.429 1477.06 913.429 1468.33 Q913.429 1459.58 916.485 1455 Q919.563 1450.39 925.373 1450.39 Z" fill="#000000" fill-rule="nonzero" fill-opacity="1"></path><path clip-path="url(#clip550)" d="M1348.98 1481.64 L1356.61 1481.64 L1356.61 1455.28 L1348.3 1456.95 L1348.3 1452.69 L1356.57 1451.02 L1361.24 1451.02 L1361.24 1481.64 L1368.88 1481.64 L1368.88 1485.58 L1348.98 1485.58 L1348.98 1481.64 Z" fill="#000000" fill-rule="nonzero" fill-opacity="1"></path><path clip-path="url(#clip550)" d="M1786.47 1481.64 L1802.79 1481.64 L1802.79 1485.58 L1780.84 1485.58 L1780.84 1481.64 Q1783.5 1478.89 1788.09 1474.26 Q1792.69 1469.61 1793.87 1468.27 Q1796.12 1465.74 1797 1464.01 Q1797.9 1462.25 1797.9 1460.56 Q1797.9 1457.8 1795.96 1456.07 Q1794.04 1454.33 1790.93 1454.33 Q1788.74 1454.33 1786.28 1455.09 Q1783.85 1455.86 1781.07 1457.41 L1781.07 1452.69 Q1783.9 1451.55 1786.35 1450.97 Q1788.8 1450.39 1790.84 1450.39 Q1796.21 1450.39 1799.41 1453.08 Q1802.6 1455.77 1802.6 1460.26 Q1802.6 1462.39 1801.79 1464.31 Q1801 1466.2 1798.9 1468.8 Q1798.32 1469.47 1795.22 1472.69 Q1792.12 1475.88 1786.47 1481.64 Z" fill="#000000" fill-rule="nonzero" fill-opacity="1"></path><path clip-path="url(#clip550)" d="M2229.28 1466.95 Q2232.64 1467.66 2234.51 1469.93 Q2236.41 1472.2 2236.41 1475.53 Q2236.41 1480.65 2232.89 1483.45 Q2229.37 1486.25 2222.89 1486.25 Q2220.72 1486.25 2218.4 1485.81 Q2216.11 1485.39 2213.66 1484.54 L2213.66 1480.02 Q2215.6 1481.16 2217.92 1481.74 Q2220.23 1482.32 2222.75 1482.32 Q2227.15 1482.32 2229.44 1480.58 Q2231.76 1478.84 2231.76 1475.53 Q2231.76 1472.48 2229.61 1470.77 Q2227.48 1469.03 2223.66 1469.03 L2219.63 1469.03 L2219.63 1465.19 L2223.84 1465.19 Q2227.29 1465.19 2229.12 1463.82 Q2230.95 1462.43 2230.95 1459.84 Q2230.95 1457.18 2229.05 1455.77 Q2227.18 1454.33 2223.66 1454.33 Q2221.74 1454.33 2219.54 1454.75 Q2217.34 1455.16 2214.7 1456.04 L2214.7 1451.88 Q2217.36 1451.14 2219.68 1450.77 Q2222.01 1450.39 2224.07 1450.39 Q2229.4 1450.39 2232.5 1452.83 Q2235.6 1455.23 2235.6 1459.35 Q2235.6 1462.22 2233.96 1464.21 Q2232.31 1466.18 2229.28 1466.95 Z" fill="#000000" fill-rule="nonzero" fill-opacity="1"></path><path clip-path="url(#clip550)" d="M1321.59 1532.4 L1308.7 1549.74 L1322.26 1568.04 L1315.36 1568.04 L1304.98 1554.04 L1294.6 1568.04 L1287.7 1568.04 L1301.54 1549.39 L1288.87 1532.4 L1295.78 1532.4 L1305.23 1545.1 L1314.69 1532.4 L1321.59 1532.4 Z" fill="#000000" fill-rule="nonzero" fill-opacity="1"></path><polyline clip-path="url(#clip550)" style="stroke:#000000; stroke-linecap:round; stroke-linejoin:round; stroke-width:4; stroke-opacity:1; fill:none" points="257.204,1423.18 257.204,123.472 "></polyline>
<polyline clip-path="url(#clip550)" style="stroke:#000000; stroke-linecap:round; stroke-linejoin:round; stroke-width:4; stroke-opacity:1; fill:none" points="257.204,1423.16 276.102,1423.16 "></polyline>
<polyline clip-path="url(#clip550)" style="stroke:#000000; stroke-linecap:round; stroke-linejoin:round; stroke-width:4; stroke-opacity:1; fill:none" points="257.204,1206.55 276.102,1206.55 "></polyline>
<polyline clip-path="url(#clip550)" style="stroke:#000000; stroke-linecap:round; stroke-linejoin:round; stroke-width:4; stroke-opacity:1; fill:none" points="257.204,989.936 276.102,989.936 "></polyline>
<polyline clip-path="url(#clip550)" style="stroke:#000000; stroke-linecap:round; stroke-linejoin:round; stroke-width:4; stroke-opacity:1; fill:none" points="257.204,773.326 276.102,773.326 "></polyline>
<polyline clip-path="url(#clip550)" style="stroke:#000000; stroke-linecap:round; stroke-linejoin:round; stroke-width:4; stroke-opacity:1; fill:none" points="257.204,556.716 276.102,556.716 "></polyline>
<polyline clip-path="url(#clip550)" style="stroke:#000000; stroke-linecap:round; stroke-linejoin:round; stroke-width:4; stroke-opacity:1; fill:none" points="257.204,340.106 276.102,340.106 "></polyline>
<polyline clip-path="url(#clip550)" style="stroke:#000000; stroke-linecap:round; stroke-linejoin:round; stroke-width:4; stroke-opacity:1; fill:none" points="257.204,123.495 276.102,123.495 "></polyline>
<path clip-path="url(#clip550)" d="M115.256 1423.61 L144.931 1423.61 L144.931 1427.54 L115.256 1427.54 L115.256 1423.61 Z" fill="#000000" fill-rule="nonzero" fill-opacity="1"></path><path clip-path="url(#clip550)" d="M155.834 1436.5 L163.473 1436.5 L163.473 1410.14 L155.163 1411.8 L155.163 1407.54 L163.427 1405.88 L168.102 1405.88 L168.102 1436.5 L175.741 1436.5 L175.741 1440.44 L155.834 1440.44 L155.834 1436.5 Z" fill="#000000" fill-rule="nonzero" fill-opacity="1"></path><path clip-path="url(#clip550)" d="M185.186 1434.56 L190.07 1434.56 L190.07 1440.44 L185.186 1440.44 L185.186 1434.56 Z" fill="#000000" fill-rule="nonzero" fill-opacity="1"></path><path clip-path="url(#clip550)" d="M200.301 1405.88 L218.658 1405.88 L218.658 1409.81 L204.584 1409.81 L204.584 1418.28 Q205.602 1417.94 206.621 1417.77 Q207.639 1417.59 208.658 1417.59 Q214.445 1417.59 217.824 1420.76 Q221.204 1423.93 221.204 1429.35 Q221.204 1434.93 217.732 1438.03 Q214.26 1441.11 207.94 1441.11 Q205.764 1441.11 203.496 1440.74 Q201.25 1440.37 198.843 1439.63 L198.843 1434.93 Q200.926 1436.06 203.149 1436.62 Q205.371 1437.17 207.848 1437.17 Q211.852 1437.17 214.19 1435.07 Q216.528 1432.96 216.528 1429.35 Q216.528 1425.74 214.19 1423.63 Q211.852 1421.52 207.848 1421.52 Q205.973 1421.52 204.098 1421.94 Q202.246 1422.36 200.301 1423.24 L200.301 1405.88 Z" fill="#000000" fill-rule="nonzero" fill-opacity="1"></path><path clip-path="url(#clip550)" d="M114.26 1207 L143.936 1207 L143.936 1210.93 L114.26 1210.93 L114.26 1207 Z" fill="#000000" fill-rule="nonzero" fill-opacity="1"></path><path clip-path="url(#clip550)" d="M154.839 1219.89 L162.477 1219.89 L162.477 1193.53 L154.167 1195.19 L154.167 1190.93 L162.431 1189.27 L167.107 1189.27 L167.107 1219.89 L174.746 1219.89 L174.746 1223.83 L154.839 1223.83 L154.839 1219.89 Z" fill="#000000" fill-rule="nonzero" fill-opacity="1"></path><path clip-path="url(#clip550)" d="M184.19 1217.95 L189.075 1217.95 L189.075 1223.83 L184.19 1223.83 L184.19 1217.95 Z" fill="#000000" fill-rule="nonzero" fill-opacity="1"></path><path clip-path="url(#clip550)" d="M209.26 1192.35 Q205.649 1192.35 203.82 1195.91 Q202.014 1199.45 202.014 1206.58 Q202.014 1213.69 203.82 1217.25 Q205.649 1220.79 209.26 1220.79 Q212.894 1220.79 214.699 1217.25 Q216.528 1213.69 216.528 1206.58 Q216.528 1199.45 214.699 1195.91 Q212.894 1192.35 209.26 1192.35 M209.26 1188.64 Q215.07 1188.64 218.125 1193.25 Q221.204 1197.83 221.204 1206.58 Q221.204 1215.31 218.125 1219.91 Q215.07 1224.5 209.26 1224.5 Q203.449 1224.5 200.371 1219.91 Q197.315 1215.31 197.315 1206.58 Q197.315 1197.83 200.371 1193.25 Q203.449 1188.64 209.26 1188.64 Z" fill="#000000" fill-rule="nonzero" fill-opacity="1"></path><path clip-path="url(#clip550)" d="M115.256 990.388 L144.931 990.388 L144.931 994.323 L115.256 994.323 L115.256 990.388 Z" fill="#000000" fill-rule="nonzero" fill-opacity="1"></path><path clip-path="url(#clip550)" d="M165.024 975.735 Q161.413 975.735 159.584 979.3 Q157.778 982.841 157.778 989.971 Q157.778 997.077 159.584 1000.64 Q161.413 1004.18 165.024 1004.18 Q168.658 1004.18 170.464 1000.64 Q172.292 997.077 172.292 989.971 Q172.292 982.841 170.464 979.3 Q168.658 975.735 165.024 975.735 M165.024 972.031 Q170.834 972.031 173.889 976.638 Q176.968 981.221 176.968 989.971 Q176.968 998.698 173.889 1003.3 Q170.834 1007.89 165.024 1007.89 Q159.214 1007.89 156.135 1003.3 Q153.079 998.698 153.079 989.971 Q153.079 981.221 156.135 976.638 Q159.214 972.031 165.024 972.031 Z" fill="#000000" fill-rule="nonzero" fill-opacity="1"></path><path clip-path="url(#clip550)" d="M185.186 1001.34 L190.07 1001.34 L190.07 1007.22 L185.186 1007.22 L185.186 1001.34 Z" fill="#000000" fill-rule="nonzero" fill-opacity="1"></path><path clip-path="url(#clip550)" d="M200.301 972.656 L218.658 972.656 L218.658 976.591 L204.584 976.591 L204.584 985.064 Q205.602 984.716 206.621 984.554 Q207.639 984.369 208.658 984.369 Q214.445 984.369 217.824 987.54 Q221.204 990.712 221.204 996.128 Q221.204 1001.71 217.732 1004.81 Q214.26 1007.89 207.94 1007.89 Q205.764 1007.89 203.496 1007.52 Q201.25 1007.15 198.843 1006.41 L198.843 1001.71 Q200.926 1002.84 203.149 1003.4 Q205.371 1003.95 207.848 1003.95 Q211.852 1003.95 214.19 1001.85 Q216.528 999.739 216.528 996.128 Q216.528 992.517 214.19 990.411 Q211.852 988.304 207.848 988.304 Q205.973 988.304 204.098 988.721 Q202.246 989.138 200.301 990.017 L200.301 972.656 Z" fill="#000000" fill-rule="nonzero" fill-opacity="1"></path><path clip-path="url(#clip550)" d="M164.028 759.125 Q160.417 759.125 158.589 762.689 Q156.783 766.231 156.783 773.361 Q156.783 780.467 158.589 784.032 Q160.417 787.574 164.028 787.574 Q167.663 787.574 169.468 784.032 Q171.297 780.467 171.297 773.361 Q171.297 766.231 169.468 762.689 Q167.663 759.125 164.028 759.125 M164.028 755.421 Q169.839 755.421 172.894 760.027 Q175.973 764.611 175.973 773.361 Q175.973 782.088 172.894 786.694 Q169.839 791.277 164.028 791.277 Q158.218 791.277 155.14 786.694 Q152.084 782.088 152.084 773.361 Q152.084 764.611 155.14 760.027 Q158.218 755.421 164.028 755.421 Z" fill="#000000" fill-rule="nonzero" fill-opacity="1"></path><path clip-path="url(#clip550)" d="M184.19 784.726 L189.075 784.726 L189.075 790.606 L184.19 790.606 L184.19 784.726 Z" fill="#000000" fill-rule="nonzero" fill-opacity="1"></path><path clip-path="url(#clip550)" d="M209.26 759.125 Q205.649 759.125 203.82 762.689 Q202.014 766.231 202.014 773.361 Q202.014 780.467 203.82 784.032 Q205.649 787.574 209.26 787.574 Q212.894 787.574 214.699 784.032 Q216.528 780.467 216.528 773.361 Q216.528 766.231 214.699 762.689 Q212.894 759.125 209.26 759.125 M209.26 755.421 Q215.07 755.421 218.125 760.027 Q221.204 764.611 221.204 773.361 Q221.204 782.088 218.125 786.694 Q215.07 791.277 209.26 791.277 Q203.449 791.277 200.371 786.694 Q197.315 782.088 197.315 773.361 Q197.315 764.611 200.371 760.027 Q203.449 755.421 209.26 755.421 Z" fill="#000000" fill-rule="nonzero" fill-opacity="1"></path><path clip-path="url(#clip550)" d="M165.024 542.514 Q161.413 542.514 159.584 546.079 Q157.778 549.621 157.778 556.751 Q157.778 563.857 159.584 567.422 Q161.413 570.963 165.024 570.963 Q168.658 570.963 170.464 567.422 Q172.292 563.857 172.292 556.751 Q172.292 549.621 170.464 546.079 Q168.658 542.514 165.024 542.514 M165.024 538.811 Q170.834 538.811 173.889 543.417 Q176.968 548.001 176.968 556.751 Q176.968 565.477 173.889 570.084 Q170.834 574.667 165.024 574.667 Q159.214 574.667 156.135 570.084 Q153.079 565.477 153.079 556.751 Q153.079 548.001 156.135 543.417 Q159.214 538.811 165.024 538.811 Z" fill="#000000" fill-rule="nonzero" fill-opacity="1"></path><path clip-path="url(#clip550)" d="M185.186 568.116 L190.07 568.116 L190.07 573.996 L185.186 573.996 L185.186 568.116 Z" fill="#000000" fill-rule="nonzero" fill-opacity="1"></path><path clip-path="url(#clip550)" d="M200.301 539.436 L218.658 539.436 L218.658 543.371 L204.584 543.371 L204.584 551.843 Q205.602 551.496 206.621 551.334 Q207.639 551.149 208.658 551.149 Q214.445 551.149 217.824 554.32 Q221.204 557.491 221.204 562.908 Q221.204 568.487 217.732 571.588 Q214.26 574.667 207.94 574.667 Q205.764 574.667 203.496 574.297 Q201.25 573.926 198.843 573.186 L198.843 568.487 Q200.926 569.621 203.149 570.176 Q205.371 570.732 207.848 570.732 Q211.852 570.732 214.19 568.625 Q216.528 566.519 216.528 562.908 Q216.528 559.297 214.19 557.19 Q211.852 555.084 207.848 555.084 Q205.973 555.084 204.098 555.501 Q202.246 555.917 200.301 556.797 L200.301 539.436 Z" fill="#000000" fill-rule="nonzero" fill-opacity="1"></path><path clip-path="url(#clip550)" d="M154.839 353.45 L162.477 353.45 L162.477 327.085 L154.167 328.752 L154.167 324.492 L162.431 322.826 L167.107 322.826 L167.107 353.45 L174.746 353.45 L174.746 357.386 L154.839 357.386 L154.839 353.45 Z" fill="#000000" fill-rule="nonzero" fill-opacity="1"></path><path clip-path="url(#clip550)" d="M184.19 351.506 L189.075 351.506 L189.075 357.386 L184.19 357.386 L184.19 351.506 Z" fill="#000000" fill-rule="nonzero" fill-opacity="1"></path><path clip-path="url(#clip550)" d="M209.26 325.904 Q205.649 325.904 203.82 329.469 Q202.014 333.011 202.014 340.14 Q202.014 347.247 203.82 350.812 Q205.649 354.353 209.26 354.353 Q212.894 354.353 214.699 350.812 Q216.528 347.247 216.528 340.14 Q216.528 333.011 214.699 329.469 Q212.894 325.904 209.26 325.904 M209.26 322.201 Q215.07 322.201 218.125 326.807 Q221.204 331.39 221.204 340.14 Q221.204 348.867 218.125 353.474 Q215.07 358.057 209.26 358.057 Q203.449 358.057 200.371 353.474 Q197.315 348.867 197.315 340.14 Q197.315 331.39 200.371 326.807 Q203.449 322.201 209.26 322.201 Z" fill="#000000" fill-rule="nonzero" fill-opacity="1"></path><path clip-path="url(#clip550)" d="M155.834 136.84 L163.473 136.84 L163.473 110.475 L155.163 112.141 L155.163 107.882 L163.427 106.215 L168.102 106.215 L168.102 136.84 L175.741 136.84 L175.741 140.775 L155.834 140.775 L155.834 136.84 Z" fill="#000000" fill-rule="nonzero" fill-opacity="1"></path><path clip-path="url(#clip550)" d="M185.186 134.896 L190.07 134.896 L190.07 140.775 L185.186 140.775 L185.186 134.896 Z" fill="#000000" fill-rule="nonzero" fill-opacity="1"></path><path clip-path="url(#clip550)" d="M200.301 106.215 L218.658 106.215 L218.658 110.151 L204.584 110.151 L204.584 118.623 Q205.602 118.276 206.621 118.114 Q207.639 117.928 208.658 117.928 Q214.445 117.928 217.824 121.1 Q221.204 124.271 221.204 129.688 Q221.204 135.266 217.732 138.368 Q214.26 141.447 207.94 141.447 Q205.764 141.447 203.496 141.076 Q201.25 140.706 198.843 139.965 L198.843 135.266 Q200.926 136.4 203.149 136.956 Q205.371 137.512 207.848 137.512 Q211.852 137.512 214.19 135.405 Q216.528 133.299 216.528 129.688 Q216.528 126.076 214.19 123.97 Q211.852 121.864 207.848 121.864 Q205.973 121.864 204.098 122.28 Q202.246 122.697 200.301 123.576 L200.301 106.215 Z" fill="#000000" fill-rule="nonzero" fill-opacity="1"></path><path clip-path="url(#clip550)" d="M67.3143 771.639 Q73.68 774.122 75.6216 776.477 Q77.5631 778.832 77.5631 782.779 L77.5631 787.458 L72.6615 787.458 L72.6615 784.02 Q72.6615 781.601 71.5157 780.265 Q70.3699 778.928 66.1048 777.305 L63.4312 776.254 L28.3562 790.673 L28.3562 784.466 L56.238 773.326 L28.3562 762.186 L28.3562 755.979 L67.3143 771.639 Z" fill="#000000" fill-rule="nonzero" fill-opacity="1"></path><path clip-path="url(#clip550)" d="M655.033 43.6931 L655.033 65.8515 L668.158 65.8515 Q674.761 65.8515 677.92 63.1374 Q681.12 60.3828 681.12 54.752 Q681.12 49.0808 677.92 46.4072 Q674.761 43.6931 668.158 43.6931 L655.033 43.6931 M655.033 18.8205 L655.033 37.0496 L667.145 37.0496 Q673.14 37.0496 676.057 34.8216 Q679.014 32.5531 679.014 27.935 Q679.014 23.3575 676.057 21.089 Q673.14 18.8205 667.145 18.8205 L655.033 18.8205 M646.85 12.096 L667.752 12.096 Q677.11 12.096 682.174 15.9849 Q687.237 19.8737 687.237 27.0438 Q687.237 32.5936 684.645 35.8748 Q682.052 39.156 677.029 39.9662 Q683.065 41.2625 686.387 45.3944 Q689.749 49.4858 689.749 55.6432 Q689.749 63.745 684.24 68.1605 Q678.73 72.576 668.563 72.576 L646.85 72.576 L646.85 12.096 Z" fill="#000000" fill-rule="nonzero" fill-opacity="1"></path><path clip-path="url(#clip550)" d="M721.022 32.4315 Q715.027 32.4315 711.543 37.1306 Q708.059 41.7891 708.059 49.9314 Q708.059 58.0738 711.502 62.7728 Q714.986 67.4314 721.022 67.4314 Q726.977 67.4314 730.46 62.7323 Q733.944 58.0333 733.944 49.9314 Q733.944 41.8701 730.46 37.1711 Q726.977 32.4315 721.022 32.4315 M721.022 26.1121 Q730.744 26.1121 736.294 32.4315 Q741.844 38.7509 741.844 49.9314 Q741.844 61.0714 736.294 67.4314 Q730.744 73.7508 721.022 73.7508 Q711.259 73.7508 705.709 67.4314 Q700.2 61.0714 700.2 49.9314 Q700.2 38.7509 705.709 32.4315 Q711.259 26.1121 721.022 26.1121 Z" fill="#000000" fill-rule="nonzero" fill-opacity="1"></path><path clip-path="url(#clip550)" d="M753.429 54.671 L753.429 27.2059 L760.883 27.2059 L760.883 54.3874 Q760.883 60.8284 763.394 64.0691 Q765.906 67.2693 770.929 67.2693 Q776.965 67.2693 780.449 63.421 Q783.973 59.5726 783.973 52.9291 L783.973 27.2059 L791.427 27.2059 L791.427 72.576 L783.973 72.576 L783.973 65.6084 Q781.259 69.7404 777.654 71.7658 Q774.089 73.7508 769.349 73.7508 Q761.531 73.7508 757.48 68.8897 Q753.429 64.0286 753.429 54.671 M772.185 26.1121 L772.185 26.1121 Z" fill="#000000" fill-rule="nonzero" fill-opacity="1"></path><path clip-path="url(#clip550)" d="M844.493 45.1919 L844.493 72.576 L837.04 72.576 L837.04 45.4349 Q837.04 38.994 834.528 35.7938 Q832.017 32.5936 826.994 32.5936 Q820.958 32.5936 817.474 36.4419 Q813.99 40.2903 813.99 46.9338 L813.99 72.576 L806.496 72.576 L806.496 27.2059 L813.99 27.2059 L813.99 34.2544 Q816.664 30.163 820.269 28.1376 Q823.915 26.1121 828.654 26.1121 Q836.473 26.1121 840.483 30.9732 Q844.493 35.7938 844.493 45.1919 Z" fill="#000000" fill-rule="nonzero" fill-opacity="1"></path><path clip-path="url(#clip550)" d="M889.215 34.0924 L889.215 9.54393 L896.669 9.54393 L896.669 72.576 L889.215 72.576 L889.215 65.7705 Q886.866 69.8214 883.261 71.8063 Q879.696 73.7508 874.673 73.7508 Q866.449 73.7508 861.264 67.1883 Q856.12 60.6258 856.12 49.9314 Q856.12 39.2371 861.264 32.6746 Q866.449 26.1121 874.673 26.1121 Q879.696 26.1121 883.261 28.0971 Q886.866 30.0415 889.215 34.0924 M863.816 49.9314 Q863.816 58.1548 867.178 62.8538 Q870.581 67.5124 876.496 67.5124 Q882.41 67.5124 885.813 62.8538 Q889.215 58.1548 889.215 49.9314 Q889.215 41.7081 885.813 37.0496 Q882.41 32.3505 876.496 32.3505 Q870.581 32.3505 867.178 37.0496 Q863.816 41.7081 863.816 49.9314 Z" fill="#000000" fill-rule="nonzero" fill-opacity="1"></path><path clip-path="url(#clip550)" d="M932.641 49.7694 Q923.608 49.7694 920.124 51.8354 Q916.64 53.9013 916.64 58.8839 Q916.64 62.8538 919.233 65.2034 Q921.866 67.5124 926.362 67.5124 Q932.56 67.5124 936.287 63.1374 Q940.054 58.7219 940.054 51.4303 L940.054 49.7694 L932.641 49.7694 M947.508 46.6907 L947.508 72.576 L940.054 72.576 L940.054 65.6895 Q937.502 69.8214 933.694 71.8063 Q929.886 73.7508 924.377 73.7508 Q917.41 73.7508 913.278 69.8619 Q909.186 65.9325 909.186 59.3701 Q909.186 51.7138 914.291 47.825 Q919.435 43.9361 929.603 43.9361 L940.054 43.9361 L940.054 43.2069 Q940.054 38.0623 936.652 35.2672 Q933.289 32.4315 927.172 32.4315 Q923.284 32.4315 919.597 33.3632 Q915.911 34.295 912.508 36.1584 L912.508 29.2718 Q916.6 27.692 920.448 26.9223 Q924.296 26.1121 927.942 26.1121 Q937.786 26.1121 942.647 31.2163 Q947.508 36.3204 947.508 46.6907 Z" fill="#000000" fill-rule="nonzero" fill-opacity="1"></path><path clip-path="url(#clip550)" d="M989.151 34.1734 Q987.895 33.4443 986.397 33.1202 Q984.938 32.7556 983.156 32.7556 Q976.836 32.7556 973.434 36.8875 Q970.071 40.9789 970.071 48.6757 L970.071 72.576 L962.577 72.576 L962.577 27.2059 L970.071 27.2059 L970.071 34.2544 Q972.421 30.1225 976.188 28.1376 Q979.956 26.1121 985.343 26.1121 Q986.113 26.1121 987.045 26.2337 Q987.976 26.3147 989.111 26.5172 L989.151 34.1734 Z" fill="#000000" fill-rule="nonzero" fill-opacity="1"></path><path clip-path="url(#clip550)" d="M1015.85 76.7889 Q1012.69 84.8907 1009.69 87.3618 Q1006.69 89.8329 1001.67 89.8329 L995.714 89.8329 L995.714 83.5945 L1000.09 83.5945 Q1003.17 83.5945 1004.87 82.1361 Q1006.57 80.6778 1008.64 75.2496 L1009.97 71.8468 L991.622 27.2059 L999.522 27.2059 L1013.7 62.6918 L1027.88 27.2059 L1035.78 27.2059 L1015.85 76.7889 Z" fill="#000000" fill-rule="nonzero" fill-opacity="1"></path><path clip-path="url(#clip550)" d="M1068.1 27.2059 L1075.56 27.2059 L1084.87 62.6108 L1094.15 27.2059 L1102.94 27.2059 L1112.26 62.6108 L1121.53 27.2059 L1128.99 27.2059 L1117.12 72.576 L1108.33 72.576 L1098.57 35.3887 L1088.76 72.576 L1079.97 72.576 L1068.1 27.2059 Z" fill="#000000" fill-rule="nonzero" fill-opacity="1"></path><path clip-path="url(#clip550)" d="M1140.29 27.2059 L1147.74 27.2059 L1147.74 72.576 L1140.29 72.576 L1140.29 27.2059 M1140.29 9.54393 L1147.74 9.54393 L1147.74 18.9825 L1140.29 18.9825 L1140.29 9.54393 Z" fill="#000000" fill-rule="nonzero" fill-opacity="1"></path><path clip-path="url(#clip550)" d="M1170.71 14.324 L1170.71 27.2059 L1186.07 27.2059 L1186.07 32.9987 L1170.71 32.9987 L1170.71 57.6282 Q1170.71 63.1779 1172.21 64.7578 Q1173.75 66.3376 1178.41 66.3376 L1186.07 66.3376 L1186.07 72.576 L1178.41 72.576 Q1169.78 72.576 1166.5 69.3758 Q1163.22 66.1351 1163.22 57.6282 L1163.22 32.9987 L1157.75 32.9987 L1157.75 27.2059 L1163.22 27.2059 L1163.22 14.324 L1170.71 14.324 Z" fill="#000000" fill-rule="nonzero" fill-opacity="1"></path><path clip-path="url(#clip550)" d="M1233.58 45.1919 L1233.58 72.576 L1226.13 72.576 L1226.13 45.4349 Q1226.13 38.994 1223.62 35.7938 Q1221.11 32.5936 1216.08 32.5936 Q1210.05 32.5936 1206.56 36.4419 Q1203.08 40.2903 1203.08 46.9338 L1203.08 72.576 L1195.59 72.576 L1195.59 9.54393 L1203.08 9.54393 L1203.08 34.2544 Q1205.75 30.163 1209.36 28.1376 Q1213 26.1121 1217.74 26.1121 Q1225.56 26.1121 1229.57 30.9732 Q1233.58 35.7938 1233.58 45.1919 Z" fill="#000000" fill-rule="nonzero" fill-opacity="1"></path><path clip-path="url(#clip550)" d="M1292.4 32.4315 Q1286.41 32.4315 1282.92 37.1306 Q1279.44 41.7891 1279.44 49.9314 Q1279.44 58.0738 1282.88 62.7728 Q1286.37 67.4314 1292.4 67.4314 Q1298.36 67.4314 1301.84 62.7323 Q1305.32 58.0333 1305.32 49.9314 Q1305.32 41.8701 1301.84 37.1711 Q1298.36 32.4315 1292.4 32.4315 M1292.4 26.1121 Q1302.12 26.1121 1307.67 32.4315 Q1313.22 38.7509 1313.22 49.9314 Q1313.22 61.0714 1307.67 67.4314 Q1302.12 73.7508 1292.4 73.7508 Q1282.64 73.7508 1277.09 67.4314 Q1271.58 61.0714 1271.58 49.9314 Q1271.58 38.7509 1277.09 32.4315 Q1282.64 26.1121 1292.4 26.1121 Z" fill="#000000" fill-rule="nonzero" fill-opacity="1"></path><path clip-path="url(#clip550)" d="M1324.81 54.671 L1324.81 27.2059 L1332.26 27.2059 L1332.26 54.3874 Q1332.26 60.8284 1334.77 64.0691 Q1337.29 67.2693 1342.31 67.2693 Q1348.34 67.2693 1351.83 63.421 Q1355.35 59.5726 1355.35 52.9291 L1355.35 27.2059 L1362.81 27.2059 L1362.81 72.576 L1355.35 72.576 L1355.35 65.6084 Q1352.64 69.7404 1349.03 71.7658 Q1345.47 73.7508 1340.73 73.7508 Q1332.91 73.7508 1328.86 68.8897 Q1324.81 64.0286 1324.81 54.671 M1343.56 26.1121 L1343.56 26.1121 Z" fill="#000000" fill-rule="nonzero" fill-opacity="1"></path><path clip-path="url(#clip550)" d="M1385.53 14.324 L1385.53 27.2059 L1400.89 27.2059 L1400.89 32.9987 L1385.53 32.9987 L1385.53 57.6282 Q1385.53 63.1779 1387.03 64.7578 Q1388.57 66.3376 1393.23 66.3376 L1400.89 66.3376 L1400.89 72.576 L1393.23 72.576 Q1384.6 72.576 1381.32 69.3758 Q1378.04 66.1351 1378.04 57.6282 L1378.04 32.9987 L1372.57 32.9987 L1372.57 27.2059 L1378.04 27.2059 L1378.04 14.324 L1385.53 14.324 Z" fill="#000000" fill-rule="nonzero" fill-opacity="1"></path><path clip-path="url(#clip550)" d="M1406.35 27.2059 L1413.81 27.2059 L1423.12 62.6108 L1432.4 27.2059 L1441.19 27.2059 L1450.51 62.6108 L1459.79 27.2059 L1467.24 27.2059 L1455.37 72.576 L1446.58 72.576 L1436.82 35.3887 L1427.01 72.576 L1418.22 72.576 L1406.35 27.2059 Z" fill="#000000" fill-rule="nonzero" fill-opacity="1"></path><path clip-path="url(#clip550)" d="M1499.16 49.7694 Q1490.13 49.7694 1486.64 51.8354 Q1483.16 53.9013 1483.16 58.8839 Q1483.16 62.8538 1485.75 65.2034 Q1488.38 67.5124 1492.88 67.5124 Q1499.08 67.5124 1502.81 63.1374 Q1506.57 58.7219 1506.57 51.4303 L1506.57 49.7694 L1499.16 49.7694 M1514.03 46.6907 L1514.03 72.576 L1506.57 72.576 L1506.57 65.6895 Q1504.02 69.8214 1500.21 71.8063 Q1496.41 73.7508 1490.9 73.7508 Q1483.93 73.7508 1479.8 69.8619 Q1475.71 65.9325 1475.71 59.3701 Q1475.71 51.7138 1480.81 47.825 Q1485.95 43.9361 1496.12 43.9361 L1506.57 43.9361 L1506.57 43.2069 Q1506.57 38.0623 1503.17 35.2672 Q1499.81 32.4315 1493.69 32.4315 Q1489.8 32.4315 1486.12 33.3632 Q1482.43 34.295 1479.03 36.1584 L1479.03 29.2718 Q1483.12 27.692 1486.97 26.9223 Q1490.82 26.1121 1494.46 26.1121 Q1504.3 26.1121 1509.17 31.2163 Q1514.03 36.3204 1514.03 46.6907 Z" fill="#000000" fill-rule="nonzero" fill-opacity="1"></path><path clip-path="url(#clip550)" d="M1555.67 34.1734 Q1554.41 33.4443 1552.92 33.1202 Q1551.46 32.7556 1549.67 32.7556 Q1543.36 32.7556 1539.95 36.8875 Q1536.59 40.9789 1536.59 48.6757 L1536.59 72.576 L1529.1 72.576 L1529.1 27.2059 L1536.59 27.2059 L1536.59 34.2544 Q1538.94 30.1225 1542.71 28.1376 Q1546.47 26.1121 1551.86 26.1121 Q1552.63 26.1121 1553.56 26.2337 Q1554.5 26.3147 1555.63 26.5172 L1555.67 34.1734 Z" fill="#000000" fill-rule="nonzero" fill-opacity="1"></path><path clip-path="url(#clip550)" d="M1591.89 34.0924 L1591.89 9.54393 L1599.34 9.54393 L1599.34 72.576 L1591.89 72.576 L1591.89 65.7705 Q1589.54 69.8214 1585.93 71.8063 Q1582.37 73.7508 1577.34 73.7508 Q1569.12 73.7508 1563.93 67.1883 Q1558.79 60.6258 1558.79 49.9314 Q1558.79 39.2371 1563.93 32.6746 Q1569.12 26.1121 1577.34 26.1121 Q1582.37 26.1121 1585.93 28.0971 Q1589.54 30.0415 1591.89 34.0924 M1566.49 49.9314 Q1566.49 58.1548 1569.85 62.8538 Q1573.25 67.5124 1579.17 67.5124 Q1585.08 67.5124 1588.48 62.8538 Q1591.89 58.1548 1591.89 49.9314 Q1591.89 41.7081 1588.48 37.0496 Q1585.08 32.3505 1579.17 32.3505 Q1573.25 32.3505 1569.85 37.0496 Q1566.49 41.7081 1566.49 49.9314 Z" fill="#000000" fill-rule="nonzero" fill-opacity="1"></path><path clip-path="url(#clip550)" d="M1678.78 45.1919 L1678.78 72.576 L1671.32 72.576 L1671.32 45.4349 Q1671.32 38.994 1668.81 35.7938 Q1666.3 32.5936 1661.28 32.5936 Q1655.24 32.5936 1651.76 36.4419 Q1648.27 40.2903 1648.27 46.9338 L1648.27 72.576 L1640.78 72.576 L1640.78 27.2059 L1648.27 27.2059 L1648.27 34.2544 Q1650.95 30.163 1654.55 28.1376 Q1658.2 26.1121 1662.94 26.1121 Q1670.76 26.1121 1674.77 30.9732 Q1678.78 35.7938 1678.78 45.1919 Z" fill="#000000" fill-rule="nonzero" fill-opacity="1"></path><path clip-path="url(#clip550)" d="M1711.22 32.4315 Q1705.23 32.4315 1701.75 37.1306 Q1698.26 41.7891 1698.26 49.9314 Q1698.26 58.0738 1701.71 62.7728 Q1705.19 67.4314 1711.22 67.4314 Q1717.18 67.4314 1720.66 62.7323 Q1724.15 58.0333 1724.15 49.9314 Q1724.15 41.8701 1720.66 37.1711 Q1717.18 32.4315 1711.22 32.4315 M1711.22 26.1121 Q1720.95 26.1121 1726.5 32.4315 Q1732.05 38.7509 1732.05 49.9314 Q1732.05 61.0714 1726.5 67.4314 Q1720.95 73.7508 1711.22 73.7508 Q1701.46 73.7508 1695.91 67.4314 Q1690.4 61.0714 1690.4 49.9314 Q1690.4 38.7509 1695.91 32.4315 Q1701.46 26.1121 1711.22 26.1121 Z" fill="#000000" fill-rule="nonzero" fill-opacity="1"></path><path clip-path="url(#clip550)" d="M1770.69 34.1734 Q1769.44 33.4443 1767.94 33.1202 Q1766.48 32.7556 1764.7 32.7556 Q1758.38 32.7556 1754.97 36.8875 Q1751.61 40.9789 1751.61 48.6757 L1751.61 72.576 L1744.12 72.576 L1744.12 27.2059 L1751.61 27.2059 L1751.61 34.2544 Q1753.96 30.1225 1757.73 28.1376 Q1761.5 26.1121 1766.88 26.1121 Q1767.65 26.1121 1768.59 26.2337 Q1769.52 26.3147 1770.65 26.5172 L1770.69 34.1734 Z" fill="#000000" fill-rule="nonzero" fill-opacity="1"></path><path clip-path="url(#clip550)" d="M1812.38 35.9153 Q1815.17 30.8922 1819.06 28.5022 Q1822.95 26.1121 1828.22 26.1121 Q1835.3 26.1121 1839.15 31.0947 Q1843 36.0368 1843 45.1919 L1843 72.576 L1835.51 72.576 L1835.51 45.4349 Q1835.51 38.913 1833.2 35.7533 Q1830.89 32.5936 1826.15 32.5936 Q1820.36 32.5936 1816.99 36.4419 Q1813.63 40.2903 1813.63 46.9338 L1813.63 72.576 L1806.14 72.576 L1806.14 45.4349 Q1806.14 38.8725 1803.83 35.7533 Q1801.52 32.5936 1796.7 32.5936 Q1790.99 32.5936 1787.62 36.4824 Q1784.26 40.3308 1784.26 46.9338 L1784.26 72.576 L1776.77 72.576 L1776.77 27.2059 L1784.26 27.2059 L1784.26 34.2544 Q1786.81 30.082 1790.38 28.0971 Q1793.94 26.1121 1798.85 26.1121 Q1803.79 26.1121 1807.23 28.6237 Q1810.72 31.1352 1812.38 35.9153 Z" fill="#000000" fill-rule="nonzero" fill-opacity="1"></path><path clip-path="url(#clip550)" d="M1878.49 49.7694 Q1869.45 49.7694 1865.97 51.8354 Q1862.49 53.9013 1862.49 58.8839 Q1862.49 62.8538 1865.08 65.2034 Q1867.71 67.5124 1872.21 67.5124 Q1878.41 67.5124 1882.13 63.1374 Q1885.9 58.7219 1885.9 51.4303 L1885.9 49.7694 L1878.49 49.7694 M1893.35 46.6907 L1893.35 72.576 L1885.9 72.576 L1885.9 65.6895 Q1883.35 69.8214 1879.54 71.8063 Q1875.73 73.7508 1870.22 73.7508 Q1863.26 73.7508 1859.12 69.8619 Q1855.03 65.9325 1855.03 59.3701 Q1855.03 51.7138 1860.14 47.825 Q1865.28 43.9361 1875.45 43.9361 L1885.9 43.9361 L1885.9 43.2069 Q1885.9 38.0623 1882.5 35.2672 Q1879.13 32.4315 1873.02 32.4315 Q1869.13 32.4315 1865.44 33.3632 Q1861.76 34.295 1858.35 36.1584 L1858.35 29.2718 Q1862.45 27.692 1866.29 26.9223 Q1870.14 26.1121 1873.79 26.1121 Q1883.63 26.1121 1888.49 31.2163 Q1893.35 36.3204 1893.35 46.6907 Z" fill="#000000" fill-rule="nonzero" fill-opacity="1"></path><path clip-path="url(#clip550)" d="M1908.71 9.54393 L1916.16 9.54393 L1916.16 72.576 L1908.71 72.576 L1908.71 9.54393 Z" fill="#000000" fill-rule="nonzero" fill-opacity="1"></path><path clip-path="url(#clip550)" d="M1960.68 28.5427 L1960.68 35.5912 Q1957.52 33.9709 1954.12 33.1607 Q1950.71 32.3505 1947.07 32.3505 Q1941.52 32.3505 1938.72 34.0519 Q1935.97 35.7533 1935.97 39.156 Q1935.97 41.7486 1937.95 43.2475 Q1939.94 44.7058 1945.93 46.0426 L1948.49 46.6097 Q1956.43 48.3111 1959.75 51.4303 Q1963.11 54.509 1963.11 60.0587 Q1963.11 66.3781 1958.09 70.0644 Q1953.1 73.7508 1944.35 73.7508 Q1940.71 73.7508 1936.74 73.0216 Q1932.81 72.3329 1928.43 70.9151 L1928.43 63.2184 Q1932.57 65.3654 1936.58 66.4591 Q1940.59 67.5124 1944.52 67.5124 Q1949.78 67.5124 1952.62 65.73 Q1955.45 63.9071 1955.45 60.6258 Q1955.45 57.5877 1953.39 55.9673 Q1951.36 54.3469 1944.44 52.8481 L1941.84 52.2405 Q1934.92 50.7821 1931.84 47.7845 Q1928.76 44.7463 1928.76 39.4801 Q1928.76 33.0797 1933.3 29.5959 Q1937.83 26.1121 1946.18 26.1121 Q1950.31 26.1121 1953.96 26.7198 Q1957.6 27.3274 1960.68 28.5427 Z" fill="#000000" fill-rule="nonzero" fill-opacity="1"></path><polyline clip-path="url(#clip552)" style="stroke:#009af9; stroke-linecap:round; stroke-linejoin:round; stroke-width:8; stroke-opacity:1; fill:none" points="1791.81,773.326 1775.88,638.619 1729.24,512.133 1655.31,401.407 1559.4,312.677 1448.32,250.383 1329.69,216.835 1211.34,212.082 1100.61,233.989 1003.75,278.503 925.373,340.106 868.205,412.376 832.87,488.629 817.985,562.565 820.407,628.852 835.651,683.603 858.437,724.694 883.302,751.889 905.208,766.774 920.105,772.492 925.373,773.326 920.105,774.16 905.208,779.878 883.302,794.763 858.437,821.958 835.651,863.049 820.407,917.8 817.985,984.087 832.87,1058.02 868.205,1134.28 925.373,1206.55 1003.75,1268.15 1100.61,1312.66 1211.34,1334.57 1329.69,1329.82 1448.32,1296.27 1559.4,1233.98 1655.31,1145.25 1729.24,1034.52 1775.88,908.033 1791.81,773.326 "></polyline>
<polyline clip-path="url(#clip552)" style="stroke:#ff0000; stroke-linecap:round; stroke-linejoin:round; stroke-width:6; stroke-opacity:1; fill:none" points="1791.81,773.326 1843.8,773.326 "></polyline>
<polyline clip-path="url(#clip552)" style="stroke:#ff0000; stroke-linecap:round; stroke-linejoin:round; stroke-width:6; stroke-opacity:1; fill:none" points="1807.8,755.326 1843.8,773.326 1807.8,791.326 "></polyline>
<polyline clip-path="url(#clip552)" style="stroke:#ff0000; stroke-linecap:round; stroke-linejoin:round; stroke-width:6; stroke-opacity:1; fill:none" points="1843.8,773.326 1791.81,773.326 "></polyline>
<polyline clip-path="url(#clip552)" style="stroke:#ff0000; stroke-linecap:round; stroke-linejoin:round; stroke-width:6; stroke-opacity:1; fill:none" points="1775.88,638.619 1826.43,626.483 "></polyline>
<polyline clip-path="url(#clip552)" style="stroke:#ff0000; stroke-linecap:round; stroke-linejoin:round; stroke-width:6; stroke-opacity:1; fill:none" points="1787.22,617.385 1826.43,626.483 1795.63,652.39 "></polyline>
<polyline clip-path="url(#clip552)" style="stroke:#ff0000; stroke-linecap:round; stroke-linejoin:round; stroke-width:6; stroke-opacity:1; fill:none" points="1826.43,626.483 1775.88,638.619 "></polyline>
<polyline clip-path="url(#clip552)" style="stroke:#ff0000; stroke-linecap:round; stroke-linejoin:round; stroke-width:6; stroke-opacity:1; fill:none" points="1729.24,512.133 1775.56,488.532 "></polyline>
<polyline clip-path="url(#clip552)" style="stroke:#ff0000; stroke-linecap:round; stroke-linejoin:round; stroke-width:6; stroke-opacity:1; fill:none" points="1735.31,488.837 1775.56,488.532 1751.66,520.914 "></polyline>
<polyline clip-path="url(#clip552)" style="stroke:#ff0000; stroke-linecap:round; stroke-linejoin:round; stroke-width:6; stroke-opacity:1; fill:none" points="1775.56,488.532 1729.24,512.133 "></polyline>
<polyline clip-path="url(#clip552)" style="stroke:#ff0000; stroke-linecap:round; stroke-linejoin:round; stroke-width:6; stroke-opacity:1; fill:none" points="1655.31,401.407 1694.84,367.644 "></polyline>
<polyline clip-path="url(#clip552)" style="stroke:#ff0000; stroke-linecap:round; stroke-linejoin:round; stroke-width:6; stroke-opacity:1; fill:none" points="1655.77,377.337 1694.84,367.644 1679.15,404.712 "></polyline>
<polyline clip-path="url(#clip552)" style="stroke:#ff0000; stroke-linecap:round; stroke-linejoin:round; stroke-width:6; stroke-opacity:1; fill:none" points="1694.84,367.644 1655.31,401.407 "></polyline>
<polyline clip-path="url(#clip552)" style="stroke:#ff0000; stroke-linecap:round; stroke-linejoin:round; stroke-width:6; stroke-opacity:1; fill:none" points="1559.4,312.677 1589.96,270.619 "></polyline>
<polyline clip-path="url(#clip552)" style="stroke:#ff0000; stroke-linecap:round; stroke-linejoin:round; stroke-width:6; stroke-opacity:1; fill:none" points="1554.24,289.163 1589.96,270.619 1583.36,310.324 "></polyline>
<polyline clip-path="url(#clip552)" style="stroke:#ff0000; stroke-linecap:round; stroke-linejoin:round; stroke-width:6; stroke-opacity:1; fill:none" points="1589.96,270.619 1559.4,312.677 "></polyline>
<polyline clip-path="url(#clip552)" style="stroke:#ff0000; stroke-linecap:round; stroke-linejoin:round; stroke-width:6; stroke-opacity:1; fill:none" points="1448.32,250.383 1468.21,202.354 "></polyline>
<polyline clip-path="url(#clip552)" style="stroke:#ff0000; stroke-linecap:round; stroke-linejoin:round; stroke-width:6; stroke-opacity:1; fill:none" points="1437.8,228.725 1468.21,202.354 1471.06,242.501 "></polyline>
<polyline clip-path="url(#clip552)" style="stroke:#ff0000; stroke-linecap:round; stroke-linejoin:round; stroke-width:6; stroke-opacity:1; fill:none" points="1468.21,202.354 1448.32,250.383 "></polyline>
<polyline clip-path="url(#clip552)" style="stroke:#ff0000; stroke-linecap:round; stroke-linejoin:round; stroke-width:6; stroke-opacity:1; fill:none" points="1329.69,216.835 1337.82,165.488 "></polyline>
<polyline clip-path="url(#clip552)" style="stroke:#ff0000; stroke-linecap:round; stroke-linejoin:round; stroke-width:6; stroke-opacity:1; fill:none" points="1314.41,198.229 1337.82,165.488 1349.97,203.861 "></polyline>
<polyline clip-path="url(#clip552)" style="stroke:#ff0000; stroke-linecap:round; stroke-linejoin:round; stroke-width:6; stroke-opacity:1; fill:none" points="1337.82,165.488 1329.69,216.835 "></polyline>
<polyline clip-path="url(#clip552)" style="stroke:#ff0000; stroke-linecap:round; stroke-linejoin:round; stroke-width:6; stroke-opacity:1; fill:none" points="1211.34,212.082 1207.26,160.256 "></polyline>
<polyline clip-path="url(#clip552)" style="stroke:#ff0000; stroke-linecap:round; stroke-linejoin:round; stroke-width:6; stroke-opacity:1; fill:none" points="1192.14,197.558 1207.26,160.256 1228.03,194.733 "></polyline>
<polyline clip-path="url(#clip552)" style="stroke:#ff0000; stroke-linecap:round; stroke-linejoin:round; stroke-width:6; stroke-opacity:1; fill:none" points="1207.26,160.256 1211.34,212.082 "></polyline>
<polyline clip-path="url(#clip552)" style="stroke:#ff0000; stroke-linecap:round; stroke-linejoin:round; stroke-width:6; stroke-opacity:1; fill:none" points="1100.61,233.989 1084.55,184.547 "></polyline>
<polyline clip-path="url(#clip552)" style="stroke:#ff0000; stroke-linecap:round; stroke-linejoin:round; stroke-width:6; stroke-opacity:1; fill:none" points="1078.56,224.347 1084.55,184.547 1112.79,213.222 "></polyline>
<polyline clip-path="url(#clip552)" style="stroke:#ff0000; stroke-linecap:round; stroke-linejoin:round; stroke-width:6; stroke-opacity:1; fill:none" points="1084.55,184.547 1100.61,233.989 "></polyline>
<polyline clip-path="url(#clip552)" style="stroke:#ff0000; stroke-linecap:round; stroke-linejoin:round; stroke-width:6; stroke-opacity:1; fill:none" points="1003.75,278.503 976.583,234.177 "></polyline>
<polyline clip-path="url(#clip552)" style="stroke:#ff0000; stroke-linecap:round; stroke-linejoin:round; stroke-width:6; stroke-opacity:1; fill:none" points="980.045,274.277 976.583,234.177 1010.74,255.467 "></polyline>
<polyline clip-path="url(#clip552)" style="stroke:#ff0000; stroke-linecap:round; stroke-linejoin:round; stroke-width:6; stroke-opacity:1; fill:none" points="976.583,234.177 1003.75,278.503 "></polyline>
<polyline clip-path="url(#clip552)" style="stroke:#ff0000; stroke-linecap:round; stroke-linejoin:round; stroke-width:6; stroke-opacity:1; fill:none" points="925.373,340.106 888.614,303.346 "></polyline>
<polyline clip-path="url(#clip552)" style="stroke:#ff0000; stroke-linecap:round; stroke-linejoin:round; stroke-width:6; stroke-opacity:1; fill:none" points="901.341,341.529 888.614,303.346 926.797,316.074 "></polyline>
<polyline clip-path="url(#clip552)" style="stroke:#ff0000; stroke-linecap:round; stroke-linejoin:round; stroke-width:6; stroke-opacity:1; fill:none" points="888.614,303.346 925.373,340.106 "></polyline>
<polyline clip-path="url(#clip552)" style="stroke:#ff0000; stroke-linecap:round; stroke-linejoin:round; stroke-width:6; stroke-opacity:1; fill:none" points="868.205,412.376 823.879,385.213 "></polyline>
<polyline clip-path="url(#clip552)" style="stroke:#ff0000; stroke-linecap:round; stroke-linejoin:round; stroke-width:6; stroke-opacity:1; fill:none" points="845.169,419.37 823.879,385.213 863.979,388.675 "></polyline>
<polyline clip-path="url(#clip552)" style="stroke:#ff0000; stroke-linecap:round; stroke-linejoin:round; stroke-width:6; stroke-opacity:1; fill:none" points="823.879,385.213 868.205,412.376 "></polyline>
<polyline clip-path="url(#clip552)" style="stroke:#ff0000; stroke-linecap:round; stroke-linejoin:round; stroke-width:6; stroke-opacity:1; fill:none" points="832.87,488.629 783.428,472.565 "></polyline>
<polyline clip-path="url(#clip552)" style="stroke:#ff0000; stroke-linecap:round; stroke-linejoin:round; stroke-width:6; stroke-opacity:1; fill:none" points="812.104,500.808 783.428,472.565 823.228,466.57 "></polyline>
<polyline clip-path="url(#clip552)" style="stroke:#ff0000; stroke-linecap:round; stroke-linejoin:round; stroke-width:6; stroke-opacity:1; fill:none" points="783.428,472.565 832.87,488.629 "></polyline>
<polyline clip-path="url(#clip552)" style="stroke:#ff0000; stroke-linecap:round; stroke-linejoin:round; stroke-width:6; stroke-opacity:1; fill:none" points="817.985,562.565 766.159,558.486 "></polyline>
<polyline clip-path="url(#clip552)" style="stroke:#ff0000; stroke-linecap:round; stroke-linejoin:round; stroke-width:6; stroke-opacity:1; fill:none" points="800.636,579.255 766.159,558.486 803.461,543.366 "></polyline>
<polyline clip-path="url(#clip552)" style="stroke:#ff0000; stroke-linecap:round; stroke-linejoin:round; stroke-width:6; stroke-opacity:1; fill:none" points="766.159,558.486 817.985,562.565 "></polyline>
<polyline clip-path="url(#clip552)" style="stroke:#ff0000; stroke-linecap:round; stroke-linejoin:round; stroke-width:6; stroke-opacity:1; fill:none" points="820.407,628.852 769.06,636.984 "></polyline>
<polyline clip-path="url(#clip552)" style="stroke:#ff0000; stroke-linecap:round; stroke-linejoin:round; stroke-width:6; stroke-opacity:1; fill:none" points="807.433,649.131 769.06,636.984 801.801,613.574 "></polyline>
<polyline clip-path="url(#clip552)" style="stroke:#ff0000; stroke-linecap:round; stroke-linejoin:round; stroke-width:6; stroke-opacity:1; fill:none" points="769.06,636.984 820.407,628.852 "></polyline>
<polyline clip-path="url(#clip552)" style="stroke:#ff0000; stroke-linecap:round; stroke-linejoin:round; stroke-width:6; stroke-opacity:1; fill:none" points="835.651,683.603 787.621,703.497 "></polyline>
<polyline clip-path="url(#clip552)" style="stroke:#ff0000; stroke-linecap:round; stroke-linejoin:round; stroke-width:6; stroke-opacity:1; fill:none" points="827.769,706.351 787.621,703.497 813.993,673.091 "></polyline>
<polyline clip-path="url(#clip552)" style="stroke:#ff0000; stroke-linecap:round; stroke-linejoin:round; stroke-width:6; stroke-opacity:1; fill:none" points="787.621,703.497 835.651,683.603 "></polyline>
<polyline clip-path="url(#clip552)" style="stroke:#ff0000; stroke-linecap:round; stroke-linejoin:round; stroke-width:6; stroke-opacity:1; fill:none" points="858.437,724.694 816.379,755.251 "></polyline>
<polyline clip-path="url(#clip552)" style="stroke:#ff0000; stroke-linecap:round; stroke-linejoin:round; stroke-width:6; stroke-opacity:1; fill:none" points="856.084,748.653 816.379,755.251 834.924,719.528 "></polyline>
<polyline clip-path="url(#clip552)" style="stroke:#ff0000; stroke-linecap:round; stroke-linejoin:round; stroke-width:6; stroke-opacity:1; fill:none" points="816.379,755.251 858.437,724.694 "></polyline>
<polyline clip-path="url(#clip552)" style="stroke:#ff0000; stroke-linecap:round; stroke-linejoin:round; stroke-width:6; stroke-opacity:1; fill:none" points="883.302,751.889 849.539,791.42 "></polyline>
<polyline clip-path="url(#clip552)" style="stroke:#ff0000; stroke-linecap:round; stroke-linejoin:round; stroke-width:6; stroke-opacity:1; fill:none" points="886.607,775.736 849.539,791.42 859.232,752.355 "></polyline>
<polyline clip-path="url(#clip552)" style="stroke:#ff0000; stroke-linecap:round; stroke-linejoin:round; stroke-width:6; stroke-opacity:1; fill:none" points="849.539,791.42 883.302,751.889 "></polyline>
<polyline clip-path="url(#clip552)" style="stroke:#ff0000; stroke-linecap:round; stroke-linejoin:round; stroke-width:6; stroke-opacity:1; fill:none" points="905.208,766.774 881.607,813.094 "></polyline>
<polyline clip-path="url(#clip552)" style="stroke:#ff0000; stroke-linecap:round; stroke-linejoin:round; stroke-width:6; stroke-opacity:1; fill:none" points="913.988,789.19 881.607,813.094 881.912,772.846 "></polyline>
<polyline clip-path="url(#clip552)" style="stroke:#ff0000; stroke-linecap:round; stroke-linejoin:round; stroke-width:6; stroke-opacity:1; fill:none" points="881.607,813.094 905.208,766.774 "></polyline>
<polyline clip-path="url(#clip552)" style="stroke:#ff0000; stroke-linecap:round; stroke-linejoin:round; stroke-width:6; stroke-opacity:1; fill:none" points="920.105,772.492 907.969,823.042 "></polyline>
<polyline clip-path="url(#clip552)" style="stroke:#ff0000; stroke-linecap:round; stroke-linejoin:round; stroke-width:6; stroke-opacity:1; fill:none" points="933.876,792.238 907.969,823.042 898.871,783.834 "></polyline>
<polyline clip-path="url(#clip552)" style="stroke:#ff0000; stroke-linecap:round; stroke-linejoin:round; stroke-width:6; stroke-opacity:1; fill:none" points="907.969,823.042 920.105,772.492 "></polyline>
<polyline clip-path="url(#clip552)" style="stroke:#ff0000; stroke-linecap:round; stroke-linejoin:round; stroke-width:6; stroke-opacity:1; fill:none" points="925.373,773.326 925.373,825.312 "></polyline>
<polyline clip-path="url(#clip552)" style="stroke:#ff0000; stroke-linecap:round; stroke-linejoin:round; stroke-width:6; stroke-opacity:1; fill:none" points="943.373,789.312 925.373,825.312 907.373,789.312 "></polyline>
<polyline clip-path="url(#clip552)" style="stroke:#ff0000; stroke-linecap:round; stroke-linejoin:round; stroke-width:6; stroke-opacity:1; fill:none" points="925.373,825.312 925.373,773.326 "></polyline>
<polyline clip-path="url(#clip552)" style="stroke:#ff0000; stroke-linecap:round; stroke-linejoin:round; stroke-width:6; stroke-opacity:1; fill:none" points="920.105,774.16 907.969,723.61 "></polyline>
<polyline clip-path="url(#clip552)" style="stroke:#ff0000; stroke-linecap:round; stroke-linejoin:round; stroke-width:6; stroke-opacity:1; fill:none" points="898.871,762.818 907.969,723.61 933.876,754.414 "></polyline>
<polyline clip-path="url(#clip552)" style="stroke:#ff0000; stroke-linecap:round; stroke-linejoin:round; stroke-width:6; stroke-opacity:1; fill:none" points="907.969,723.61 920.105,774.16 "></polyline>
<polyline clip-path="url(#clip552)" style="stroke:#ff0000; stroke-linecap:round; stroke-linejoin:round; stroke-width:6; stroke-opacity:1; fill:none" points="905.208,779.878 881.607,733.558 "></polyline>
<polyline clip-path="url(#clip552)" style="stroke:#ff0000; stroke-linecap:round; stroke-linejoin:round; stroke-width:6; stroke-opacity:1; fill:none" points="881.912,773.806 881.607,733.558 913.988,757.462 "></polyline>
<polyline clip-path="url(#clip552)" style="stroke:#ff0000; stroke-linecap:round; stroke-linejoin:round; stroke-width:6; stroke-opacity:1; fill:none" points="881.607,733.558 905.208,779.878 "></polyline>
<polyline clip-path="url(#clip552)" style="stroke:#ff0000; stroke-linecap:round; stroke-linejoin:round; stroke-width:6; stroke-opacity:1; fill:none" points="883.302,794.763 849.539,755.232 "></polyline>
<polyline clip-path="url(#clip552)" style="stroke:#ff0000; stroke-linecap:round; stroke-linejoin:round; stroke-width:6; stroke-opacity:1; fill:none" points="859.232,794.296 849.539,755.232 886.607,770.916 "></polyline>
<polyline clip-path="url(#clip552)" style="stroke:#ff0000; stroke-linecap:round; stroke-linejoin:round; stroke-width:6; stroke-opacity:1; fill:none" points="849.539,755.232 883.302,794.763 "></polyline>
<polyline clip-path="url(#clip552)" style="stroke:#ff0000; stroke-linecap:round; stroke-linejoin:round; stroke-width:6; stroke-opacity:1; fill:none" points="858.437,821.958 816.379,791.401 "></polyline>
<polyline clip-path="url(#clip552)" style="stroke:#ff0000; stroke-linecap:round; stroke-linejoin:round; stroke-width:6; stroke-opacity:1; fill:none" points="834.924,827.124 816.379,791.401 856.084,797.999 "></polyline>
<polyline clip-path="url(#clip552)" style="stroke:#ff0000; stroke-linecap:round; stroke-linejoin:round; stroke-width:6; stroke-opacity:1; fill:none" points="816.379,791.401 858.437,821.958 "></polyline>
<polyline clip-path="url(#clip552)" style="stroke:#ff0000; stroke-linecap:round; stroke-linejoin:round; stroke-width:6; stroke-opacity:1; fill:none" points="835.651,863.049 787.621,843.155 "></polyline>
<polyline clip-path="url(#clip552)" style="stroke:#ff0000; stroke-linecap:round; stroke-linejoin:round; stroke-width:6; stroke-opacity:1; fill:none" points="813.993,873.561 787.621,843.155 827.769,840.301 "></polyline>
<polyline clip-path="url(#clip552)" style="stroke:#ff0000; stroke-linecap:round; stroke-linejoin:round; stroke-width:6; stroke-opacity:1; fill:none" points="787.621,843.155 835.651,863.049 "></polyline>
<polyline clip-path="url(#clip552)" style="stroke:#ff0000; stroke-linecap:round; stroke-linejoin:round; stroke-width:6; stroke-opacity:1; fill:none" points="820.407,917.8 769.06,909.668 "></polyline>
<polyline clip-path="url(#clip552)" style="stroke:#ff0000; stroke-linecap:round; stroke-linejoin:round; stroke-width:6; stroke-opacity:1; fill:none" points="801.801,933.078 769.06,909.668 807.433,897.521 "></polyline>
<polyline clip-path="url(#clip552)" style="stroke:#ff0000; stroke-linecap:round; stroke-linejoin:round; stroke-width:6; stroke-opacity:1; fill:none" points="769.06,909.668 820.407,917.8 "></polyline>
<polyline clip-path="url(#clip552)" style="stroke:#ff0000; stroke-linecap:round; stroke-linejoin:round; stroke-width:6; stroke-opacity:1; fill:none" points="817.985,984.087 766.159,988.166 "></polyline>
<polyline clip-path="url(#clip552)" style="stroke:#ff0000; stroke-linecap:round; stroke-linejoin:round; stroke-width:6; stroke-opacity:1; fill:none" points="803.461,1003.29 766.159,988.166 800.636,967.397 "></polyline>
<polyline clip-path="url(#clip552)" style="stroke:#ff0000; stroke-linecap:round; stroke-linejoin:round; stroke-width:6; stroke-opacity:1; fill:none" points="766.159,988.166 817.985,984.087 "></polyline>
<polyline clip-path="url(#clip552)" style="stroke:#ff0000; stroke-linecap:round; stroke-linejoin:round; stroke-width:6; stroke-opacity:1; fill:none" points="832.87,1058.02 783.428,1074.09 "></polyline>
<polyline clip-path="url(#clip552)" style="stroke:#ff0000; stroke-linecap:round; stroke-linejoin:round; stroke-width:6; stroke-opacity:1; fill:none" points="823.228,1080.08 783.428,1074.09 812.104,1045.84 "></polyline>
<polyline clip-path="url(#clip552)" style="stroke:#ff0000; stroke-linecap:round; stroke-linejoin:round; stroke-width:6; stroke-opacity:1; fill:none" points="783.428,1074.09 832.87,1058.02 "></polyline>
<polyline clip-path="url(#clip552)" style="stroke:#ff0000; stroke-linecap:round; stroke-linejoin:round; stroke-width:6; stroke-opacity:1; fill:none" points="868.205,1134.28 823.879,1161.44 "></polyline>
<polyline clip-path="url(#clip552)" style="stroke:#ff0000; stroke-linecap:round; stroke-linejoin:round; stroke-width:6; stroke-opacity:1; fill:none" points="863.979,1157.98 823.879,1161.44 845.169,1127.28 "></polyline>
<polyline clip-path="url(#clip552)" style="stroke:#ff0000; stroke-linecap:round; stroke-linejoin:round; stroke-width:6; stroke-opacity:1; fill:none" points="823.879,1161.44 868.205,1134.28 "></polyline>
<polyline clip-path="url(#clip552)" style="stroke:#ff0000; stroke-linecap:round; stroke-linejoin:round; stroke-width:6; stroke-opacity:1; fill:none" points="925.373,1206.55 888.614,1243.31 "></polyline>
<polyline clip-path="url(#clip552)" style="stroke:#ff0000; stroke-linecap:round; stroke-linejoin:round; stroke-width:6; stroke-opacity:1; fill:none" points="926.797,1230.58 888.614,1243.31 901.341,1205.12 "></polyline>
<polyline clip-path="url(#clip552)" style="stroke:#ff0000; stroke-linecap:round; stroke-linejoin:round; stroke-width:6; stroke-opacity:1; fill:none" points="888.614,1243.31 925.373,1206.55 "></polyline>
<polyline clip-path="url(#clip552)" style="stroke:#ff0000; stroke-linecap:round; stroke-linejoin:round; stroke-width:6; stroke-opacity:1; fill:none" points="1003.75,1268.15 976.583,1312.47 "></polyline>
<polyline clip-path="url(#clip552)" style="stroke:#ff0000; stroke-linecap:round; stroke-linejoin:round; stroke-width:6; stroke-opacity:1; fill:none" points="1010.74,1291.18 976.583,1312.47 980.045,1272.37 "></polyline>
<polyline clip-path="url(#clip552)" style="stroke:#ff0000; stroke-linecap:round; stroke-linejoin:round; stroke-width:6; stroke-opacity:1; fill:none" points="976.583,1312.47 1003.75,1268.15 "></polyline>
<polyline clip-path="url(#clip552)" style="stroke:#ff0000; stroke-linecap:round; stroke-linejoin:round; stroke-width:6; stroke-opacity:1; fill:none" points="1100.61,1312.66 1084.55,1362.11 "></polyline>
<polyline clip-path="url(#clip552)" style="stroke:#ff0000; stroke-linecap:round; stroke-linejoin:round; stroke-width:6; stroke-opacity:1; fill:none" points="1112.79,1333.43 1084.55,1362.11 1078.56,1322.31 "></polyline>
<polyline clip-path="url(#clip552)" style="stroke:#ff0000; stroke-linecap:round; stroke-linejoin:round; stroke-width:6; stroke-opacity:1; fill:none" points="1084.55,1362.11 1100.61,1312.66 "></polyline>
<polyline clip-path="url(#clip552)" style="stroke:#ff0000; stroke-linecap:round; stroke-linejoin:round; stroke-width:6; stroke-opacity:1; fill:none" points="1211.34,1334.57 1207.26,1386.4 "></polyline>
<polyline clip-path="url(#clip552)" style="stroke:#ff0000; stroke-linecap:round; stroke-linejoin:round; stroke-width:6; stroke-opacity:1; fill:none" points="1228.03,1351.92 1207.26,1386.4 1192.14,1349.09 "></polyline>
<polyline clip-path="url(#clip552)" style="stroke:#ff0000; stroke-linecap:round; stroke-linejoin:round; stroke-width:6; stroke-opacity:1; fill:none" points="1207.26,1386.4 1211.34,1334.57 "></polyline>
<polyline clip-path="url(#clip552)" style="stroke:#ff0000; stroke-linecap:round; stroke-linejoin:round; stroke-width:6; stroke-opacity:1; fill:none" points="1329.69,1329.82 1337.82,1381.16 "></polyline>
<polyline clip-path="url(#clip552)" style="stroke:#ff0000; stroke-linecap:round; stroke-linejoin:round; stroke-width:6; stroke-opacity:1; fill:none" points="1349.97,1342.79 1337.82,1381.16 1314.41,1348.42 "></polyline>
<polyline clip-path="url(#clip552)" style="stroke:#ff0000; stroke-linecap:round; stroke-linejoin:round; stroke-width:6; stroke-opacity:1; fill:none" points="1337.82,1381.16 1329.69,1329.82 "></polyline>
<polyline clip-path="url(#clip552)" style="stroke:#ff0000; stroke-linecap:round; stroke-linejoin:round; stroke-width:6; stroke-opacity:1; fill:none" points="1448.32,1296.27 1468.21,1344.3 "></polyline>
<polyline clip-path="url(#clip552)" style="stroke:#ff0000; stroke-linecap:round; stroke-linejoin:round; stroke-width:6; stroke-opacity:1; fill:none" points="1471.06,1304.15 1468.21,1344.3 1437.8,1317.93 "></polyline>
<polyline clip-path="url(#clip552)" style="stroke:#ff0000; stroke-linecap:round; stroke-linejoin:round; stroke-width:6; stroke-opacity:1; fill:none" points="1468.21,1344.3 1448.32,1296.27 "></polyline>
<polyline clip-path="url(#clip552)" style="stroke:#ff0000; stroke-linecap:round; stroke-linejoin:round; stroke-width:6; stroke-opacity:1; fill:none" points="1559.4,1233.98 1589.96,1276.03 "></polyline>
<polyline clip-path="url(#clip552)" style="stroke:#ff0000; stroke-linecap:round; stroke-linejoin:round; stroke-width:6; stroke-opacity:1; fill:none" points="1583.36,1236.33 1589.96,1276.03 1554.24,1257.49 "></polyline>
<polyline clip-path="url(#clip552)" style="stroke:#ff0000; stroke-linecap:round; stroke-linejoin:round; stroke-width:6; stroke-opacity:1; fill:none" points="1589.96,1276.03 1559.4,1233.98 "></polyline>
<polyline clip-path="url(#clip552)" style="stroke:#ff0000; stroke-linecap:round; stroke-linejoin:round; stroke-width:6; stroke-opacity:1; fill:none" points="1655.31,1145.25 1694.84,1179.01 "></polyline>
<polyline clip-path="url(#clip552)" style="stroke:#ff0000; stroke-linecap:round; stroke-linejoin:round; stroke-width:6; stroke-opacity:1; fill:none" points="1679.15,1141.94 1694.84,1179.01 1655.77,1169.31 "></polyline>
<polyline clip-path="url(#clip552)" style="stroke:#ff0000; stroke-linecap:round; stroke-linejoin:round; stroke-width:6; stroke-opacity:1; fill:none" points="1694.84,1179.01 1655.31,1145.25 "></polyline>
<polyline clip-path="url(#clip552)" style="stroke:#ff0000; stroke-linecap:round; stroke-linejoin:round; stroke-width:6; stroke-opacity:1; fill:none" points="1729.24,1034.52 1775.56,1058.12 "></polyline>
<polyline clip-path="url(#clip552)" style="stroke:#ff0000; stroke-linecap:round; stroke-linejoin:round; stroke-width:6; stroke-opacity:1; fill:none" points="1751.66,1025.74 1775.56,1058.12 1735.31,1057.81 "></polyline>
<polyline clip-path="url(#clip552)" style="stroke:#ff0000; stroke-linecap:round; stroke-linejoin:round; stroke-width:6; stroke-opacity:1; fill:none" points="1775.56,1058.12 1729.24,1034.52 "></polyline>
<polyline clip-path="url(#clip552)" style="stroke:#ff0000; stroke-linecap:round; stroke-linejoin:round; stroke-width:6; stroke-opacity:1; fill:none" points="1775.88,908.033 1826.43,920.169 "></polyline>
<polyline clip-path="url(#clip552)" style="stroke:#ff0000; stroke-linecap:round; stroke-linejoin:round; stroke-width:6; stroke-opacity:1; fill:none" points="1795.63,894.262 1826.43,920.169 1787.22,929.267 "></polyline>
<polyline clip-path="url(#clip552)" style="stroke:#ff0000; stroke-linecap:round; stroke-linejoin:round; stroke-width:6; stroke-opacity:1; fill:none" points="1826.43,920.169 1775.88,908.033 "></polyline>
</svg>