<svg xmlns="http://www.w3.org/2000/svg" xmlns:xlink="http://www.w3.org/1999/xlink" width="600" height="400" viewBox="0 0 2400 1600">
<defs>
  <clipPath id="clip970">
    <rect x="0" y="0" width="2400" height="1600"></rect>
  </clipPath>
</defs>
<path clip-path="url(#clip970)" d="M0 1600 L2400 1600 L2400 8.88178e-14 L0 8.88178e-14  Z" fill="#ffffff" fill-rule="evenodd" fill-opacity="1"></path>
<defs>
  <clipPath id="clip971">
    <rect x="480" y="0" width="1681" height="1600"></rect>
  </clipPath>
</defs>
<path clip-path="url(#clip970)" d="M560.304 1423.18 L2352.76 1423.18 L2352.76 123.472 L560.304 123.472  Z" fill="#ffffff" fill-rule="evenodd" fill-opacity="1"></path>
<defs>
  <clipPath id="clip972">
    <rect x="560" y="123" width="1793" height="1301"></rect>
  </clipPath>
</defs>
<polyline clip-path="url(#clip972)" style="stroke:#000000; stroke-linecap:round; stroke-linejoin:round; stroke-width:2; stroke-opacity:0.1; fill:none" points="560.304,1423.18 560.304,123.472 "></polyline>
<polyline clip-path="url(#clip972)" style="stroke:#000000; stroke-linecap:round; stroke-linejoin:round; stroke-width:2; stroke-opacity:0.1; fill:none" points="968.329,1423.18 968.329,123.472 "></polyline>
<polyline clip-path="url(#clip972)" style="stroke:#000000; stroke-linecap:round; stroke-linejoin:round; stroke-width:2; stroke-opacity:0.1; fill:none" points="1376.35,1423.18 1376.35,123.472 "></polyline>
<polyline clip-path="url(#clip972)" style="stroke:#000000; stroke-linecap:round; stroke-linejoin:round; stroke-width:2; stroke-opacity:0.1; fill:none" points="1784.38,1423.18 1784.38,123.472 "></polyline>
<polyline clip-path="url(#clip972)" style="stroke:#000000; stroke-linecap:round; stroke-linejoin:round; stroke-width:2; stroke-opacity:0.1; fill:none" points="2192.4,1423.18 2192.4,123.472 "></polyline>
<polyline clip-path="url(#clip972)" style="stroke:#000000; stroke-linecap:round; stroke-linejoin:round; stroke-width:2; stroke-opacity:0.1; fill:none" points="560.304,1293.21 2352.76,1293.21 "></polyline>
<polyline clip-path="url(#clip972)" style="stroke:#000000; stroke-linecap:round; stroke-linejoin:round; stroke-width:2; stroke-opacity:0.1; fill:none" points="560.304,1033.27 2352.76,1033.27 "></polyline>
<polyline clip-path="url(#clip972)" style="stroke:#000000; stroke-linecap:round; stroke-linejoin:round; stroke-width:2; stroke-opacity:0.1; fill:none" points="560.304,773.326 2352.76,773.326 "></polyline>
<polyline clip-path="url(#clip972)" style="stroke:#000000; stroke-linecap:round; stroke-linejoin:round; stroke-width:2; stroke-opacity:0.1; fill:none" points="560.304,513.384 2352.76,513.384 "></polyline>
<polyline clip-path="url(#clip972)" style="stroke:#000000; stroke-linecap:round; stroke-linejoin:round; stroke-width:2; stroke-opacity:0.1; fill:none" points="560.304,253.443 2352.76,253.443 "></polyline>
<polyline clip-path="url(#clip970)" style="stroke:#000000; stroke-linecap:round; stroke-linejoin:round; stroke-width:4; stroke-opacity:1; fill:none" points="560.304,1423.18 2352.76,1423.18 "></polyline>
<polyline clip-path="url(#clip970)" style="stroke:#000000; stroke-linecap:round; stroke-linejoin:round; stroke-width:4; stroke-opacity:1; fill:none" points="560.304,1423.18 560.304,1404.28 "></polyline>
<polyline clip-path="url(#clip970)" style="stroke:#000000; stroke-linecap:round; stroke-linejoin:round; stroke-width:4; stroke-opacity:1; fill:none" points="968.329,1423.18 968.329,1404.28 "></polyline>
<polyline clip-path="url(#clip970)" style="stroke:#000000; stroke-linecap:round; stroke-linejoin:round; stroke-width:4; stroke-opacity:1; fill:none" points="1376.35,1423.18 1376.35,1404.28 "></polyline>
<polyline clip-path="url(#clip970)" style="stroke:#000000; stroke-linecap:round; stroke-linejoin:round; stroke-width:4; stroke-opacity:1; fill:none" points="1784.38,1423.18 1784.38,1404.28 "></polyline>
<polyline clip-path="url(#clip970)" style="stroke:#000000; stroke-linecap:round; stroke-linejoin:round; stroke-width:4; stroke-opacity:1; fill:none" points="2192.4,1423.18 2192.4,1404.28 "></polyline>
<path clip-path="url(#clip970)" d="M560.304 1454.1 Q556.693 1454.1 554.864 1457.66 Q553.059 1461.2 553.059 1468.33 Q553.059 1475.44 554.864 1479.01 Q556.693 1482.55 560.304 1482.55 Q563.938 1482.55 565.744 1479.01 Q567.573 1475.44 567.573 1468.33 Q567.573 1461.2 565.744 1457.66 Q563.938 1454.1 560.304 1454.1 M560.304 1450.39 Q566.114 1450.39 569.17 1455 Q572.249 1459.58 572.249 1468.33 Q572.249 1477.06 569.17 1481.67 Q566.114 1486.25 560.304 1486.25 Q554.494 1486.25 551.415 1481.67 Q548.36 1477.06 548.36 1468.33 Q548.36 1459.58 551.415 1455 Q554.494 1450.39 560.304 1450.39 Z" fill="#000000" fill-rule="nonzero" fill-opacity="1"></path><path clip-path="url(#clip970)" d="M943.028 1451.02 L961.384 1451.02 L961.384 1454.96 L947.31 1454.96 L947.31 1463.43 Q948.329 1463.08 949.347 1462.92 Q950.366 1462.73 951.384 1462.73 Q957.171 1462.73 960.551 1465.9 Q963.931 1469.08 963.931 1474.49 Q963.931 1480.07 960.458 1483.17 Q956.986 1486.25 950.667 1486.25 Q948.491 1486.25 946.222 1485.88 Q943.977 1485.51 941.57 1484.77 L941.57 1480.07 Q943.653 1481.2 945.875 1481.76 Q948.097 1482.32 950.574 1482.32 Q954.579 1482.32 956.917 1480.21 Q959.255 1478.1 959.255 1474.49 Q959.255 1470.88 956.917 1468.77 Q954.579 1466.67 950.574 1466.67 Q948.699 1466.67 946.824 1467.08 Q944.972 1467.5 943.028 1468.38 L943.028 1451.02 Z" fill="#000000" fill-rule="nonzero" fill-opacity="1"></path><path clip-path="url(#clip970)" d="M983.143 1454.1 Q979.532 1454.1 977.704 1457.66 Q975.898 1461.2 975.898 1468.33 Q975.898 1475.44 977.704 1479.01 Q979.532 1482.55 983.143 1482.55 Q986.778 1482.55 988.583 1479.01 Q990.412 1475.44 990.412 1468.33 Q990.412 1461.2 988.583 1457.66 Q986.778 1454.1 983.143 1454.1 M983.143 1450.39 Q988.954 1450.39 992.009 1455 Q995.088 1459.58 995.088 1468.33 Q995.088 1477.06 992.009 1481.67 Q988.954 1486.25 983.143 1486.25 Q977.333 1486.25 974.255 1481.67 Q971.199 1477.06 971.199 1468.33 Q971.199 1459.58 974.255 1455 Q977.333 1450.39 983.143 1450.39 Z" fill="#000000" fill-rule="nonzero" fill-opacity="1"></path><path clip-path="url(#clip970)" d="M1335.96 1481.64 L1343.6 1481.64 L1343.6 1455.28 L1335.29 1456.95 L1335.29 1452.69 L1343.55 1451.02 L1348.23 1451.02 L1348.23 1481.64 L1355.87 1481.64 L1355.87 1485.58 L1335.96 1485.58 L1335.96 1481.64 Z" fill="#000000" fill-rule="nonzero" fill-opacity="1"></path><path clip-path="url(#clip970)" d="M1375.31 1454.1 Q1371.7 1454.1 1369.87 1457.66 Q1368.07 1461.2 1368.07 1468.33 Q1368.07 1475.44 1369.87 1479.01 Q1371.7 1482.55 1375.31 1482.55 Q1378.95 1482.55 1380.75 1479.01 Q1382.58 1475.44 1382.58 1468.33 Q1382.58 1461.2 1380.75 1457.66 Q1378.95 1454.1 1375.31 1454.1 M1375.31 1450.39 Q1381.12 1450.39 1384.18 1455 Q1387.26 1459.58 1387.26 1468.33 Q1387.26 1477.06 1384.18 1481.67 Q1381.12 1486.25 1375.31 1486.25 Q1369.5 1486.25 1366.42 1481.67 Q1363.37 1477.06 1363.37 1468.33 Q1363.37 1459.58 1366.42 1455 Q1369.5 1450.39 1375.31 1450.39 Z" fill="#000000" fill-rule="nonzero" fill-opacity="1"></path><path clip-path="url(#clip970)" d="M1405.47 1454.1 Q1401.86 1454.1 1400.03 1457.66 Q1398.23 1461.2 1398.23 1468.33 Q1398.23 1475.44 1400.03 1479.01 Q1401.86 1482.55 1405.47 1482.55 Q1409.11 1482.55 1410.91 1479.01 Q1412.74 1475.44 1412.74 1468.33 Q1412.74 1461.2 1410.91 1457.66 Q1409.11 1454.1 1405.47 1454.1 M1405.47 1450.39 Q1411.28 1450.39 1414.34 1455 Q1417.42 1459.58 1417.42 1468.33 Q1417.42 1477.06 1414.34 1481.67 Q1411.28 1486.25 1405.47 1486.25 Q1399.66 1486.25 1396.58 1481.67 Q1393.53 1477.06 1393.53 1468.33 Q1393.53 1459.58 1396.58 1455 Q1399.66 1450.39 1405.47 1450.39 Z" fill="#000000" fill-rule="nonzero" fill-opacity="1"></path><path clip-path="url(#clip970)" d="M1743.98 1481.64 L1751.62 1481.64 L1751.62 1455.28 L1743.31 1456.95 L1743.31 1452.69 L1751.58 1451.02 L1756.25 1451.02 L1756.25 1481.64 L1763.89 1481.64 L1763.89 1485.58 L1743.98 1485.58 L1743.98 1481.64 Z" fill="#000000" fill-rule="nonzero" fill-opacity="1"></path><path clip-path="url(#clip970)" d="M1773.38 1451.02 L1791.74 1451.02 L1791.74 1454.96 L1777.66 1454.96 L1777.66 1463.43 Q1778.68 1463.08 1779.7 1462.92 Q1780.72 1462.73 1781.74 1462.73 Q1787.53 1462.73 1790.91 1465.9 Q1794.29 1469.08 1794.29 1474.49 Q1794.29 1480.07 1790.81 1483.17 Q1787.34 1486.25 1781.02 1486.25 Q1778.85 1486.25 1776.58 1485.88 Q1774.33 1485.51 1771.92 1484.77 L1771.92 1480.07 Q1774.01 1481.2 1776.23 1481.76 Q1778.45 1482.32 1780.93 1482.32 Q1784.93 1482.32 1787.27 1480.21 Q1789.61 1478.1 1789.61 1474.49 Q1789.61 1470.88 1787.27 1468.77 Q1784.93 1466.67 1780.93 1466.67 Q1779.05 1466.67 1777.18 1467.08 Q1775.33 1467.5 1773.38 1468.38 L1773.38 1451.02 Z" fill="#000000" fill-rule="nonzero" fill-opacity="1"></path><path clip-path="url(#clip970)" d="M1813.5 1454.1 Q1809.89 1454.1 1808.06 1457.66 Q1806.25 1461.2 1806.25 1468.33 Q1806.25 1475.44 1808.06 1479.01 Q1809.89 1482.55 1813.5 1482.55 Q1817.13 1482.55 1818.94 1479.01 Q1820.77 1475.44 1820.77 1468.33 Q1820.77 1461.2 1818.94 1457.66 Q1817.13 1454.1 1813.5 1454.1 M1813.5 1450.39 Q1819.31 1450.39 1822.36 1455 Q1825.44 1459.58 1825.44 1468.33 Q1825.44 1477.06 1822.36 1481.67 Q1819.31 1486.25 1813.5 1486.25 Q1807.69 1486.25 1804.61 1481.67 Q1801.55 1477.06 1801.55 1468.33 Q1801.55 1459.58 1804.61 1455 Q1807.69 1450.39 1813.5 1450.39 Z" fill="#000000" fill-rule="nonzero" fill-opacity="1"></path><path clip-path="url(#clip970)" d="M2156.09 1481.64 L2172.41 1481.64 L2172.41 1485.58 L2150.47 1485.58 L2150.47 1481.64 Q2153.13 1478.89 2157.71 1474.26 Q2162.32 1469.61 2163.5 1468.27 Q2165.75 1465.74 2166.63 1464.01 Q2167.53 1462.25 2167.53 1460.56 Q2167.53 1457.8 2165.59 1456.07 Q2163.66 1454.33 2160.56 1454.33 Q2158.36 1454.33 2155.91 1455.09 Q2153.48 1455.86 2150.7 1457.41 L2150.7 1452.69 Q2153.53 1451.55 2155.98 1450.97 Q2158.43 1450.39 2160.47 1450.39 Q2165.84 1450.39 2169.03 1453.08 Q2172.23 1455.77 2172.23 1460.26 Q2172.23 1462.39 2171.42 1464.31 Q2170.63 1466.2 2168.53 1468.8 Q2167.95 1469.47 2164.84 1472.69 Q2161.74 1475.88 2156.09 1481.64 Z" fill="#000000" fill-rule="nonzero" fill-opacity="1"></path><path clip-path="url(#clip970)" d="M2192.23 1454.1 Q2188.62 1454.1 2186.79 1457.66 Q2184.98 1461.2 2184.98 1468.33 Q2184.98 1475.44 2186.79 1479.01 Q2188.62 1482.55 2192.23 1482.55 Q2195.86 1482.55 2197.67 1479.01 Q2199.5 1475.44 2199.5 1468.33 Q2199.5 1461.2 2197.67 1457.66 Q2195.86 1454.1 2192.23 1454.1 M2192.23 1450.39 Q2198.04 1450.39 2201.09 1455 Q2204.17 1459.58 2204.17 1468.33 Q2204.17 1477.06 2201.09 1481.67 Q2198.04 1486.25 2192.23 1486.25 Q2186.42 1486.25 2183.34 1481.67 Q2180.28 1477.06 2180.28 1468.33 Q2180.28 1459.58 2183.34 1455 Q2186.42 1450.39 2192.23 1450.39 Z" fill="#000000" fill-rule="nonzero" fill-opacity="1"></path><path clip-path="url(#clip970)" d="M2222.39 1454.1 Q2218.78 1454.1 2216.95 1457.66 Q2215.15 1461.2 2215.15 1468.33 Q2215.15 1475.44 2216.95 1479.01 Q2218.78 1482.55 2222.39 1482.55 Q2226.02 1482.55 2227.83 1479.01 Q2229.66 1475.44 2229.66 1468.33 Q2229.66 1461.2 2227.83 1457.66 Q2226.02 1454.1 2222.39 1454.1 M2222.39 1450.39 Q2228.2 1450.39 2231.26 1455 Q2234.33 1459.58 2234.33 1468.33 Q2234.33 1477.06 2231.26 1481.67 Q2228.2 1486.25 2222.39 1486.25 Q2216.58 1486.25 2213.5 1481.67 Q2210.45 1477.06 2210.45 1468.33 Q2210.45 1459.58 2213.5 1455 Q2216.58 1450.39 2222.39 1450.39 Z" fill="#000000" fill-rule="nonzero" fill-opacity="1"></path><path clip-path="url(#clip970)" d="M1296.16 1545.76 Q1298.23 1546.46 1300.17 1548.76 Q1302.15 1551.05 1304.12 1555.06 L1310.64 1568.04 L1303.74 1568.04 L1297.66 1555.85 Q1295.3 1551.08 1293.07 1549.52 Q1290.88 1547.96 1287.06 1547.96 L1280.06 1547.96 L1280.06 1568.04 L1273.63 1568.04 L1273.63 1520.52 L1288.14 1520.52 Q1296.29 1520.52 1300.3 1523.93 Q1304.31 1527.34 1304.31 1534.21 Q1304.31 1538.7 1302.21 1541.66 Q1300.14 1544.62 1296.16 1545.76 M1280.06 1525.81 L1280.06 1542.68 L1288.14 1542.68 Q1292.79 1542.68 1295.14 1540.54 Q1297.53 1538.38 1297.53 1534.21 Q1297.53 1530.04 1295.14 1527.94 Q1292.79 1525.81 1288.14 1525.81 L1280.06 1525.81 Z" fill="#000000" fill-rule="nonzero" fill-opacity="1"></path><path clip-path="url(#clip970)" d="M1315.13 1553.98 L1315.13 1532.4 L1320.99 1532.4 L1320.99 1553.75 Q1320.99 1558.81 1322.96 1561.36 Q1324.94 1563.87 1328.88 1563.87 Q1333.62 1563.87 1336.36 1560.85 Q1339.13 1557.83 1339.13 1552.61 L1339.13 1532.4 L1344.99 1532.4 L1344.99 1568.04 L1339.13 1568.04 L1339.13 1562.57 Q1337 1565.82 1334.17 1567.41 Q1331.36 1568.97 1327.64 1568.97 Q1321.5 1568.97 1318.31 1565.15 Q1315.13 1561.33 1315.13 1553.98 M1329.87 1531.54 L1329.87 1531.54 Z" fill="#000000" fill-rule="nonzero" fill-opacity="1"></path><path clip-path="url(#clip970)" d="M1386.68 1546.53 L1386.68 1568.04 L1380.83 1568.04 L1380.83 1546.72 Q1380.83 1541.66 1378.85 1539.14 Q1376.88 1536.63 1372.93 1536.63 Q1368.19 1536.63 1365.45 1539.65 Q1362.72 1542.68 1362.72 1547.9 L1362.72 1568.04 L1356.83 1568.04 L1356.83 1532.4 L1362.72 1532.4 L1362.72 1537.93 Q1364.82 1534.72 1367.65 1533.13 Q1370.51 1531.54 1374.24 1531.54 Q1380.38 1531.54 1383.53 1535.36 Q1386.68 1539.14 1386.68 1546.53 Z" fill="#000000" fill-rule="nonzero" fill-opacity="1"></path><path clip-path="url(#clip970)" d="M1404.16 1522.27 L1404.16 1532.4 L1416.22 1532.4 L1416.22 1536.95 L1404.16 1536.95 L1404.16 1556.3 Q1404.16 1560.66 1405.33 1561.9 Q1406.54 1563.14 1410.2 1563.14 L1416.22 1563.14 L1416.22 1568.04 L1410.2 1568.04 Q1403.42 1568.04 1400.85 1565.53 Q1398.27 1562.98 1398.27 1556.3 L1398.27 1536.95 L1393.97 1536.95 L1393.97 1532.4 L1398.27 1532.4 L1398.27 1522.27 L1404.16 1522.27 Z" fill="#000000" fill-rule="nonzero" fill-opacity="1"></path><path clip-path="url(#clip970)" d="M1423.92 1532.4 L1429.78 1532.4 L1429.78 1568.04 L1423.92 1568.04 L1423.92 1532.4 M1423.92 1518.52 L1429.78 1518.52 L1429.78 1525.93 L1423.92 1525.93 L1423.92 1518.52 Z" fill="#000000" fill-rule="nonzero" fill-opacity="1"></path><path clip-path="url(#clip970)" d="M1469.79 1539.24 Q1471.98 1535.29 1475.04 1533.41 Q1478.09 1531.54 1482.23 1531.54 Q1487.8 1531.54 1490.83 1535.45 Q1493.85 1539.33 1493.85 1546.53 L1493.85 1568.04 L1487.96 1568.04 L1487.96 1546.72 Q1487.96 1541.59 1486.15 1539.11 Q1484.33 1536.63 1480.61 1536.63 Q1476.06 1536.63 1473.42 1539.65 Q1470.77 1542.68 1470.77 1547.9 L1470.77 1568.04 L1464.89 1568.04 L1464.89 1546.72 Q1464.89 1541.56 1463.07 1539.11 Q1461.26 1536.63 1457.47 1536.63 Q1452.98 1536.63 1450.34 1539.68 Q1447.7 1542.71 1447.7 1547.9 L1447.7 1568.04 L1441.81 1568.04 L1441.81 1532.4 L1447.7 1532.4 L1447.7 1537.93 Q1449.7 1534.66 1452.5 1533.1 Q1455.3 1531.54 1459.16 1531.54 Q1463.04 1531.54 1465.74 1533.51 Q1468.48 1535.48 1469.79 1539.24 Z" fill="#000000" fill-rule="nonzero" fill-opacity="1"></path><path clip-path="url(#clip970)" d="M1536.02 1548.76 L1536.02 1551.62 L1509.09 1551.62 Q1509.48 1557.67 1512.72 1560.85 Q1516 1564 1521.83 1564 Q1525.2 1564 1528.35 1563.17 Q1531.53 1562.35 1534.65 1560.69 L1534.65 1566.23 Q1531.5 1567.57 1528.19 1568.27 Q1524.88 1568.97 1521.48 1568.97 Q1512.95 1568.97 1507.95 1564 Q1502.98 1559.04 1502.98 1550.57 Q1502.98 1541.82 1507.69 1536.69 Q1512.44 1531.54 1520.46 1531.54 Q1527.65 1531.54 1531.82 1536.18 Q1536.02 1540.8 1536.02 1548.76 M1530.17 1547.04 Q1530.1 1542.23 1527.46 1539.37 Q1524.85 1536.5 1520.52 1536.5 Q1515.62 1536.5 1512.66 1539.27 Q1509.73 1542.04 1509.29 1547.07 L1530.17 1547.04 Z" fill="#000000" fill-rule="nonzero" fill-opacity="1"></path><path clip-path="url(#clip970)" d="M1580.42 1518.58 Q1576.16 1525.9 1574.09 1533.06 Q1572.02 1540.23 1572.02 1547.58 Q1572.02 1554.93 1574.09 1562.16 Q1576.19 1569.35 1580.42 1576.64 L1575.33 1576.64 Q1570.56 1569.16 1568.17 1561.93 Q1565.81 1554.71 1565.81 1547.58 Q1565.81 1540.48 1568.17 1533.29 Q1570.52 1526.09 1575.33 1518.58 L1580.42 1518.58 Z" fill="#000000" fill-rule="nonzero" fill-opacity="1"></path><path clip-path="url(#clip970)" d="M1614.51 1533.45 L1614.51 1538.98 Q1612.03 1537.71 1609.35 1537.07 Q1606.68 1536.44 1603.82 1536.44 Q1599.46 1536.44 1597.26 1537.77 Q1595.1 1539.11 1595.1 1541.79 Q1595.1 1543.82 1596.66 1545 Q1598.21 1546.15 1602.93 1547.2 L1604.93 1547.64 Q1611.17 1548.98 1613.78 1551.43 Q1616.42 1553.85 1616.42 1558.21 Q1616.42 1563.17 1612.47 1566.07 Q1608.56 1568.97 1601.68 1568.97 Q1598.82 1568.97 1595.7 1568.39 Q1592.61 1567.85 1589.18 1566.74 L1589.18 1560.69 Q1592.42 1562.38 1595.57 1563.24 Q1598.72 1564.07 1601.81 1564.07 Q1605.95 1564.07 1608.18 1562.66 Q1610.41 1561.23 1610.41 1558.65 Q1610.41 1556.27 1608.78 1554.99 Q1607.19 1553.72 1601.75 1552.54 L1599.71 1552.07 Q1594.27 1550.92 1591.85 1548.56 Q1589.43 1546.18 1589.43 1542.04 Q1589.43 1537.01 1592.99 1534.27 Q1596.56 1531.54 1603.12 1531.54 Q1606.36 1531.54 1609.23 1532.01 Q1612.09 1532.49 1614.51 1533.45 Z" fill="#000000" fill-rule="nonzero" fill-opacity="1"></path><path clip-path="url(#clip970)" d="M1624.82 1518.58 L1629.92 1518.58 Q1634.69 1526.09 1637.05 1533.29 Q1639.43 1540.48 1639.43 1547.58 Q1639.43 1554.71 1637.05 1561.93 Q1634.69 1569.16 1629.92 1576.64 L1624.82 1576.64 Q1629.06 1569.35 1631.13 1562.16 Q1633.23 1554.93 1633.23 1547.58 Q1633.23 1540.23 1631.13 1533.06 Q1629.06 1525.9 1624.82 1518.58 Z" fill="#000000" fill-rule="nonzero" fill-opacity="1"></path><polyline clip-path="url(#clip970)" style="stroke:#000000; stroke-linecap:round; stroke-linejoin:round; stroke-width:4; stroke-opacity:1; fill:none" points="560.304,1423.18 560.304,123.472 "></polyline>
<polyline clip-path="url(#clip970)" style="stroke:#000000; stroke-linecap:round; stroke-linejoin:round; stroke-width:4; stroke-opacity:1; fill:none" points="560.304,1293.21 579.202,1293.21 "></polyline>
<polyline clip-path="url(#clip970)" style="stroke:#000000; stroke-linecap:round; stroke-linejoin:round; stroke-width:4; stroke-opacity:1; fill:none" points="560.304,1033.27 579.202,1033.27 "></polyline>
<polyline clip-path="url(#clip970)" style="stroke:#000000; stroke-linecap:round; stroke-linejoin:round; stroke-width:4; stroke-opacity:1; fill:none" points="560.304,773.326 579.202,773.326 "></polyline>
<polyline clip-path="url(#clip970)" style="stroke:#000000; stroke-linecap:round; stroke-linejoin:round; stroke-width:4; stroke-opacity:1; fill:none" points="560.304,513.384 579.202,513.384 "></polyline>
<polyline clip-path="url(#clip970)" style="stroke:#000000; stroke-linecap:round; stroke-linejoin:round; stroke-width:4; stroke-opacity:1; fill:none" points="560.304,253.443 579.202,253.443 "></polyline>
<path clip-path="url(#clip970)" d="M335.162 1293.98 L335.162 1306.65 L342.662 1306.65 Q346.435 1306.65 348.24 1305.1 Q350.069 1303.52 350.069 1300.3 Q350.069 1297.06 348.24 1295.54 Q346.435 1293.98 342.662 1293.98 L335.162 1293.98 M335.162 1279.77 L335.162 1290.19 L342.083 1290.19 Q345.509 1290.19 347.176 1288.92 Q348.865 1287.62 348.865 1284.98 Q348.865 1282.36 347.176 1281.07 Q345.509 1279.77 342.083 1279.77 L335.162 1279.77 M330.486 1275.93 L342.43 1275.93 Q347.777 1275.93 350.671 1278.15 Q353.564 1280.37 353.564 1284.47 Q353.564 1287.64 352.083 1289.52 Q350.601 1291.39 347.731 1291.85 Q351.18 1292.6 353.078 1294.96 Q355 1297.29 355 1300.81 Q355 1305.44 351.851 1307.97 Q348.703 1310.49 342.893 1310.49 L330.486 1310.49 L330.486 1275.93 Z" fill="#000000" fill-rule="nonzero" fill-opacity="1"></path><path clip-path="url(#clip970)" d="M374.606 1297.46 Q369.444 1297.46 367.453 1298.64 Q365.463 1299.82 365.463 1302.67 Q365.463 1304.93 366.944 1306.28 Q368.449 1307.6 371.018 1307.6 Q374.56 1307.6 376.689 1305.1 Q378.842 1302.57 378.842 1298.41 L378.842 1297.46 L374.606 1297.46 M383.101 1295.7 L383.101 1310.49 L378.842 1310.49 L378.842 1306.55 Q377.384 1308.92 375.208 1310.05 Q373.032 1311.16 369.884 1311.16 Q365.902 1311.16 363.541 1308.94 Q361.203 1306.69 361.203 1302.94 Q361.203 1298.57 364.12 1296.35 Q367.06 1294.12 372.87 1294.12 L378.842 1294.12 L378.842 1293.71 Q378.842 1290.77 376.898 1289.17 Q374.976 1287.55 371.481 1287.55 Q369.259 1287.55 367.152 1288.08 Q365.046 1288.61 363.101 1289.68 L363.101 1285.74 Q365.439 1284.84 367.638 1284.4 Q369.837 1283.94 371.921 1283.94 Q377.546 1283.94 380.324 1286.85 Q383.101 1289.77 383.101 1295.7 Z" fill="#000000" fill-rule="nonzero" fill-opacity="1"></path><path clip-path="url(#clip970)" d="M408.402 1285.33 L408.402 1289.35 Q406.597 1288.43 404.652 1287.97 Q402.708 1287.5 400.624 1287.5 Q397.453 1287.5 395.856 1288.48 Q394.282 1289.45 394.282 1291.39 Q394.282 1292.87 395.416 1293.73 Q396.55 1294.56 399.976 1295.33 L401.435 1295.65 Q405.972 1296.62 407.87 1298.41 Q409.791 1300.17 409.791 1303.34 Q409.791 1306.95 406.921 1309.05 Q404.073 1311.16 399.073 1311.16 Q396.99 1311.16 394.722 1310.74 Q392.476 1310.35 389.976 1309.54 L389.976 1305.14 Q392.337 1306.37 394.629 1306.99 Q396.921 1307.6 399.166 1307.6 Q402.175 1307.6 403.796 1306.58 Q405.416 1305.54 405.416 1303.66 Q405.416 1301.92 404.235 1301 Q403.078 1300.07 399.12 1299.22 L397.638 1298.87 Q393.68 1298.04 391.921 1296.32 Q390.161 1294.59 390.161 1291.58 Q390.161 1287.92 392.754 1285.93 Q395.347 1283.94 400.115 1283.94 Q402.476 1283.94 404.56 1284.29 Q406.643 1284.63 408.402 1285.33 Z" fill="#000000" fill-rule="nonzero" fill-opacity="1"></path><path clip-path="url(#clip970)" d="M438.749 1296.46 L438.749 1298.54 L419.166 1298.54 Q419.444 1302.94 421.805 1305.26 Q424.189 1307.55 428.425 1307.55 Q430.879 1307.55 433.17 1306.95 Q435.485 1306.35 437.754 1305.14 L437.754 1309.17 Q435.462 1310.14 433.055 1310.65 Q430.647 1311.16 428.171 1311.16 Q421.967 1311.16 418.333 1307.55 Q414.722 1303.94 414.722 1297.78 Q414.722 1291.42 418.147 1287.69 Q421.596 1283.94 427.43 1283.94 Q432.661 1283.94 435.694 1287.32 Q438.749 1290.67 438.749 1296.46 M434.49 1295.21 Q434.444 1291.72 432.522 1289.63 Q430.624 1287.55 427.476 1287.55 Q423.911 1287.55 421.759 1289.56 Q419.629 1291.58 419.305 1295.23 L434.49 1295.21 Z" fill="#000000" fill-rule="nonzero" fill-opacity="1"></path><path clip-path="url(#clip970)" d="M445.74 1274.47 L449.999 1274.47 L449.999 1310.49 L445.74 1310.49 L445.74 1274.47 Z" fill="#000000" fill-rule="nonzero" fill-opacity="1"></path><path clip-path="url(#clip970)" d="M458.911 1284.56 L463.17 1284.56 L463.17 1310.49 L458.911 1310.49 L458.911 1284.56 M458.911 1274.47 L463.17 1274.47 L463.17 1279.86 L458.911 1279.86 L458.911 1274.47 Z" fill="#000000" fill-rule="nonzero" fill-opacity="1"></path><path clip-path="url(#clip970)" d="M493.633 1294.84 L493.633 1310.49 L489.374 1310.49 L489.374 1294.98 Q489.374 1291.3 487.939 1289.47 Q486.504 1287.64 483.633 1287.64 Q480.184 1287.64 478.193 1289.84 Q476.203 1292.04 476.203 1295.84 L476.203 1310.49 L471.92 1310.49 L471.92 1284.56 L476.203 1284.56 L476.203 1288.59 Q477.73 1286.25 479.791 1285.1 Q481.874 1283.94 484.582 1283.94 Q489.05 1283.94 491.341 1286.72 Q493.633 1289.47 493.633 1294.84 Z" fill="#000000" fill-rule="nonzero" fill-opacity="1"></path><path clip-path="url(#clip970)" d="M524.304 1296.46 L524.304 1298.54 L504.721 1298.54 Q504.999 1302.94 507.36 1305.26 Q509.744 1307.55 513.98 1307.55 Q516.434 1307.55 518.726 1306.95 Q521.04 1306.35 523.309 1305.14 L523.309 1309.17 Q521.017 1310.14 518.61 1310.65 Q516.202 1311.16 513.726 1311.16 Q507.522 1311.16 503.888 1307.55 Q500.277 1303.94 500.277 1297.78 Q500.277 1291.42 503.703 1287.69 Q507.152 1283.94 512.985 1283.94 Q518.216 1283.94 521.249 1287.32 Q524.304 1290.67 524.304 1296.46 M520.045 1295.21 Q519.999 1291.72 518.077 1289.63 Q516.179 1287.55 513.031 1287.55 Q509.466 1287.55 507.314 1289.56 Q505.184 1291.58 504.86 1295.23 L520.045 1295.21 Z" fill="#000000" fill-rule="nonzero" fill-opacity="1"></path><path clip-path="url(#clip970)" d="M253.31 1017.12 L253.31 1021.68 Q250.648 1020.41 248.287 1019.78 Q245.926 1019.16 243.727 1019.16 Q239.908 1019.16 237.824 1020.64 Q235.764 1022.12 235.764 1024.85 Q235.764 1027.14 237.13 1028.33 Q238.519 1029.48 242.361 1030.2 L245.185 1030.78 Q250.417 1031.77 252.894 1034.3 Q255.394 1036.8 255.394 1041.01 Q255.394 1046.03 252.014 1048.63 Q248.658 1051.22 242.153 1051.22 Q239.699 1051.22 236.922 1050.66 Q234.167 1050.11 231.204 1049.02 L231.204 1044.2 Q234.051 1045.8 236.783 1046.61 Q239.514 1047.42 242.153 1047.42 Q246.158 1047.42 248.334 1045.85 Q250.509 1044.27 250.509 1041.36 Q250.509 1038.81 248.935 1037.38 Q247.384 1035.94 243.82 1035.22 L240.972 1034.67 Q235.741 1033.63 233.403 1031.4 Q231.065 1029.18 231.065 1025.22 Q231.065 1020.64 234.283 1018 Q237.523 1015.36 243.195 1015.36 Q245.625 1015.36 248.148 1015.8 Q250.671 1016.24 253.31 1017.12 Z" fill="#000000" fill-rule="nonzero" fill-opacity="1"></path><path clip-path="url(#clip970)" d="M266.713 1017.26 L266.713 1024.62 L275.486 1024.62 L275.486 1027.93 L266.713 1027.93 L266.713 1042.01 Q266.713 1045.18 267.57 1046.08 Q268.449 1046.98 271.111 1046.98 L275.486 1046.98 L275.486 1050.55 L271.111 1050.55 Q266.181 1050.55 264.306 1048.72 Q262.431 1046.87 262.431 1042.01 L262.431 1027.93 L259.306 1027.93 L259.306 1024.62 L262.431 1024.62 L262.431 1017.26 L266.713 1017.26 Z" fill="#000000" fill-rule="nonzero" fill-opacity="1"></path><path clip-path="url(#clip970)" d="M292.87 1037.52 Q287.708 1037.52 285.718 1038.7 Q283.727 1039.88 283.727 1042.72 Q283.727 1044.99 285.208 1046.33 Q286.713 1047.65 289.282 1047.65 Q292.824 1047.65 294.954 1045.15 Q297.106 1042.63 297.106 1038.46 L297.106 1037.52 L292.87 1037.52 M301.366 1035.76 L301.366 1050.55 L297.106 1050.55 L297.106 1046.61 Q295.648 1048.97 293.472 1050.11 Q291.296 1051.22 288.148 1051.22 Q284.167 1051.22 281.806 1049 Q279.468 1046.75 279.468 1043 Q279.468 1038.63 282.384 1036.4 Q285.324 1034.18 291.134 1034.18 L297.106 1034.18 L297.106 1033.77 Q297.106 1030.83 295.162 1029.23 Q293.241 1027.61 289.745 1027.61 Q287.523 1027.61 285.417 1028.14 Q283.31 1028.67 281.366 1029.74 L281.366 1025.8 Q283.704 1024.9 285.903 1024.46 Q288.102 1024 290.185 1024 Q295.81 1024 298.588 1026.91 Q301.366 1029.83 301.366 1035.76 Z" fill="#000000" fill-rule="nonzero" fill-opacity="1"></path><path clip-path="url(#clip970)" d="M314.352 1017.26 L314.352 1024.62 L323.125 1024.62 L323.125 1027.93 L314.352 1027.93 L314.352 1042.01 Q314.352 1045.18 315.208 1046.08 Q316.088 1046.98 318.75 1046.98 L323.125 1046.98 L323.125 1050.55 L318.75 1050.55 Q313.819 1050.55 311.944 1048.72 Q310.069 1046.87 310.069 1042.01 L310.069 1027.93 L306.944 1027.93 L306.944 1024.62 L310.069 1024.62 L310.069 1017.26 L314.352 1017.26 Z" fill="#000000" fill-rule="nonzero" fill-opacity="1"></path><path clip-path="url(#clip970)" d="M328.727 1024.62 L332.986 1024.62 L332.986 1050.55 L328.727 1050.55 L328.727 1024.62 M328.727 1014.53 L332.986 1014.53 L332.986 1019.92 L328.727 1019.92 L328.727 1014.53 Z" fill="#000000" fill-rule="nonzero" fill-opacity="1"></path><path clip-path="url(#clip970)" d="M360.555 1025.62 L360.555 1029.6 Q358.75 1028.6 356.921 1028.12 Q355.115 1027.61 353.264 1027.61 Q349.12 1027.61 346.828 1030.25 Q344.537 1032.86 344.537 1037.61 Q344.537 1042.35 346.828 1044.99 Q349.12 1047.61 353.264 1047.61 Q355.115 1047.61 356.921 1047.12 Q358.75 1046.61 360.555 1045.62 L360.555 1049.55 Q358.773 1050.39 356.851 1050.8 Q354.953 1051.22 352.801 1051.22 Q346.944 1051.22 343.495 1047.54 Q340.046 1043.86 340.046 1037.61 Q340.046 1031.27 343.518 1027.63 Q347.014 1024 353.078 1024 Q355.046 1024 356.921 1024.41 Q358.796 1024.81 360.555 1025.62 Z" fill="#000000" fill-rule="nonzero" fill-opacity="1"></path><path clip-path="url(#clip970)" d="M387.245 1017.26 L387.245 1024.62 L396.018 1024.62 L396.018 1027.93 L387.245 1027.93 L387.245 1042.01 Q387.245 1045.18 388.101 1046.08 Q388.981 1046.98 391.643 1046.98 L396.018 1046.98 L396.018 1050.55 L391.643 1050.55 Q386.712 1050.55 384.837 1048.72 Q382.962 1046.87 382.962 1042.01 L382.962 1027.93 L379.837 1027.93 L379.837 1024.62 L382.962 1024.62 L382.962 1017.26 L387.245 1017.26 Z" fill="#000000" fill-rule="nonzero" fill-opacity="1"></path><path clip-path="url(#clip970)" d="M412.407 1052.95 Q410.601 1057.58 408.888 1059 Q407.175 1060.41 404.305 1060.41 L400.902 1060.41 L400.902 1056.84 L403.402 1056.84 Q405.161 1056.84 406.134 1056.01 Q407.106 1055.18 408.286 1052.08 L409.05 1050.13 L398.564 1024.62 L403.078 1024.62 L411.18 1044.9 L419.282 1024.62 L423.796 1024.62 L412.407 1052.95 Z" fill="#000000" fill-rule="nonzero" fill-opacity="1"></path><path clip-path="url(#clip970)" d="M433.795 1046.66 L433.795 1060.41 L429.513 1060.41 L429.513 1024.62 L433.795 1024.62 L433.795 1028.56 Q435.138 1026.24 437.175 1025.13 Q439.235 1024 442.082 1024 Q446.805 1024 449.744 1027.75 Q452.707 1031.5 452.707 1037.61 Q452.707 1043.72 449.744 1047.47 Q446.805 1051.22 442.082 1051.22 Q439.235 1051.22 437.175 1050.11 Q435.138 1048.97 433.795 1046.66 M448.286 1037.61 Q448.286 1032.91 446.342 1030.25 Q444.42 1027.56 441.041 1027.56 Q437.661 1027.56 435.717 1030.25 Q433.795 1032.91 433.795 1037.61 Q433.795 1042.31 435.717 1044.99 Q437.661 1047.65 441.041 1047.65 Q444.42 1047.65 446.342 1044.99 Q448.286 1042.31 448.286 1037.61 Z" fill="#000000" fill-rule="nonzero" fill-opacity="1"></path><path clip-path="url(#clip970)" d="M459.768 1024.62 L464.027 1024.62 L464.027 1050.55 L459.768 1050.55 L459.768 1024.62 M459.768 1014.53 L464.027 1014.53 L464.027 1019.92 L459.768 1019.92 L459.768 1014.53 Z" fill="#000000" fill-rule="nonzero" fill-opacity="1"></path><path clip-path="url(#clip970)" d="M494.49 1034.9 L494.49 1050.55 L490.23 1050.55 L490.23 1035.04 Q490.23 1031.36 488.795 1029.53 Q487.36 1027.7 484.49 1027.7 Q481.041 1027.7 479.05 1029.9 Q477.059 1032.1 477.059 1035.89 L477.059 1050.55 L472.777 1050.55 L472.777 1024.62 L477.059 1024.62 L477.059 1028.65 Q478.587 1026.31 480.647 1025.15 Q482.73 1024 485.439 1024 Q489.906 1024 492.198 1026.77 Q494.49 1029.53 494.49 1034.9 Z" fill="#000000" fill-rule="nonzero" fill-opacity="1"></path><path clip-path="url(#clip970)" d="M520.045 1037.28 Q520.045 1032.65 518.124 1030.11 Q516.226 1027.56 512.777 1027.56 Q509.351 1027.56 507.429 1030.11 Q505.531 1032.65 505.531 1037.28 Q505.531 1041.89 507.429 1044.44 Q509.351 1046.98 512.777 1046.98 Q516.226 1046.98 518.124 1044.44 Q520.045 1041.89 520.045 1037.28 M524.304 1047.33 Q524.304 1053.95 521.364 1057.17 Q518.425 1060.41 512.36 1060.41 Q510.115 1060.41 508.124 1060.06 Q506.133 1059.74 504.258 1059.04 L504.258 1054.9 Q506.133 1055.92 507.962 1056.4 Q509.79 1056.89 511.689 1056.89 Q515.878 1056.89 517.962 1054.69 Q520.045 1052.52 520.045 1048.09 L520.045 1045.99 Q518.726 1048.28 516.665 1049.41 Q514.605 1050.55 511.735 1050.55 Q506.966 1050.55 504.05 1046.91 Q501.133 1043.28 501.133 1037.28 Q501.133 1031.27 504.05 1027.63 Q506.966 1024 511.735 1024 Q514.605 1024 516.665 1025.13 Q518.726 1026.27 520.045 1028.56 L520.045 1024.62 L524.304 1024.62 L524.304 1047.33 Z" fill="#000000" fill-rule="nonzero" fill-opacity="1"></path><path clip-path="url(#clip970)" d="M188.681 756.046 L195.649 756.046 L204.468 779.564 L213.334 756.046 L220.301 756.046 L220.301 790.606 L215.741 790.606 L215.741 760.259 L206.829 783.963 L202.13 783.963 L193.218 760.259 L193.218 790.606 L188.681 790.606 L188.681 756.046 Z" fill="#000000" fill-rule="nonzero" fill-opacity="1"></path><path clip-path="url(#clip970)" d="M228.959 780.375 L228.959 764.68 L233.218 764.68 L233.218 780.213 Q233.218 783.893 234.653 785.745 Q236.088 787.574 238.959 787.574 Q242.408 787.574 244.398 785.375 Q246.412 783.175 246.412 779.379 L246.412 764.68 L250.671 764.68 L250.671 790.606 L246.412 790.606 L246.412 786.625 Q244.861 788.986 242.801 790.143 Q240.764 791.277 238.056 791.277 Q233.588 791.277 231.273 788.5 Q228.959 785.722 228.959 780.375 M239.676 764.055 L239.676 764.055 Z" fill="#000000" fill-rule="nonzero" fill-opacity="1"></path><path clip-path="url(#clip970)" d="M259.445 754.588 L263.704 754.588 L263.704 790.606 L259.445 790.606 L259.445 754.588 Z" fill="#000000" fill-rule="nonzero" fill-opacity="1"></path><path clip-path="url(#clip970)" d="M276.829 757.319 L276.829 764.68 L285.602 764.68 L285.602 767.99 L276.829 767.99 L276.829 782.064 Q276.829 785.236 277.685 786.138 Q278.565 787.041 281.227 787.041 L285.602 787.041 L285.602 790.606 L281.227 790.606 Q276.296 790.606 274.421 788.777 Q272.546 786.925 272.546 782.064 L272.546 767.99 L269.421 767.99 L269.421 764.68 L272.546 764.68 L272.546 757.319 L276.829 757.319 Z" fill="#000000" fill-rule="nonzero" fill-opacity="1"></path><path clip-path="url(#clip970)" d="M291.204 764.68 L295.463 764.68 L295.463 790.606 L291.204 790.606 L291.204 764.68 M291.204 754.588 L295.463 754.588 L295.463 759.981 L291.204 759.981 L291.204 754.588 Z" fill="#000000" fill-rule="nonzero" fill-opacity="1"></path><path clip-path="url(#clip970)" d="M308.588 757.319 L308.588 764.68 L317.361 764.68 L317.361 767.99 L308.588 767.99 L308.588 782.064 Q308.588 785.236 309.444 786.138 Q310.324 787.041 312.986 787.041 L317.361 787.041 L317.361 790.606 L312.986 790.606 Q308.055 790.606 306.18 788.777 Q304.305 786.925 304.305 782.064 L304.305 767.99 L301.18 767.99 L301.18 764.68 L304.305 764.68 L304.305 757.319 L308.588 757.319 Z" fill="#000000" fill-rule="nonzero" fill-opacity="1"></path><path clip-path="url(#clip970)" d="M344.514 774.958 L344.514 790.606 L340.254 790.606 L340.254 775.097 Q340.254 771.416 338.819 769.588 Q337.384 767.759 334.514 767.759 Q331.065 767.759 329.074 769.958 Q327.083 772.157 327.083 775.953 L327.083 790.606 L322.801 790.606 L322.801 754.588 L327.083 754.588 L327.083 768.708 Q328.611 766.37 330.671 765.213 Q332.754 764.055 335.463 764.055 Q339.93 764.055 342.222 766.833 Q344.514 769.588 344.514 774.958 Z" fill="#000000" fill-rule="nonzero" fill-opacity="1"></path><path clip-path="url(#clip970)" d="M368.032 768.662 Q367.314 768.245 366.458 768.06 Q365.625 767.851 364.606 767.851 Q360.995 767.851 359.051 770.213 Q357.129 772.551 357.129 776.949 L357.129 790.606 L352.847 790.606 L352.847 764.68 L357.129 764.68 L357.129 768.708 Q358.472 766.347 360.625 765.213 Q362.777 764.055 365.856 764.055 Q366.296 764.055 366.828 764.125 Q367.361 764.171 368.009 764.287 L368.032 768.662 Z" fill="#000000" fill-rule="nonzero" fill-opacity="1"></path><path clip-path="url(#clip970)" d="M393.634 776.578 L393.634 778.662 L374.05 778.662 Q374.328 783.06 376.689 785.375 Q379.074 787.666 383.31 787.666 Q385.763 787.666 388.055 787.064 Q390.37 786.462 392.638 785.259 L392.638 789.287 Q390.347 790.259 387.939 790.768 Q385.532 791.277 383.055 791.277 Q376.851 791.277 373.217 787.666 Q369.606 784.055 369.606 777.898 Q369.606 771.532 373.032 767.805 Q376.481 764.055 382.314 764.055 Q387.546 764.055 390.578 767.435 Q393.634 770.791 393.634 776.578 M389.374 775.328 Q389.328 771.833 387.407 769.75 Q385.509 767.666 382.361 767.666 Q378.796 767.666 376.643 769.68 Q374.513 771.694 374.189 775.351 L389.374 775.328 Z" fill="#000000" fill-rule="nonzero" fill-opacity="1"></path><path clip-path="url(#clip970)" d="M412.407 777.574 Q407.245 777.574 405.254 778.754 Q403.263 779.935 403.263 782.782 Q403.263 785.05 404.745 786.393 Q406.249 787.712 408.819 787.712 Q412.36 787.712 414.49 785.212 Q416.643 782.689 416.643 778.523 L416.643 777.574 L412.407 777.574 M420.902 775.814 L420.902 790.606 L416.643 790.606 L416.643 786.671 Q415.184 789.032 413.009 790.166 Q410.833 791.277 407.685 791.277 Q403.703 791.277 401.342 789.055 Q399.004 786.81 399.004 783.06 Q399.004 778.685 401.921 776.463 Q404.86 774.24 410.671 774.24 L416.643 774.24 L416.643 773.824 Q416.643 770.884 414.698 769.287 Q412.777 767.666 409.282 767.666 Q407.06 767.666 404.953 768.199 Q402.847 768.731 400.902 769.796 L400.902 765.861 Q403.24 764.958 405.439 764.518 Q407.638 764.055 409.722 764.055 Q415.347 764.055 418.124 766.972 Q420.902 769.889 420.902 775.814 Z" fill="#000000" fill-rule="nonzero" fill-opacity="1"></path><path clip-path="url(#clip970)" d="M446.735 768.615 L446.735 754.588 L450.994 754.588 L450.994 790.606 L446.735 790.606 L446.735 786.717 Q445.393 789.032 443.332 790.166 Q441.295 791.277 438.425 791.277 Q433.726 791.277 430.763 787.527 Q427.823 783.777 427.823 777.666 Q427.823 771.555 430.763 767.805 Q433.726 764.055 438.425 764.055 Q441.295 764.055 443.332 765.189 Q445.393 766.301 446.735 768.615 M432.221 777.666 Q432.221 782.365 434.143 785.05 Q436.087 787.712 439.467 787.712 Q442.846 787.712 444.791 785.05 Q446.735 782.365 446.735 777.666 Q446.735 772.967 444.791 770.305 Q442.846 767.62 439.467 767.62 Q436.087 767.62 434.143 770.305 Q432.221 772.967 432.221 777.666 Z" fill="#000000" fill-rule="nonzero" fill-opacity="1"></path><path clip-path="url(#clip970)" d="M459.768 764.68 L464.027 764.68 L464.027 790.606 L459.768 790.606 L459.768 764.68 M459.768 754.588 L464.027 754.588 L464.027 759.981 L459.768 759.981 L459.768 754.588 Z" fill="#000000" fill-rule="nonzero" fill-opacity="1"></path><path clip-path="url(#clip970)" d="M494.49 774.958 L494.49 790.606 L490.23 790.606 L490.23 775.097 Q490.23 771.416 488.795 769.588 Q487.36 767.759 484.49 767.759 Q481.041 767.759 479.05 769.958 Q477.059 772.157 477.059 775.953 L477.059 790.606 L472.777 790.606 L472.777 764.68 L477.059 764.68 L477.059 768.708 Q478.587 766.37 480.647 765.213 Q482.73 764.055 485.439 764.055 Q489.906 764.055 492.198 766.833 Q494.49 769.588 494.49 774.958 Z" fill="#000000" fill-rule="nonzero" fill-opacity="1"></path><path clip-path="url(#clip970)" d="M520.045 777.342 Q520.045 772.713 518.124 770.166 Q516.226 767.62 512.777 767.62 Q509.351 767.62 507.429 770.166 Q505.531 772.713 505.531 777.342 Q505.531 781.949 507.429 784.495 Q509.351 787.041 512.777 787.041 Q516.226 787.041 518.124 784.495 Q520.045 781.949 520.045 777.342 M524.304 787.388 Q524.304 794.009 521.364 797.226 Q518.425 800.467 512.36 800.467 Q510.115 800.467 508.124 800.12 Q506.133 799.796 504.258 799.101 L504.258 794.958 Q506.133 795.976 507.962 796.462 Q509.79 796.949 511.689 796.949 Q515.878 796.949 517.962 794.749 Q520.045 792.574 520.045 788.152 L520.045 786.046 Q518.726 788.337 516.665 789.472 Q514.605 790.606 511.735 790.606 Q506.966 790.606 504.05 786.972 Q501.133 783.338 501.133 777.342 Q501.133 771.324 504.05 767.689 Q506.966 764.055 511.735 764.055 Q514.605 764.055 516.665 765.189 Q518.726 766.324 520.045 768.615 L520.045 764.68 L524.304 764.68 L524.304 787.388 Z" fill="#000000" fill-rule="nonzero" fill-opacity="1"></path><path clip-path="url(#clip970)" d="M114.26 496.104 L118.936 496.104 L118.936 510.271 L135.927 510.271 L135.927 496.104 L140.603 496.104 L140.603 530.664 L135.927 530.664 L135.927 514.206 L118.936 514.206 L118.936 530.664 L114.26 530.664 L114.26 496.104 Z" fill="#000000" fill-rule="nonzero" fill-opacity="1"></path><path clip-path="url(#clip970)" d="M161.505 517.632 Q156.343 517.632 154.353 518.813 Q152.362 519.993 152.362 522.84 Q152.362 525.109 153.843 526.452 Q155.348 527.771 157.917 527.771 Q161.459 527.771 163.589 525.271 Q165.741 522.748 165.741 518.581 L165.741 517.632 L161.505 517.632 M170.001 515.873 L170.001 530.664 L165.741 530.664 L165.741 526.729 Q164.283 529.09 162.107 530.225 Q159.931 531.336 156.783 531.336 Q152.802 531.336 150.441 529.114 Q148.103 526.868 148.103 523.118 Q148.103 518.743 151.019 516.521 Q153.959 514.299 159.769 514.299 L165.741 514.299 L165.741 513.882 Q165.741 510.942 163.797 509.345 Q161.876 507.725 158.38 507.725 Q156.158 507.725 154.052 508.257 Q151.945 508.79 150.001 509.854 L150.001 505.919 Q152.339 505.016 154.538 504.577 Q156.737 504.114 158.82 504.114 Q164.445 504.114 167.223 507.03 Q170.001 509.947 170.001 515.873 Z" fill="#000000" fill-rule="nonzero" fill-opacity="1"></path><path clip-path="url(#clip970)" d="M200.325 515.016 L200.325 530.664 L196.065 530.664 L196.065 515.155 Q196.065 511.475 194.63 509.646 Q193.195 507.817 190.325 507.817 Q186.876 507.817 184.885 510.016 Q182.894 512.215 182.894 516.012 L182.894 530.664 L178.612 530.664 L178.612 504.739 L182.894 504.739 L182.894 508.766 Q184.422 506.428 186.482 505.271 Q188.565 504.114 191.274 504.114 Q195.741 504.114 198.033 506.891 Q200.325 509.646 200.325 515.016 Z" fill="#000000" fill-rule="nonzero" fill-opacity="1"></path><path clip-path="url(#clip970)" d="M208.658 494.646 L212.94 494.646 L212.94 515.919 L225.648 504.739 L231.088 504.739 L217.338 516.868 L231.667 530.664 L226.111 530.664 L212.94 518.002 L212.94 530.664 L208.658 530.664 L208.658 494.646 Z" fill="#000000" fill-rule="nonzero" fill-opacity="1"></path><path clip-path="url(#clip970)" d="M256.759 516.637 L256.759 518.72 L237.176 518.72 Q237.454 523.118 239.815 525.433 Q242.199 527.725 246.435 527.725 Q248.889 527.725 251.181 527.123 Q253.496 526.521 255.764 525.317 L255.764 529.345 Q253.472 530.317 251.065 530.826 Q248.658 531.336 246.181 531.336 Q239.977 531.336 236.343 527.725 Q232.732 524.114 232.732 517.956 Q232.732 511.59 236.158 507.864 Q239.607 504.114 245.44 504.114 Q250.671 504.114 253.704 507.493 Q256.759 510.85 256.759 516.637 M252.5 515.387 Q252.454 511.891 250.533 509.808 Q248.634 507.725 245.486 507.725 Q241.922 507.725 239.769 509.739 Q237.639 511.753 237.315 515.41 L252.5 515.387 Z" fill="#000000" fill-rule="nonzero" fill-opacity="1"></path><path clip-path="url(#clip970)" d="M263.75 494.646 L268.009 494.646 L268.009 530.664 L263.75 530.664 L263.75 494.646 Z" fill="#000000" fill-rule="nonzero" fill-opacity="1"></path><path clip-path="url(#clip970)" d="M296.204 497.378 L296.204 504.739 L304.977 504.739 L304.977 508.049 L296.204 508.049 L296.204 522.123 Q296.204 525.294 297.06 526.197 Q297.94 527.1 300.602 527.1 L304.977 527.1 L304.977 530.664 L300.602 530.664 Q295.671 530.664 293.796 528.836 Q291.921 526.984 291.921 522.123 L291.921 508.049 L288.796 508.049 L288.796 504.739 L291.921 504.739 L291.921 497.378 L296.204 497.378 Z" fill="#000000" fill-rule="nonzero" fill-opacity="1"></path><path clip-path="url(#clip970)" d="M322.361 517.632 Q317.199 517.632 315.208 518.813 Q313.217 519.993 313.217 522.84 Q313.217 525.109 314.699 526.452 Q316.204 527.771 318.773 527.771 Q322.315 527.771 324.444 525.271 Q326.597 522.748 326.597 518.581 L326.597 517.632 L322.361 517.632 M330.856 515.873 L330.856 530.664 L326.597 530.664 L326.597 526.729 Q325.139 529.09 322.963 530.225 Q320.787 531.336 317.639 531.336 Q313.657 531.336 311.296 529.114 Q308.958 526.868 308.958 523.118 Q308.958 518.743 311.875 516.521 Q314.815 514.299 320.625 514.299 L326.597 514.299 L326.597 513.882 Q326.597 510.942 324.653 509.345 Q322.731 507.725 319.236 507.725 Q317.014 507.725 314.907 508.257 Q312.801 508.79 310.856 509.854 L310.856 505.919 Q313.194 505.016 315.393 504.577 Q317.592 504.114 319.676 504.114 Q325.301 504.114 328.078 507.03 Q330.856 509.947 330.856 515.873 Z" fill="#000000" fill-rule="nonzero" fill-opacity="1"></path><path clip-path="url(#clip970)" d="M358.24 517.725 Q358.24 513.026 356.296 510.364 Q354.375 507.678 350.995 507.678 Q347.615 507.678 345.671 510.364 Q343.75 513.026 343.75 517.725 Q343.75 522.424 345.671 525.109 Q347.615 527.771 350.995 527.771 Q354.375 527.771 356.296 525.109 Q358.24 522.424 358.24 517.725 M343.75 508.674 Q345.092 506.359 347.129 505.248 Q349.189 504.114 352.037 504.114 Q356.759 504.114 359.699 507.864 Q362.662 511.614 362.662 517.725 Q362.662 523.836 359.699 527.586 Q356.759 531.336 352.037 531.336 Q349.189 531.336 347.129 530.225 Q345.092 529.09 343.75 526.776 L343.75 530.664 L339.467 530.664 L339.467 494.646 L343.75 494.646 L343.75 508.674 Z" fill="#000000" fill-rule="nonzero" fill-opacity="1"></path><path clip-path="url(#clip970)" d="M369.282 520.433 L369.282 504.739 L373.541 504.739 L373.541 520.271 Q373.541 523.952 374.976 525.803 Q376.412 527.632 379.282 527.632 Q382.731 527.632 384.722 525.433 Q386.736 523.234 386.736 519.438 L386.736 504.739 L390.995 504.739 L390.995 530.664 L386.736 530.664 L386.736 526.683 Q385.185 529.044 383.124 530.201 Q381.087 531.336 378.379 531.336 Q373.912 531.336 371.597 528.558 Q369.282 525.78 369.282 520.433 M379.999 504.114 L379.999 504.114 Z" fill="#000000" fill-rule="nonzero" fill-opacity="1"></path><path clip-path="url(#clip970)" d="M399.768 494.646 L404.027 494.646 L404.027 530.664 L399.768 530.664 L399.768 494.646 Z" fill="#000000" fill-rule="nonzero" fill-opacity="1"></path><path clip-path="url(#clip970)" d="M424.721 517.632 Q419.559 517.632 417.569 518.813 Q415.578 519.993 415.578 522.84 Q415.578 525.109 417.059 526.452 Q418.564 527.771 421.134 527.771 Q424.675 527.771 426.805 525.271 Q428.958 522.748 428.958 518.581 L428.958 517.632 L424.721 517.632 M433.217 515.873 L433.217 530.664 L428.958 530.664 L428.958 526.729 Q427.499 529.09 425.323 530.225 Q423.147 531.336 419.999 531.336 Q416.018 531.336 413.657 529.114 Q411.319 526.868 411.319 523.118 Q411.319 518.743 414.235 516.521 Q417.175 514.299 422.985 514.299 L428.958 514.299 L428.958 513.882 Q428.958 510.942 427.013 509.345 Q425.092 507.725 421.596 507.725 Q419.374 507.725 417.268 508.257 Q415.161 508.79 413.217 509.854 L413.217 505.919 Q415.555 505.016 417.754 504.577 Q419.953 504.114 422.036 504.114 Q427.661 504.114 430.439 507.03 Q433.217 509.947 433.217 515.873 Z" fill="#000000" fill-rule="nonzero" fill-opacity="1"></path><path clip-path="url(#clip970)" d="M446.203 497.378 L446.203 504.739 L454.976 504.739 L454.976 508.049 L446.203 508.049 L446.203 522.123 Q446.203 525.294 447.059 526.197 Q447.939 527.1 450.601 527.1 L454.976 527.1 L454.976 530.664 L450.601 530.664 Q445.67 530.664 443.795 528.836 Q441.92 526.984 441.92 522.123 L441.92 508.049 L438.795 508.049 L438.795 504.739 L441.92 504.739 L441.92 497.378 L446.203 497.378 Z" fill="#000000" fill-rule="nonzero" fill-opacity="1"></path><path clip-path="url(#clip970)" d="M460.578 504.739 L464.837 504.739 L464.837 530.664 L460.578 530.664 L460.578 504.739 M460.578 494.646 L464.837 494.646 L464.837 500.04 L460.578 500.04 L460.578 494.646 Z" fill="#000000" fill-rule="nonzero" fill-opacity="1"></path><path clip-path="url(#clip970)" d="M483.795 507.725 Q480.369 507.725 478.379 510.41 Q476.388 513.072 476.388 517.725 Q476.388 522.377 478.355 525.063 Q480.346 527.725 483.795 527.725 Q487.198 527.725 489.189 525.039 Q491.179 522.354 491.179 517.725 Q491.179 513.118 489.189 510.433 Q487.198 507.725 483.795 507.725 M483.795 504.114 Q489.351 504.114 492.522 507.725 Q495.693 511.336 495.693 517.725 Q495.693 524.09 492.522 527.725 Q489.351 531.336 483.795 531.336 Q478.217 531.336 475.045 527.725 Q471.897 524.09 471.897 517.725 Q471.897 511.336 475.045 507.725 Q478.217 504.114 483.795 504.114 Z" fill="#000000" fill-rule="nonzero" fill-opacity="1"></path><path clip-path="url(#clip970)" d="M524.304 515.016 L524.304 530.664 L520.045 530.664 L520.045 515.155 Q520.045 511.475 518.61 509.646 Q517.175 507.817 514.304 507.817 Q510.855 507.817 508.865 510.016 Q506.874 512.215 506.874 516.012 L506.874 530.664 L502.591 530.664 L502.591 504.739 L506.874 504.739 L506.874 508.766 Q508.402 506.428 510.462 505.271 Q512.545 504.114 515.253 504.114 Q519.721 504.114 522.013 506.891 Q524.304 509.646 524.304 515.016 Z" fill="#000000" fill-rule="nonzero" fill-opacity="1"></path><path clip-path="url(#clip970)" d="M168.774 236.163 L173.45 236.163 L173.45 250.769 L188.959 236.163 L194.977 236.163 L177.825 252.274 L196.204 270.723 L190.047 270.723 L173.45 254.079 L173.45 270.723 L168.774 270.723 L168.774 236.163 Z" fill="#000000" fill-rule="nonzero" fill-opacity="1"></path><path clip-path="url(#clip970)" d="M214.699 248.779 Q213.982 248.362 213.125 248.177 Q212.292 247.968 211.274 247.968 Q207.662 247.968 205.718 250.329 Q203.797 252.667 203.797 257.066 L203.797 270.723 L199.514 270.723 L199.514 244.797 L203.797 244.797 L203.797 248.825 Q205.139 246.464 207.292 245.33 Q209.445 244.172 212.524 244.172 Q212.963 244.172 213.496 244.242 Q214.028 244.288 214.676 244.404 L214.699 248.779 Z" fill="#000000" fill-rule="nonzero" fill-opacity="1"></path><path clip-path="url(#clip970)" d="M229.954 273.13 Q228.148 277.76 226.435 279.172 Q224.723 280.584 221.852 280.584 L218.449 280.584 L218.449 277.019 L220.949 277.019 Q222.709 277.019 223.681 276.186 Q224.653 275.353 225.834 272.251 L226.598 270.306 L216.111 244.797 L220.625 244.797 L228.727 265.075 L236.829 244.797 L241.343 244.797 L229.954 273.13 Z" fill="#000000" fill-rule="nonzero" fill-opacity="1"></path><path clip-path="url(#clip970)" d="M247.222 234.705 L251.482 234.705 L251.482 270.723 L247.222 270.723 L247.222 234.705 Z" fill="#000000" fill-rule="nonzero" fill-opacity="1"></path><path clip-path="url(#clip970)" d="M270.44 247.783 Q267.014 247.783 265.023 250.468 Q263.033 253.13 263.033 257.783 Q263.033 262.436 265 265.121 Q266.991 267.783 270.44 267.783 Q273.843 267.783 275.833 265.098 Q277.824 262.413 277.824 257.783 Q277.824 253.177 275.833 250.492 Q273.843 247.783 270.44 247.783 M270.44 244.172 Q275.995 244.172 279.167 247.783 Q282.338 251.394 282.338 257.783 Q282.338 264.149 279.167 267.783 Q275.995 271.394 270.44 271.394 Q264.861 271.394 261.69 267.783 Q258.542 264.149 258.542 257.783 Q258.542 251.394 261.69 247.783 Q264.861 244.172 270.44 244.172 Z" fill="#000000" fill-rule="nonzero" fill-opacity="1"></path><path clip-path="url(#clip970)" d="M286.343 244.797 L290.856 244.797 L298.958 266.556 L307.06 244.797 L311.574 244.797 L301.852 270.723 L296.065 270.723 L286.343 244.797 Z" fill="#000000" fill-rule="nonzero" fill-opacity="1"></path><path clip-path="url(#clip970)" d="M332.523 244.797 L336.782 244.797 L336.782 270.723 L332.523 270.723 L332.523 244.797 M332.523 234.705 L336.782 234.705 L336.782 240.098 L332.523 240.098 L332.523 234.705 Z" fill="#000000" fill-rule="nonzero" fill-opacity="1"></path><path clip-path="url(#clip970)" d="M349.907 237.436 L349.907 244.797 L358.68 244.797 L358.68 248.107 L349.907 248.107 L349.907 262.181 Q349.907 265.353 350.764 266.255 Q351.643 267.158 354.305 267.158 L358.68 267.158 L358.68 270.723 L354.305 270.723 Q349.375 270.723 347.5 268.894 Q345.625 267.042 345.625 262.181 L345.625 248.107 L342.5 248.107 L342.5 244.797 L345.625 244.797 L345.625 237.436 L349.907 237.436 Z" fill="#000000" fill-rule="nonzero" fill-opacity="1"></path><path clip-path="url(#clip970)" d="M386.458 256.695 L386.458 258.779 L366.875 258.779 Q367.152 263.177 369.513 265.491 Q371.898 267.783 376.134 267.783 Q378.587 267.783 380.879 267.181 Q383.194 266.579 385.462 265.376 L385.462 269.403 Q383.171 270.376 380.763 270.885 Q378.356 271.394 375.879 271.394 Q369.675 271.394 366.041 267.783 Q362.43 264.172 362.43 258.015 Q362.43 251.649 365.856 247.922 Q369.305 244.172 375.138 244.172 Q380.37 244.172 383.402 247.552 Q386.458 250.908 386.458 256.695 M382.199 255.445 Q382.152 251.95 380.231 249.867 Q378.333 247.783 375.185 247.783 Q371.62 247.783 369.467 249.797 Q367.338 251.811 367.013 255.468 L382.199 255.445 Z" fill="#000000" fill-rule="nonzero" fill-opacity="1"></path><path clip-path="url(#clip970)" d="M408.472 248.779 Q407.754 248.362 406.897 248.177 Q406.064 247.968 405.046 247.968 Q401.435 247.968 399.49 250.329 Q397.569 252.667 397.569 257.066 L397.569 270.723 L393.286 270.723 L393.286 244.797 L397.569 244.797 L397.569 248.825 Q398.911 246.464 401.064 245.33 Q403.217 244.172 406.296 244.172 Q406.735 244.172 407.268 244.242 Q407.8 244.288 408.448 244.404 L408.472 248.779 Z" fill="#000000" fill-rule="nonzero" fill-opacity="1"></path><path clip-path="url(#clip970)" d="M424.721 257.691 Q419.559 257.691 417.569 258.871 Q415.578 260.052 415.578 262.899 Q415.578 265.167 417.059 266.51 Q418.564 267.829 421.134 267.829 Q424.675 267.829 426.805 265.329 Q428.958 262.806 428.958 258.64 L428.958 257.691 L424.721 257.691 M433.217 255.931 L433.217 270.723 L428.958 270.723 L428.958 266.788 Q427.499 269.149 425.323 270.283 Q423.147 271.394 419.999 271.394 Q416.018 271.394 413.657 269.172 Q411.319 266.927 411.319 263.177 Q411.319 258.802 414.235 256.579 Q417.175 254.357 422.985 254.357 L428.958 254.357 L428.958 253.941 Q428.958 251.001 427.013 249.404 Q425.092 247.783 421.596 247.783 Q419.374 247.783 417.268 248.316 Q415.161 248.848 413.217 249.913 L413.217 245.978 Q415.555 245.075 417.754 244.635 Q419.953 244.172 422.036 244.172 Q427.661 244.172 430.439 247.089 Q433.217 250.005 433.217 255.931 Z" fill="#000000" fill-rule="nonzero" fill-opacity="1"></path><path clip-path="url(#clip970)" d="M446.203 237.436 L446.203 244.797 L454.976 244.797 L454.976 248.107 L446.203 248.107 L446.203 262.181 Q446.203 265.353 447.059 266.255 Q447.939 267.158 450.601 267.158 L454.976 267.158 L454.976 270.723 L450.601 270.723 Q445.67 270.723 443.795 268.894 Q441.92 267.042 441.92 262.181 L441.92 248.107 L438.795 248.107 L438.795 244.797 L441.92 244.797 L441.92 237.436 L446.203 237.436 Z" fill="#000000" fill-rule="nonzero" fill-opacity="1"></path><path clip-path="url(#clip970)" d="M460.578 244.797 L464.837 244.797 L464.837 270.723 L460.578 270.723 L460.578 244.797 M460.578 234.705 L464.837 234.705 L464.837 240.098 L460.578 240.098 L460.578 234.705 Z" fill="#000000" fill-rule="nonzero" fill-opacity="1"></path><path clip-path="url(#clip970)" d="M483.795 247.783 Q480.369 247.783 478.379 250.468 Q476.388 253.13 476.388 257.783 Q476.388 262.436 478.355 265.121 Q480.346 267.783 483.795 267.783 Q487.198 267.783 489.189 265.098 Q491.179 262.413 491.179 257.783 Q491.179 253.177 489.189 250.492 Q487.198 247.783 483.795 247.783 M483.795 244.172 Q489.351 244.172 492.522 247.783 Q495.693 251.394 495.693 257.783 Q495.693 264.149 492.522 267.783 Q489.351 271.394 483.795 271.394 Q478.217 271.394 475.045 267.783 Q471.897 264.149 471.897 257.783 Q471.897 251.394 475.045 247.783 Q478.217 244.172 483.795 244.172 Z" fill="#000000" fill-rule="nonzero" fill-opacity="1"></path><path clip-path="url(#clip970)" d="M524.304 255.075 L524.304 270.723 L520.045 270.723 L520.045 255.214 Q520.045 251.533 518.61 249.704 Q517.175 247.876 514.304 247.876 Q510.855 247.876 508.865 250.075 Q506.874 252.274 506.874 256.07 L506.874 270.723 L502.591 270.723 L502.591 244.797 L506.874 244.797 L506.874 248.825 Q508.402 246.487 510.462 245.33 Q512.545 244.172 515.253 244.172 Q519.721 244.172 522.013 246.95 Q524.304 249.704 524.304 255.075 Z" fill="#000000" fill-rule="nonzero" fill-opacity="1"></path><path clip-path="url(#clip970)" d="M20.8447 955.067 Q20.8447 962.069 26.0645 966.207 Q31.2844 970.313 40.2919 970.313 Q49.2675 970.313 54.4874 966.207 Q59.7073 962.069 59.7073 955.067 Q59.7073 948.065 54.4874 943.991 Q49.2675 939.885 40.2919 939.885 Q31.2844 939.885 26.0645 943.991 Q20.8447 948.065 20.8447 955.067 M15.6248 955.067 Q15.6248 945.073 22.3406 939.089 Q29.0246 933.105 40.2919 933.105 Q51.5274 933.105 58.2432 939.089 Q64.9272 945.073 64.9272 955.067 Q64.9272 965.093 58.2432 971.108 Q51.5592 977.092 40.2919 977.092 Q29.0246 977.092 22.3406 971.108 Q15.6248 965.093 15.6248 955.067 Z" fill="#000000" fill-rule="nonzero" fill-opacity="1"></path><path clip-path="url(#clip970)" d="M58.657 917.637 L77.5631 917.637 L77.5631 923.525 L28.3562 923.525 L28.3562 917.637 L33.7671 917.637 Q30.5842 915.79 29.0564 912.99 Q27.4968 910.157 27.4968 906.242 Q27.4968 899.749 32.6531 895.707 Q37.8093 891.633 46.212 891.633 Q54.6147 891.633 59.771 895.707 Q64.9272 899.749 64.9272 906.242 Q64.9272 910.157 63.3994 912.99 Q61.8398 915.79 58.657 917.637 M46.212 897.712 Q39.7508 897.712 36.0905 900.385 Q32.3984 903.027 32.3984 907.674 Q32.3984 912.321 36.0905 914.995 Q39.7508 917.637 46.212 917.637 Q52.6732 917.637 56.3653 914.995 Q60.0256 912.321 60.0256 907.674 Q60.0256 903.027 56.3653 900.385 Q52.6732 897.712 46.212 897.712 Z" fill="#000000" fill-rule="nonzero" fill-opacity="1"></path><path clip-path="url(#clip970)" d="M18.2347 876.132 L28.3562 876.132 L28.3562 864.069 L32.9077 864.069 L32.9077 876.132 L52.2594 876.132 Q56.6199 876.132 57.8613 874.954 Q59.1026 873.745 59.1026 870.085 L59.1026 864.069 L64.0042 864.069 L64.0042 870.085 Q64.0042 876.864 61.4897 879.442 Q58.9434 882.02 52.2594 882.02 L32.9077 882.02 L32.9077 886.317 L28.3562 886.317 L28.3562 882.02 L18.2347 882.02 L18.2347 876.132 Z" fill="#000000" fill-rule="nonzero" fill-opacity="1"></path><path clip-path="url(#clip970)" d="M28.3562 856.367 L28.3562 850.51 L64.0042 850.51 L64.0042 856.367 L28.3562 856.367 M14.479 856.367 L14.479 850.51 L21.895 850.51 L21.895 856.367 L14.479 856.367 Z" fill="#000000" fill-rule="nonzero" fill-opacity="1"></path><path clip-path="url(#clip970)" d="M35.1993 810.502 Q31.2526 808.306 29.3747 805.25 Q27.4968 802.194 27.4968 798.057 Q27.4968 792.487 31.4117 789.463 Q35.2948 786.439 42.4881 786.439 L64.0042 786.439 L64.0042 792.328 L42.679 792.328 Q37.5546 792.328 35.072 794.142 Q32.5894 795.956 32.5894 799.68 Q32.5894 804.231 35.6131 806.873 Q38.6368 809.515 43.8567 809.515 L64.0042 809.515 L64.0042 815.403 L42.679 815.403 Q37.5228 815.403 35.072 817.218 Q32.5894 819.032 32.5894 822.819 Q32.5894 827.307 35.6449 829.949 Q38.6686 832.591 43.8567 832.591 L64.0042 832.591 L64.0042 838.479 L28.3562 838.479 L28.3562 832.591 L33.8944 832.591 Q30.616 830.586 29.0564 827.785 Q27.4968 824.984 27.4968 821.132 Q27.4968 817.249 29.4702 814.544 Q31.4436 811.807 35.1993 810.502 Z" fill="#000000" fill-rule="nonzero" fill-opacity="1"></path><path clip-path="url(#clip970)" d="M28.3562 774.758 L28.3562 768.902 L64.0042 768.902 L64.0042 774.758 L28.3562 774.758 M14.479 774.758 L14.479 768.902 L21.895 768.902 L21.895 774.758 L14.479 774.758 Z" fill="#000000" fill-rule="nonzero" fill-opacity="1"></path><path clip-path="url(#clip970)" d="M29.4065 733.922 L34.9447 733.922 Q33.6716 736.405 33.035 739.078 Q32.3984 741.752 32.3984 744.617 Q32.3984 748.977 33.7352 751.173 Q35.072 753.338 37.7456 753.338 Q39.7826 753.338 40.9603 751.778 Q42.1061 750.218 43.1565 745.508 L43.6021 743.503 Q44.9389 737.264 47.3897 734.654 Q49.8086 732.013 54.1691 732.013 Q59.1344 732.013 62.0308 735.959 Q64.9272 739.874 64.9272 746.749 Q64.9272 749.614 64.3543 752.733 Q63.8132 755.82 62.6992 759.258 L56.6518 759.258 Q58.3387 756.011 59.198 752.86 Q60.0256 749.709 60.0256 746.622 Q60.0256 742.484 58.6251 740.256 Q57.1929 738.028 54.6147 738.028 Q52.2276 738.028 50.9545 739.651 Q49.6813 741.243 48.5037 746.686 L48.0262 748.723 Q46.8804 754.165 44.5251 756.584 Q42.138 759.003 38.0002 759.003 Q32.9713 759.003 30.2341 755.438 Q27.4968 751.874 27.4968 745.317 Q27.4968 742.07 27.9743 739.206 Q28.4517 736.341 29.4065 733.922 Z" fill="#000000" fill-rule="nonzero" fill-opacity="1"></path><path clip-path="url(#clip970)" d="M46.0847 706.486 Q46.0847 713.584 47.7079 716.321 Q49.3312 719.058 53.2461 719.058 Q56.3653 719.058 58.2114 717.021 Q60.0256 714.952 60.0256 711.419 Q60.0256 706.55 56.5881 703.621 Q53.1188 700.661 47.3897 700.661 L46.0847 700.661 L46.0847 706.486 M43.6657 694.805 L64.0042 694.805 L64.0042 700.661 L58.5933 700.661 Q61.8398 702.667 63.3994 705.659 Q64.9272 708.65 64.9272 712.979 Q64.9272 718.454 61.8716 721.7 Q58.7843 724.915 53.6281 724.915 Q47.6125 724.915 44.5569 720.904 Q41.5014 716.862 41.5014 708.873 L41.5014 700.661 L40.9285 700.661 Q36.8862 700.661 34.6901 703.335 Q32.4621 705.977 32.4621 710.783 Q32.4621 713.838 33.1941 716.735 Q33.9262 719.631 35.3903 722.305 L29.9795 722.305 Q28.7381 719.09 28.1334 716.066 Q27.4968 713.043 27.4968 710.178 Q27.4968 702.444 31.5072 698.624 Q35.5176 694.805 43.6657 694.805 Z" fill="#000000" fill-rule="nonzero" fill-opacity="1"></path><path clip-path="url(#clip970)" d="M18.2347 676.949 L28.3562 676.949 L28.3562 664.886 L32.9077 664.886 L32.9077 676.949 L52.2594 676.949 Q56.6199 676.949 57.8613 675.772 Q59.1026 674.562 59.1026 670.902 L59.1026 664.886 L64.0042 664.886 L64.0042 670.902 Q64.0042 677.681 61.4897 680.259 Q58.9434 682.837 52.2594 682.837 L32.9077 682.837 L32.9077 687.134 L28.3562 687.134 L28.3562 682.837 L18.2347 682.837 L18.2347 676.949 Z" fill="#000000" fill-rule="nonzero" fill-opacity="1"></path><path clip-path="url(#clip970)" d="M28.3562 657.184 L28.3562 651.327 L64.0042 651.327 L64.0042 657.184 L28.3562 657.184 M14.479 657.184 L14.479 651.327 L21.895 651.327 L21.895 657.184 L14.479 657.184 Z" fill="#000000" fill-rule="nonzero" fill-opacity="1"></path><path clip-path="url(#clip970)" d="M32.4621 625.26 Q32.4621 629.97 36.1542 632.708 Q39.8145 635.445 46.212 635.445 Q52.6095 635.445 56.3017 632.739 Q59.9619 630.002 59.9619 625.26 Q59.9619 620.581 56.2698 617.844 Q52.5777 615.106 46.212 615.106 Q39.8781 615.106 36.186 617.844 Q32.4621 620.581 32.4621 625.26 M27.4968 625.26 Q27.4968 617.621 32.4621 613.26 Q37.4273 608.9 46.212 608.9 Q54.9649 608.9 59.9619 613.26 Q64.9272 617.621 64.9272 625.26 Q64.9272 632.93 59.9619 637.291 Q54.9649 641.62 46.212 641.62 Q37.4273 641.62 32.4621 637.291 Q27.4968 632.93 27.4968 625.26 Z" fill="#000000" fill-rule="nonzero" fill-opacity="1"></path><path clip-path="url(#clip970)" d="M42.4881 569.56 L64.0042 569.56 L64.0042 575.416 L42.679 575.416 Q37.6183 575.416 35.1038 577.39 Q32.5894 579.363 32.5894 583.31 Q32.5894 588.052 35.6131 590.789 Q38.6368 593.527 43.8567 593.527 L64.0042 593.527 L64.0042 599.415 L28.3562 599.415 L28.3562 593.527 L33.8944 593.527 Q30.6797 591.426 29.0883 588.593 Q27.4968 585.729 27.4968 582.005 Q27.4968 575.862 31.3163 572.711 Q35.1038 569.56 42.4881 569.56 Z" fill="#000000" fill-rule="nonzero" fill-opacity="1"></path><path clip-path="url(#clip970)" d="M628.12 44.2197 Q630.753 45.1109 633.224 48.0275 Q635.736 50.9442 638.247 56.0483 L646.552 72.576 L637.761 72.576 L630.024 57.061 Q627.026 50.9847 624.191 48.9997 Q621.396 47.0148 616.535 47.0148 L607.623 47.0148 L607.623 72.576 L599.44 72.576 L599.44 12.096 L617.912 12.096 Q628.282 12.096 633.386 16.4305 Q638.49 20.7649 638.49 29.5149 Q638.49 35.2267 635.817 38.994 Q633.184 42.7613 628.12 44.2197 M607.623 18.8205 L607.623 40.2903 L617.912 40.2903 Q623.826 40.2903 626.824 37.5762 Q629.862 34.8216 629.862 29.5149 Q629.862 24.2082 626.824 21.5346 Q623.826 18.8205 617.912 18.8205 L607.623 18.8205 Z" fill="#000000" fill-rule="nonzero" fill-opacity="1"></path><path clip-path="url(#clip970)" d="M652.264 54.671 L652.264 27.2059 L659.717 27.2059 L659.717 54.3874 Q659.717 60.8284 662.229 64.0691 Q664.74 67.2693 669.763 67.2693 Q675.799 67.2693 679.283 63.421 Q682.807 59.5726 682.807 52.9291 L682.807 27.2059 L690.261 27.2059 L690.261 72.576 L682.807 72.576 L682.807 65.6084 Q680.093 69.7404 676.488 71.7658 Q672.923 73.7508 668.184 73.7508 Q660.365 73.7508 656.314 68.8897 Q652.264 64.0286 652.264 54.671 M671.019 26.1121 L671.019 26.1121 Z" fill="#000000" fill-rule="nonzero" fill-opacity="1"></path><path clip-path="url(#clip970)" d="M743.328 45.1919 L743.328 72.576 L735.874 72.576 L735.874 45.4349 Q735.874 38.994 733.363 35.7938 Q730.851 32.5936 725.828 32.5936 Q719.792 32.5936 716.308 36.4419 Q712.825 40.2903 712.825 46.9338 L712.825 72.576 L705.33 72.576 L705.33 27.2059 L712.825 27.2059 L712.825 34.2544 Q715.498 30.163 719.103 28.1376 Q722.749 26.1121 727.489 26.1121 Q735.307 26.1121 739.317 30.9732 Q743.328 35.7938 743.328 45.1919 Z" fill="#000000" fill-rule="nonzero" fill-opacity="1"></path><path clip-path="url(#clip970)" d="M765.567 14.324 L765.567 27.2059 L780.92 27.2059 L780.92 32.9987 L765.567 32.9987 L765.567 57.6282 Q765.567 63.1779 767.066 64.7578 Q768.606 66.3376 773.264 66.3376 L780.92 66.3376 L780.92 72.576 L773.264 72.576 Q764.636 72.576 761.354 69.3758 Q758.073 66.1351 758.073 57.6282 L758.073 32.9987 L752.604 32.9987 L752.604 27.2059 L758.073 27.2059 L758.073 14.324 L765.567 14.324 Z" fill="#000000" fill-rule="nonzero" fill-opacity="1"></path><path clip-path="url(#clip970)" d="M790.723 27.2059 L798.177 27.2059 L798.177 72.576 L790.723 72.576 L790.723 27.2059 M790.723 9.54393 L798.177 9.54393 L798.177 18.9825 L790.723 18.9825 L790.723 9.54393 Z" fill="#000000" fill-rule="nonzero" fill-opacity="1"></path><path clip-path="url(#clip970)" d="M849.097 35.9153 Q851.892 30.8922 855.781 28.5022 Q859.67 26.1121 864.936 26.1121 Q872.025 26.1121 875.873 31.0947 Q879.722 36.0368 879.722 45.1919 L879.722 72.576 L872.228 72.576 L872.228 45.4349 Q872.228 38.913 869.919 35.7533 Q867.61 32.5936 862.87 32.5936 Q857.077 32.5936 853.715 36.4419 Q850.353 40.2903 850.353 46.9338 L850.353 72.576 L842.859 72.576 L842.859 45.4349 Q842.859 38.8725 840.55 35.7533 Q838.241 32.5936 833.42 32.5936 Q827.708 32.5936 824.346 36.4824 Q820.984 40.3308 820.984 46.9338 L820.984 72.576 L813.49 72.576 L813.49 27.2059 L820.984 27.2059 L820.984 34.2544 Q823.536 30.082 827.101 28.0971 Q830.665 26.1121 835.567 26.1121 Q840.509 26.1121 843.952 28.6237 Q847.436 31.1352 849.097 35.9153 Z" fill="#000000" fill-rule="nonzero" fill-opacity="1"></path><path clip-path="url(#clip970)" d="M933.396 48.0275 L933.396 51.6733 L899.126 51.6733 Q899.612 59.3701 903.744 63.421 Q907.916 67.4314 915.329 67.4314 Q919.623 67.4314 923.634 66.3781 Q927.685 65.3249 931.654 63.2184 L931.654 70.267 Q927.644 71.9684 923.431 72.8596 Q919.218 73.7508 914.884 73.7508 Q904.027 73.7508 897.667 67.4314 Q891.348 61.1119 891.348 50.3365 Q891.348 39.1965 897.343 32.6746 Q903.379 26.1121 913.587 26.1121 Q922.742 26.1121 928.049 32.0264 Q933.396 37.9003 933.396 48.0275 M925.943 45.84 Q925.862 39.7232 922.499 36.0774 Q919.178 32.4315 913.668 32.4315 Q907.43 32.4315 903.663 35.9558 Q899.936 39.4801 899.369 45.8805 L925.943 45.84 Z" fill="#000000" fill-rule="nonzero" fill-opacity="1"></path><path clip-path="url(#clip970)" d="M972.001 27.2059 L979.455 27.2059 L979.455 72.576 L972.001 72.576 L972.001 27.2059 M972.001 9.54393 L979.455 9.54393 L979.455 18.9825 L972.001 18.9825 L972.001 9.54393 Z" fill="#000000" fill-rule="nonzero" fill-opacity="1"></path><path clip-path="url(#clip970)" d="M1030.37 35.9153 Q1033.17 30.8922 1037.06 28.5022 Q1040.95 26.1121 1046.21 26.1121 Q1053.3 26.1121 1057.15 31.0947 Q1061 36.0368 1061 45.1919 L1061 72.576 L1053.51 72.576 L1053.51 45.4349 Q1053.51 38.913 1051.2 35.7533 Q1048.89 32.5936 1044.15 32.5936 Q1038.36 32.5936 1034.99 36.4419 Q1031.63 40.2903 1031.63 46.9338 L1031.63 72.576 L1024.14 72.576 L1024.14 45.4349 Q1024.14 38.8725 1021.83 35.7533 Q1019.52 32.5936 1014.7 32.5936 Q1008.99 32.5936 1005.62 36.4824 Q1002.26 40.3308 1002.26 46.9338 L1002.26 72.576 L994.768 72.576 L994.768 27.2059 L1002.26 27.2059 L1002.26 34.2544 Q1004.81 30.082 1008.38 28.0971 Q1011.94 26.1121 1016.84 26.1121 Q1021.79 26.1121 1025.23 28.6237 Q1028.71 31.1352 1030.37 35.9153 Z" fill="#000000" fill-rule="nonzero" fill-opacity="1"></path><path clip-path="url(#clip970)" d="M1083.08 65.7705 L1083.08 89.8329 L1075.58 89.8329 L1075.58 27.2059 L1083.08 27.2059 L1083.08 34.0924 Q1085.43 30.0415 1088.99 28.0971 Q1092.6 26.1121 1097.58 26.1121 Q1105.84 26.1121 1110.99 32.6746 Q1116.17 39.2371 1116.17 49.9314 Q1116.17 60.6258 1110.99 67.1883 Q1105.84 73.7508 1097.58 73.7508 Q1092.6 73.7508 1088.99 71.8063 Q1085.43 69.8214 1083.08 65.7705 M1108.44 49.9314 Q1108.44 41.7081 1105.03 37.0496 Q1101.67 32.3505 1095.76 32.3505 Q1089.84 32.3505 1086.44 37.0496 Q1083.08 41.7081 1083.08 49.9314 Q1083.08 58.1548 1086.44 62.8538 Q1089.84 67.5124 1095.76 67.5124 Q1101.67 67.5124 1105.03 62.8538 Q1108.44 58.1548 1108.44 49.9314 Z" fill="#000000" fill-rule="nonzero" fill-opacity="1"></path><path clip-path="url(#clip970)" d="M1154.82 34.1734 Q1153.56 33.4443 1152.06 33.1202 Q1150.61 32.7556 1148.82 32.7556 Q1142.5 32.7556 1139.1 36.8875 Q1135.74 40.9789 1135.74 48.6757 L1135.74 72.576 L1128.24 72.576 L1128.24 27.2059 L1135.74 27.2059 L1135.74 34.2544 Q1138.09 30.1225 1141.86 28.1376 Q1145.62 26.1121 1151.01 26.1121 Q1151.78 26.1121 1152.71 26.2337 Q1153.64 26.3147 1154.78 26.5172 L1154.82 34.1734 Z" fill="#000000" fill-rule="nonzero" fill-opacity="1"></path><path clip-path="url(#clip970)" d="M1178.39 32.4315 Q1172.4 32.4315 1168.92 37.1306 Q1165.43 41.7891 1165.43 49.9314 Q1165.43 58.0738 1168.88 62.7728 Q1172.36 67.4314 1178.39 67.4314 Q1184.35 67.4314 1187.83 62.7323 Q1191.32 58.0333 1191.32 49.9314 Q1191.32 41.8701 1187.83 37.1711 Q1184.35 32.4315 1178.39 32.4315 M1178.39 26.1121 Q1188.12 26.1121 1193.67 32.4315 Q1199.22 38.7509 1199.22 49.9314 Q1199.22 61.0714 1193.67 67.4314 Q1188.12 73.7508 1178.39 73.7508 Q1168.63 73.7508 1163.08 67.4314 Q1157.57 61.0714 1157.57 49.9314 Q1157.57 38.7509 1163.08 32.4315 Q1168.63 26.1121 1178.39 26.1121 Z" fill="#000000" fill-rule="nonzero" fill-opacity="1"></path><path clip-path="url(#clip970)" d="M1206.22 27.2059 L1214.12 27.2059 L1228.3 65.2844 L1242.48 27.2059 L1250.38 27.2059 L1233.37 72.576 L1223.24 72.576 L1206.22 27.2059 Z" fill="#000000" fill-rule="nonzero" fill-opacity="1"></path><path clip-path="url(#clip970)" d="M1299.48 48.0275 L1299.48 51.6733 L1265.21 51.6733 Q1265.69 59.3701 1269.82 63.421 Q1274 67.4314 1281.41 67.4314 Q1285.7 67.4314 1289.71 66.3781 Q1293.76 65.3249 1297.73 63.2184 L1297.73 70.267 Q1293.72 71.9684 1289.51 72.8596 Q1285.3 73.7508 1280.96 73.7508 Q1270.11 73.7508 1263.75 67.4314 Q1257.43 61.1119 1257.43 50.3365 Q1257.43 39.1965 1263.42 32.6746 Q1269.46 26.1121 1279.67 26.1121 Q1288.82 26.1121 1294.13 32.0264 Q1299.48 37.9003 1299.48 48.0275 M1292.02 45.84 Q1291.94 39.7232 1288.58 36.0774 Q1285.26 32.4315 1279.75 32.4315 Q1273.51 32.4315 1269.74 35.9558 Q1266.02 39.4801 1265.45 45.8805 L1292.02 45.84 Z" fill="#000000" fill-rule="nonzero" fill-opacity="1"></path><path clip-path="url(#clip970)" d="M1347.03 35.9153 Q1349.83 30.8922 1353.72 28.5022 Q1357.61 26.1121 1362.87 26.1121 Q1369.96 26.1121 1373.81 31.0947 Q1377.66 36.0368 1377.66 45.1919 L1377.66 72.576 L1370.16 72.576 L1370.16 45.4349 Q1370.16 38.913 1367.86 35.7533 Q1365.55 32.5936 1360.81 32.5936 Q1355.01 32.5936 1351.65 36.4419 Q1348.29 40.2903 1348.29 46.9338 L1348.29 72.576 L1340.8 72.576 L1340.8 45.4349 Q1340.8 38.8725 1338.49 35.7533 Q1336.18 32.5936 1331.36 32.5936 Q1325.65 32.5936 1322.28 36.4824 Q1318.92 40.3308 1318.92 46.9338 L1318.92 72.576 L1311.43 72.576 L1311.43 27.2059 L1318.92 27.2059 L1318.92 34.2544 Q1321.47 30.082 1325.04 28.0971 Q1328.6 26.1121 1333.5 26.1121 Q1338.45 26.1121 1341.89 28.6237 Q1345.37 31.1352 1347.03 35.9153 Z" fill="#000000" fill-rule="nonzero" fill-opacity="1"></path><path clip-path="url(#clip970)" d="M1431.33 48.0275 L1431.33 51.6733 L1397.06 51.6733 Q1397.55 59.3701 1401.68 63.421 Q1405.85 67.4314 1413.27 67.4314 Q1417.56 67.4314 1421.57 66.3781 Q1425.62 65.3249 1429.59 63.2184 L1429.59 70.267 Q1425.58 71.9684 1421.37 72.8596 Q1417.16 73.7508 1412.82 73.7508 Q1401.96 73.7508 1395.6 67.4314 Q1389.29 61.1119 1389.29 50.3365 Q1389.29 39.1965 1395.28 32.6746 Q1401.32 26.1121 1411.52 26.1121 Q1420.68 26.1121 1425.99 32.0264 Q1431.33 37.9003 1431.33 48.0275 M1423.88 45.84 Q1423.8 39.7232 1420.44 36.0774 Q1417.11 32.4315 1411.61 32.4315 Q1405.37 32.4315 1401.6 35.9558 Q1397.87 39.4801 1397.31 45.8805 L1423.88 45.84 Z" fill="#000000" fill-rule="nonzero" fill-opacity="1"></path><path clip-path="url(#clip970)" d="M1481.28 45.1919 L1481.28 72.576 L1473.83 72.576 L1473.83 45.4349 Q1473.83 38.994 1471.32 35.7938 Q1468.8 32.5936 1463.78 32.5936 Q1457.75 32.5936 1454.26 36.4419 Q1450.78 40.2903 1450.78 46.9338 L1450.78 72.576 L1443.28 72.576 L1443.28 27.2059 L1450.78 27.2059 L1450.78 34.2544 Q1453.45 30.163 1457.06 28.1376 Q1460.7 26.1121 1465.44 26.1121 Q1473.26 26.1121 1477.27 30.9732 Q1481.28 35.7938 1481.28 45.1919 Z" fill="#000000" fill-rule="nonzero" fill-opacity="1"></path><path clip-path="url(#clip970)" d="M1503.52 14.324 L1503.52 27.2059 L1518.87 27.2059 L1518.87 32.9987 L1503.52 32.9987 L1503.52 57.6282 Q1503.52 63.1779 1505.02 64.7578 Q1506.56 66.3376 1511.22 66.3376 L1518.87 66.3376 L1518.87 72.576 L1511.22 72.576 Q1502.59 72.576 1499.31 69.3758 Q1496.03 66.1351 1496.03 57.6282 L1496.03 32.9987 L1490.56 32.9987 L1490.56 27.2059 L1496.03 27.2059 L1496.03 14.324 L1503.52 14.324 Z" fill="#000000" fill-rule="nonzero" fill-opacity="1"></path><path clip-path="url(#clip970)" d="M1572.63 32.4315 Q1566.63 32.4315 1563.15 37.1306 Q1559.67 41.7891 1559.67 49.9314 Q1559.67 58.0738 1563.11 62.7728 Q1566.59 67.4314 1572.63 67.4314 Q1578.58 67.4314 1582.07 62.7323 Q1585.55 58.0333 1585.55 49.9314 Q1585.55 41.8701 1582.07 37.1711 Q1578.58 32.4315 1572.63 32.4315 M1572.63 26.1121 Q1582.35 26.1121 1587.9 32.4315 Q1593.45 38.7509 1593.45 49.9314 Q1593.45 61.0714 1587.9 67.4314 Q1582.35 73.7508 1572.63 73.7508 Q1562.87 73.7508 1557.32 67.4314 Q1551.81 61.0714 1551.81 49.9314 Q1551.81 38.7509 1557.32 32.4315 Q1562.87 26.1121 1572.63 26.1121 Z" fill="#000000" fill-rule="nonzero" fill-opacity="1"></path><path clip-path="url(#clip970)" d="M1600.46 27.2059 L1608.36 27.2059 L1622.54 65.2844 L1636.71 27.2059 L1644.61 27.2059 L1627.6 72.576 L1617.47 72.576 L1600.46 27.2059 Z" fill="#000000" fill-rule="nonzero" fill-opacity="1"></path><path clip-path="url(#clip970)" d="M1693.71 48.0275 L1693.71 51.6733 L1659.44 51.6733 Q1659.93 59.3701 1664.06 63.421 Q1668.23 67.4314 1675.64 67.4314 Q1679.94 67.4314 1683.95 66.3781 Q1688 65.3249 1691.97 63.2184 L1691.97 70.267 Q1687.96 71.9684 1683.75 72.8596 Q1679.53 73.7508 1675.2 73.7508 Q1664.34 73.7508 1657.98 67.4314 Q1651.66 61.1119 1651.66 50.3365 Q1651.66 39.1965 1657.66 32.6746 Q1663.69 26.1121 1673.9 26.1121 Q1683.06 26.1121 1688.36 32.0264 Q1693.71 37.9003 1693.71 48.0275 M1686.26 45.84 Q1686.18 39.7232 1682.81 36.0774 Q1679.49 32.4315 1673.98 32.4315 Q1667.74 32.4315 1663.98 35.9558 Q1660.25 39.4801 1659.68 45.8805 L1686.26 45.84 Z" fill="#000000" fill-rule="nonzero" fill-opacity="1"></path><path clip-path="url(#clip970)" d="M1732.23 34.1734 Q1730.98 33.4443 1729.48 33.1202 Q1728.02 32.7556 1726.24 32.7556 Q1719.92 32.7556 1716.52 36.8875 Q1713.15 40.9789 1713.15 48.6757 L1713.15 72.576 L1705.66 72.576 L1705.66 27.2059 L1713.15 27.2059 L1713.15 34.2544 Q1715.5 30.1225 1719.27 28.1376 Q1723.04 26.1121 1728.43 26.1121 Q1729.2 26.1121 1730.13 26.2337 Q1731.06 26.3147 1732.19 26.5172 L1732.23 34.1734 Z" fill="#000000" fill-rule="nonzero" fill-opacity="1"></path><path clip-path="url(#clip970)" d="M1784.01 32.4315 Q1778.01 32.4315 1774.53 37.1306 Q1771.04 41.7891 1771.04 49.9314 Q1771.04 58.0738 1774.49 62.7728 Q1777.97 67.4314 1784.01 67.4314 Q1789.96 67.4314 1793.44 62.7323 Q1796.93 58.0333 1796.93 49.9314 Q1796.93 41.8701 1793.44 37.1711 Q1789.96 32.4315 1784.01 32.4315 M1784.01 26.1121 Q1793.73 26.1121 1799.28 32.4315 Q1804.83 38.7509 1804.83 49.9314 Q1804.83 61.0714 1799.28 67.4314 Q1793.73 73.7508 1784.01 73.7508 Q1774.24 73.7508 1768.69 67.4314 Q1763.18 61.0714 1763.18 49.9314 Q1763.18 38.7509 1768.69 32.4315 Q1774.24 26.1121 1784.01 26.1121 Z" fill="#000000" fill-rule="nonzero" fill-opacity="1"></path><path clip-path="url(#clip970)" d="M1824.39 65.7705 L1824.39 89.8329 L1816.9 89.8329 L1816.9 27.2059 L1824.39 27.2059 L1824.39 34.0924 Q1826.74 30.0415 1830.31 28.0971 Q1833.91 26.1121 1838.89 26.1121 Q1847.16 26.1121 1852.3 32.6746 Q1857.49 39.2371 1857.49 49.9314 Q1857.49 60.6258 1852.3 67.1883 Q1847.16 73.7508 1838.89 73.7508 Q1833.91 73.7508 1830.31 71.8063 Q1826.74 69.8214 1824.39 65.7705 M1849.75 49.9314 Q1849.75 41.7081 1846.35 37.0496 Q1842.99 32.3505 1837.07 32.3505 Q1831.16 32.3505 1827.75 37.0496 Q1824.39 41.7081 1824.39 49.9314 Q1824.39 58.1548 1827.75 62.8538 Q1831.16 67.5124 1837.07 67.5124 Q1842.99 67.5124 1846.35 62.8538 Q1849.75 58.1548 1849.75 49.9314 Z" fill="#000000" fill-rule="nonzero" fill-opacity="1"></path><path clip-path="url(#clip970)" d="M1877.22 14.324 L1877.22 27.2059 L1892.57 27.2059 L1892.57 32.9987 L1877.22 32.9987 L1877.22 57.6282 Q1877.22 63.1779 1878.72 64.7578 Q1880.25 66.3376 1884.91 66.3376 L1892.57 66.3376 L1892.57 72.576 L1884.91 72.576 Q1876.28 72.576 1873 69.3758 Q1869.72 66.1351 1869.72 57.6282 L1869.72 32.9987 L1864.25 32.9987 L1864.25 27.2059 L1869.72 27.2059 L1869.72 14.324 L1877.22 14.324 Z" fill="#000000" fill-rule="nonzero" fill-opacity="1"></path><path clip-path="url(#clip970)" d="M1902.37 27.2059 L1909.83 27.2059 L1909.83 72.576 L1902.37 72.576 L1902.37 27.2059 M1902.37 9.54393 L1909.83 9.54393 L1909.83 18.9825 L1902.37 18.9825 L1902.37 9.54393 Z" fill="#000000" fill-rule="nonzero" fill-opacity="1"></path><path clip-path="url(#clip970)" d="M1960.75 35.9153 Q1963.54 30.8922 1967.43 28.5022 Q1971.32 26.1121 1976.59 26.1121 Q1983.67 26.1121 1987.52 31.0947 Q1991.37 36.0368 1991.37 45.1919 L1991.37 72.576 L1983.88 72.576 L1983.88 45.4349 Q1983.88 38.913 1981.57 35.7533 Q1979.26 32.5936 1974.52 32.5936 Q1968.73 32.5936 1965.36 36.4419 Q1962 40.2903 1962 46.9338 L1962 72.576 L1954.51 72.576 L1954.51 45.4349 Q1954.51 38.8725 1952.2 35.7533 Q1949.89 32.5936 1945.07 32.5936 Q1939.36 32.5936 1936 36.4824 Q1932.63 40.3308 1932.63 46.9338 L1932.63 72.576 L1925.14 72.576 L1925.14 27.2059 L1932.63 27.2059 L1932.63 34.2544 Q1935.18 30.082 1938.75 28.0971 Q1942.31 26.1121 1947.22 26.1121 Q1952.16 26.1121 1955.6 28.6237 Q1959.09 31.1352 1960.75 35.9153 Z" fill="#000000" fill-rule="nonzero" fill-opacity="1"></path><path clip-path="url(#clip970)" d="M2006.24 27.2059 L2013.69 27.2059 L2013.69 72.576 L2006.24 72.576 L2006.24 27.2059 M2006.24 9.54393 L2013.69 9.54393 L2013.69 18.9825 L2006.24 18.9825 L2006.24 9.54393 Z" fill="#000000" fill-rule="nonzero" fill-opacity="1"></path><path clip-path="url(#clip970)" d="M2058.21 28.5427 L2058.21 35.5912 Q2055.05 33.9709 2051.65 33.1607 Q2048.25 32.3505 2044.6 32.3505 Q2039.05 32.3505 2036.25 34.0519 Q2033.5 35.7533 2033.5 39.156 Q2033.5 41.7486 2035.49 43.2475 Q2037.47 44.7058 2043.47 46.0426 L2046.02 46.6097 Q2053.96 48.3111 2057.28 51.4303 Q2060.64 54.509 2060.64 60.0587 Q2060.64 66.3781 2055.62 70.0644 Q2050.64 73.7508 2041.89 73.7508 Q2038.24 73.7508 2034.27 73.0216 Q2030.34 72.3329 2025.97 70.9151 L2025.97 63.2184 Q2030.1 65.3654 2034.11 66.4591 Q2038.12 67.5124 2042.05 67.5124 Q2047.31 67.5124 2050.15 65.73 Q2052.99 63.9071 2052.99 60.6258 Q2052.99 57.5877 2050.92 55.9673 Q2048.89 54.3469 2041.97 52.8481 L2039.37 52.2405 Q2032.45 50.7821 2029.37 47.7845 Q2026.29 44.7463 2026.29 39.4801 Q2026.29 33.0797 2030.83 29.5959 Q2035.36 26.1121 2043.71 26.1121 Q2047.84 26.1121 2051.49 26.7198 Q2055.13 27.3274 2058.21 28.5427 Z" fill="#000000" fill-rule="nonzero" fill-opacity="1"></path><path clip-path="url(#clip970)" d="M2093.13 49.7694 Q2084.1 49.7694 2080.61 51.8354 Q2077.13 53.9013 2077.13 58.8839 Q2077.13 62.8538 2079.72 65.2034 Q2082.35 67.5124 2086.85 67.5124 Q2093.05 67.5124 2096.78 63.1374 Q2100.54 58.7219 2100.54 51.4303 L2100.54 49.7694 L2093.13 49.7694 M2108 46.6907 L2108 72.576 L2100.54 72.576 L2100.54 65.6895 Q2097.99 69.8214 2094.18 71.8063 Q2090.38 73.7508 2084.87 73.7508 Q2077.9 73.7508 2073.77 69.8619 Q2069.67 65.9325 2069.67 59.3701 Q2069.67 51.7138 2074.78 47.825 Q2079.92 43.9361 2090.09 43.9361 L2100.54 43.9361 L2100.54 43.2069 Q2100.54 38.0623 2097.14 35.2672 Q2093.78 32.4315 2087.66 32.4315 Q2083.77 32.4315 2080.09 33.3632 Q2076.4 34.295 2073 36.1584 L2073 29.2718 Q2077.09 27.692 2080.94 26.9223 Q2084.78 26.1121 2088.43 26.1121 Q2098.27 26.1121 2103.14 31.2163 Q2108 36.3204 2108 46.6907 Z" fill="#000000" fill-rule="nonzero" fill-opacity="1"></path><path clip-path="url(#clip970)" d="M2130.72 14.324 L2130.72 27.2059 L2146.07 27.2059 L2146.07 32.9987 L2130.72 32.9987 L2130.72 57.6282 Q2130.72 63.1779 2132.22 64.7578 Q2133.76 66.3376 2138.42 66.3376 L2146.07 66.3376 L2146.07 72.576 L2138.42 72.576 Q2129.79 72.576 2126.51 69.3758 Q2123.23 66.1351 2123.23 57.6282 L2123.23 32.9987 L2117.76 32.9987 L2117.76 27.2059 L2123.23 27.2059 L2123.23 14.324 L2130.72 14.324 Z" fill="#000000" fill-rule="nonzero" fill-opacity="1"></path><path clip-path="url(#clip970)" d="M2155.88 27.2059 L2163.33 27.2059 L2163.33 72.576 L2155.88 72.576 L2155.88 27.2059 M2155.88 9.54393 L2163.33 9.54393 L2163.33 18.9825 L2155.88 18.9825 L2155.88 9.54393 Z" fill="#000000" fill-rule="nonzero" fill-opacity="1"></path><path clip-path="url(#clip970)" d="M2196.51 32.4315 Q2190.51 32.4315 2187.03 37.1306 Q2183.55 41.7891 2183.55 49.9314 Q2183.55 58.0738 2186.99 62.7728 Q2190.47 67.4314 2196.51 67.4314 Q2202.46 67.4314 2205.95 62.7323 Q2209.43 58.0333 2209.43 49.9314 Q2209.43 41.8701 2205.95 37.1711 Q2202.46 32.4315 2196.51 32.4315 M2196.51 26.1121 Q2206.23 26.1121 2211.78 32.4315 Q2217.33 38.7509 2217.33 49.9314 Q2217.33 61.0714 2211.78 67.4314 Q2206.23 73.7508 2196.51 73.7508 Q2186.75 73.7508 2181.2 67.4314 Q2175.69 61.0714 2175.69 49.9314 Q2175.69 38.7509 2181.2 32.4315 Q2186.75 26.1121 2196.51 26.1121 Z" fill="#000000" fill-rule="nonzero" fill-opacity="1"></path><path clip-path="url(#clip970)" d="M2267.4 45.1919 L2267.4 72.576 L2259.95 72.576 L2259.95 45.4349 Q2259.95 38.994 2257.43 35.7938 Q2254.92 32.5936 2249.9 32.5936 Q2243.86 32.5936 2240.38 36.4419 Q2236.9 40.2903 2236.9 46.9338 L2236.9 72.576 L2229.4 72.576 L2229.4 27.2059 L2236.9 27.2059 L2236.9 34.2544 Q2239.57 30.163 2243.18 28.1376 Q2246.82 26.1121 2251.56 26.1121 Q2259.38 26.1121 2263.39 30.9732 Q2267.4 35.7938 2267.4 45.1919 Z" fill="#000000" fill-rule="nonzero" fill-opacity="1"></path><path clip-path="url(#clip970)" d="M2311.19 28.5427 L2311.19 35.5912 Q2308.03 33.9709 2304.63 33.1607 Q2301.22 32.3505 2297.58 32.3505 Q2292.03 32.3505 2289.23 34.0519 Q2286.48 35.7533 2286.48 39.156 Q2286.48 41.7486 2288.46 43.2475 Q2290.45 44.7058 2296.44 46.0426 L2299 46.6097 Q2306.94 48.3111 2310.26 51.4303 Q2313.62 54.509 2313.62 60.0587 Q2313.62 66.3781 2308.6 70.0644 Q2303.61 73.7508 2294.86 73.7508 Q2291.22 73.7508 2287.25 73.0216 Q2283.32 72.3329 2278.94 70.9151 L2278.94 63.2184 Q2283.08 65.3654 2287.09 66.4591 Q2291.1 67.5124 2295.03 67.5124 Q2300.29 67.5124 2303.13 65.73 Q2305.96 63.9071 2305.96 60.6258 Q2305.96 57.5877 2303.9 55.9673 Q2301.87 54.3469 2294.95 52.8481 L2292.35 52.2405 Q2285.43 50.7821 2282.35 47.7845 Q2279.27 44.7463 2279.27 39.4801 Q2279.27 33.0797 2283.81 29.5959 Q2288.34 26.1121 2296.69 26.1121 Q2300.82 26.1121 2304.47 26.7198 Q2308.11 27.3274 2311.19 28.5427 Z" fill="#000000" fill-rule="nonzero" fill-opacity="1"></path><path clip-path="url(#clip972)" d="M2118.96 1397.19 L560.304 1397.19 L560.304 1189.23 L2118.96 1189.23 L2118.96 1397.19 L2118.96 1397.19  Z" fill="#ffa500" fill-rule="evenodd" fill-opacity="1"></path>
<polyline clip-path="url(#clip972)" style="stroke:#000000; stroke-linecap:round; stroke-linejoin:round; stroke-width:4; stroke-opacity:1; fill:none" points="2118.96,1397.19 560.304,1397.19 560.304,1189.23 2118.96,1189.23 2118.96,1397.19 "></polyline>
<path clip-path="url(#clip972)" d="M2021.03 1137.24 L560.304 1137.24 L560.304 929.291 L2021.03 929.291 L2021.03 1137.24 L2021.03 1137.24  Z" fill="#ffa500" fill-rule="evenodd" fill-opacity="1"></path>
<polyline clip-path="url(#clip972)" style="stroke:#000000; stroke-linecap:round; stroke-linejoin:round; stroke-width:4; stroke-opacity:1; fill:none" points="2021.03,1137.24 560.304,1137.24 560.304,929.291 2021.03,929.291 2021.03,1137.24 "></polyline>
<path clip-path="url(#clip972)" d="M1564.04 877.303 L560.304 877.303 L560.304 669.349 L1564.04 669.349 L1564.04 877.303 L1564.04 877.303  Z" fill="#ffa500" fill-rule="evenodd" fill-opacity="1"></path>
<polyline clip-path="url(#clip972)" style="stroke:#000000; stroke-linecap:round; stroke-linejoin:round; stroke-width:4; stroke-opacity:1; fill:none" points="1564.04,877.303 560.304,877.303 560.304,669.349 1564.04,669.349 1564.04,877.303 "></polyline>
<path clip-path="url(#clip972)" d="M1131.54 617.361 L560.304 617.361 L560.304 409.408 L1131.54 409.408 L1131.54 617.361 L1131.54 617.361  Z" fill="#ffa500" fill-rule="evenodd" fill-opacity="1"></path>
<polyline clip-path="url(#clip972)" style="stroke:#000000; stroke-linecap:round; stroke-linejoin:round; stroke-width:4; stroke-opacity:1; fill:none" points="1131.54,617.361 560.304,617.361 560.304,409.408 1131.54,409.408 1131.54,617.361 "></polyline>
<path clip-path="url(#clip972)" d="M837.761 357.42 L560.304 357.42 L560.304 149.466 L837.761 149.466 L837.761 357.42 L837.761 357.42  Z" fill="#ffa500" fill-rule="evenodd" fill-opacity="1"></path>
<polyline clip-path="url(#clip972)" style="stroke:#000000; stroke-linecap:round; stroke-linejoin:round; stroke-width:4; stroke-opacity:1; fill:none" points="837.761,357.42 560.304,357.42 560.304,149.466 837.761,149.466 837.761,357.42 "></polyline>
<path clip-path="url(#clip970)" d="M2158.16 1306.55 L2165.8 1306.55 L2165.8 1280.19 L2157.49 1281.85 L2157.49 1277.6 L2165.76 1275.93 L2170.43 1275.93 L2170.43 1306.55 L2178.07 1306.55 L2178.07 1310.49 L2158.16 1310.49 L2158.16 1306.55 Z" fill="#000000" fill-rule="nonzero" fill-opacity="1"></path><path clip-path="url(#clip970)" d="M2187.65 1309.77 L2187.65 1305.51 Q2189.41 1306.35 2191.22 1306.79 Q2193.02 1307.23 2194.76 1307.23 Q2199.39 1307.23 2201.82 1304.12 Q2204.27 1301 2204.62 1294.66 Q2203.28 1296.65 2201.22 1297.71 Q2199.16 1298.78 2196.66 1298.78 Q2191.47 1298.78 2188.44 1295.65 Q2185.43 1292.5 2185.43 1287.06 Q2185.43 1281.74 2188.58 1278.52 Q2191.73 1275.3 2196.96 1275.3 Q2202.95 1275.3 2206.1 1279.91 Q2209.27 1284.49 2209.27 1293.24 Q2209.27 1301.42 2205.39 1306.3 Q2201.52 1311.16 2194.97 1311.16 Q2193.21 1311.16 2191.4 1310.81 Q2189.6 1310.47 2187.65 1309.77 M2196.96 1295.12 Q2200.11 1295.12 2201.94 1292.97 Q2203.79 1290.81 2203.79 1287.06 Q2203.79 1283.34 2201.94 1281.18 Q2200.11 1279.01 2196.96 1279.01 Q2193.81 1279.01 2191.96 1281.18 Q2190.13 1283.34 2190.13 1287.06 Q2190.13 1290.81 2191.96 1292.97 Q2193.81 1295.12 2196.96 1295.12 Z" fill="#000000" fill-rule="nonzero" fill-opacity="1"></path><path clip-path="url(#clip970)" d="M2218.49 1306.55 L2226.13 1306.55 L2226.13 1280.19 L2217.82 1281.85 L2217.82 1277.6 L2226.08 1275.93 L2230.76 1275.93 L2230.76 1306.55 L2238.39 1306.55 L2238.39 1310.49 L2218.49 1310.49 L2218.49 1306.55 Z" fill="#000000" fill-rule="nonzero" fill-opacity="1"></path><path clip-path="url(#clip970)" d="M2059.72 1046.61 L2067.36 1046.61 L2067.36 1020.25 L2059.05 1021.91 L2059.05 1017.65 L2067.31 1015.99 L2071.99 1015.99 L2071.99 1046.61 L2079.62 1046.61 L2079.62 1050.55 L2059.72 1050.55 L2059.72 1046.61 Z" fill="#000000" fill-rule="nonzero" fill-opacity="1"></path><path clip-path="url(#clip970)" d="M2087.89 1015.99 L2110.11 1015.99 L2110.11 1017.98 L2097.56 1050.55 L2092.68 1050.55 L2104.48 1019.92 L2087.89 1019.92 L2087.89 1015.99 Z" fill="#000000" fill-rule="nonzero" fill-opacity="1"></path><path clip-path="url(#clip970)" d="M2119.37 1049.83 L2119.37 1045.57 Q2121.13 1046.4 2122.93 1046.84 Q2124.74 1047.28 2126.48 1047.28 Q2131.11 1047.28 2133.54 1044.18 Q2135.99 1041.06 2136.34 1034.71 Q2134.99 1036.71 2132.93 1037.77 Q2130.87 1038.83 2128.37 1038.83 Q2123.19 1038.83 2120.16 1035.71 Q2117.15 1032.56 2117.15 1027.12 Q2117.15 1021.8 2120.29 1018.58 Q2123.44 1015.36 2128.67 1015.36 Q2134.67 1015.36 2137.82 1019.97 Q2140.99 1024.55 2140.99 1033.3 Q2140.99 1041.47 2137.1 1046.36 Q2133.23 1051.22 2126.68 1051.22 Q2124.92 1051.22 2123.12 1050.87 Q2121.31 1050.52 2119.37 1049.83 M2128.67 1035.18 Q2131.82 1035.18 2133.65 1033.02 Q2135.5 1030.87 2135.5 1027.12 Q2135.5 1023.39 2133.65 1021.24 Q2131.82 1019.07 2128.67 1019.07 Q2125.53 1019.07 2123.67 1021.24 Q2121.85 1023.39 2121.85 1027.12 Q2121.85 1030.87 2123.67 1033.02 Q2125.53 1035.18 2128.67 1035.18 Z" fill="#000000" fill-rule="nonzero" fill-opacity="1"></path><path clip-path="url(#clip970)" d="M1602.96 786.671 L1610.6 786.671 L1610.6 760.305 L1602.29 761.972 L1602.29 757.713 L1610.55 756.046 L1615.23 756.046 L1615.23 786.671 L1622.87 786.671 L1622.87 790.606 L1602.96 790.606 L1602.96 786.671 Z" fill="#000000" fill-rule="nonzero" fill-opacity="1"></path><path clip-path="url(#clip970)" d="M1636.34 786.671 L1652.66 786.671 L1652.66 790.606 L1630.72 790.606 L1630.72 786.671 Q1633.38 783.916 1637.96 779.287 Q1642.57 774.634 1643.75 773.291 Q1645.99 770.768 1646.87 769.032 Q1647.78 767.273 1647.78 765.583 Q1647.78 762.828 1645.83 761.092 Q1643.91 759.356 1640.81 759.356 Q1638.61 759.356 1636.15 760.12 Q1633.72 760.884 1630.95 762.435 L1630.95 757.713 Q1633.77 756.578 1636.22 756 Q1638.68 755.421 1640.72 755.421 Q1646.09 755.421 1649.28 758.106 Q1652.47 760.791 1652.47 765.282 Q1652.47 767.412 1651.66 769.333 Q1650.88 771.231 1648.77 773.824 Q1648.19 774.495 1645.09 777.713 Q1641.99 780.907 1636.34 786.671 Z" fill="#000000" fill-rule="nonzero" fill-opacity="1"></path><path clip-path="url(#clip970)" d="M1676.64 771.972 Q1680 772.689 1681.87 774.958 Q1683.77 777.226 1683.77 780.56 Q1683.77 785.675 1680.25 788.476 Q1676.73 791.277 1670.25 791.277 Q1668.08 791.277 1665.76 790.837 Q1663.47 790.421 1661.02 789.564 L1661.02 785.05 Q1662.96 786.185 1665.28 786.763 Q1667.59 787.342 1670.11 787.342 Q1674.51 787.342 1676.8 785.606 Q1679.12 783.87 1679.12 780.56 Q1679.12 777.504 1676.96 775.791 Q1674.84 774.055 1671.02 774.055 L1666.99 774.055 L1666.99 770.213 L1671.2 770.213 Q1674.65 770.213 1676.48 768.847 Q1678.31 767.458 1678.31 764.865 Q1678.31 762.203 1676.41 760.791 Q1674.53 759.356 1671.02 759.356 Q1669.09 759.356 1666.9 759.773 Q1664.7 760.189 1662.06 761.069 L1662.06 756.902 Q1664.72 756.162 1667.03 755.791 Q1669.37 755.421 1671.43 755.421 Q1676.76 755.421 1679.86 757.852 Q1682.96 760.259 1682.96 764.379 Q1682.96 767.25 1681.32 769.24 Q1679.67 771.208 1676.64 771.972 Z" fill="#000000" fill-rule="nonzero" fill-opacity="1"></path><path clip-path="url(#clip970)" d="M1183.22 496.104 L1205.44 496.104 L1205.44 498.095 L1192.9 530.664 L1188.01 530.664 L1199.82 500.04 L1183.22 500.04 L1183.22 496.104 Z" fill="#000000" fill-rule="nonzero" fill-opacity="1"></path><path clip-path="url(#clip970)" d="M1224.56 499.183 Q1220.95 499.183 1219.12 502.748 Q1217.32 506.29 1217.32 513.419 Q1217.32 520.526 1219.12 524.09 Q1220.95 527.632 1224.56 527.632 Q1228.2 527.632 1230 524.09 Q1231.83 520.526 1231.83 513.419 Q1231.83 506.29 1230 502.748 Q1228.2 499.183 1224.56 499.183 M1224.56 495.479 Q1230.37 495.479 1233.43 500.086 Q1236.51 504.669 1236.51 513.419 Q1236.51 522.146 1233.43 526.752 Q1230.37 531.336 1224.56 531.336 Q1218.75 531.336 1215.67 526.752 Q1212.62 522.146 1212.62 513.419 Q1212.62 504.669 1215.67 500.086 Q1218.75 495.479 1224.56 495.479 Z" fill="#000000" fill-rule="nonzero" fill-opacity="1"></path><path clip-path="url(#clip970)" d="M904.547 252.089 Q907.904 252.806 909.779 255.075 Q911.677 257.343 911.677 260.677 Q911.677 265.792 908.158 268.593 Q904.64 271.394 898.158 271.394 Q895.982 271.394 893.668 270.954 Q891.376 270.538 888.922 269.681 L888.922 265.167 Q890.867 266.302 893.182 266.88 Q895.496 267.459 898.019 267.459 Q902.418 267.459 904.709 265.723 Q907.024 263.987 907.024 260.677 Q907.024 257.621 904.871 255.908 Q902.742 254.172 898.922 254.172 L894.895 254.172 L894.895 250.329 L899.107 250.329 Q902.556 250.329 904.385 248.964 Q906.214 247.575 906.214 244.982 Q906.214 242.32 904.316 240.908 Q902.441 239.473 898.922 239.473 Q897.001 239.473 894.802 239.89 Q892.603 240.306 889.964 241.186 L889.964 237.019 Q892.626 236.279 894.941 235.908 Q897.279 235.538 899.339 235.538 Q904.663 235.538 907.765 237.968 Q910.867 240.376 910.867 244.496 Q910.867 247.367 909.223 249.357 Q907.58 251.325 904.547 252.089 Z" fill="#000000" fill-rule="nonzero" fill-opacity="1"></path><path clip-path="url(#clip970)" d="M933.39 240.237 L921.584 258.686 L933.39 258.686 L933.39 240.237 M932.163 236.163 L938.042 236.163 L938.042 258.686 L942.973 258.686 L942.973 262.575 L938.042 262.575 L938.042 270.723 L933.39 270.723 L933.39 262.575 L917.788 262.575 L917.788 258.061 L932.163 236.163 Z" fill="#000000" fill-rule="nonzero" fill-opacity="1"></path></svg>